<svg width="633" height="626" viewBox="0 0 633 626" fill="none" xmlns="http://www.w3.org/2000/svg">
<mask id="path-1-inside-1_747_17492" fill="white">
<path d="M630.211 226.835C623.526 214.303 612.544 204.545 602.182 195.122C590.245 184.265 578.928 172.785 567.086 161.64C541.946 138.352 515.445 116.582 487.726 96.4444C481.805 92.1395 475.836 87.9781 469.868 83.7688C468.094 82.1072 466.082 80.7206 463.899 79.6552C459.124 76.3548 454.349 73.15 449.288 70.0888C439.738 63.9184 430.188 57.8915 420.351 52.056C405.644 43.2548 390.603 34.9798 375.371 27.0875C362.622 20.5344 349.92 13.8379 337.171 7.18921C329.436 3.12346 320.602 -1.08577 311.673 0.253532C302.579 2.16518 293.855 5.5413 285.84 10.2505C267.075 19.8169 248.357 30.1488 229.925 40.4805C211.494 50.8123 192.824 62.1964 174.918 73.9632C141.422 96.0498 109.642 120.642 79.848 147.529C64.2816 161.879 49.3837 176.564 34.9633 191.87C27.1801 200.145 19.4446 208.468 11.9957 216.982C6.43293 222.95 2.48761 230.244 0.535635 238.172C-0.178545 242.399 -0.178545 246.716 0.535635 250.943C0.774384 256.97 1.44291 262.853 2.2069 268.88C4.97639 289.703 8.46213 310.43 12.6641 331.062C29.4294 412.835 57.8447 491.769 97.0379 565.44C101.813 574.624 106.874 583.712 112.031 592.753C113.666 596.556 115.962 600.038 118.812 603.037C122.318 605.103 126.26 606.315 130.32 606.576C151.107 610.977 172.037 614.628 193.11 617.53C276.453 629.059 360.998 628.817 444.274 616.812C465.379 613.799 486.867 610.546 507.638 605.62C509.257 605.147 510.755 604.332 512.031 603.228C513.285 602.205 514.338 600.955 515.135 599.545C520.292 590.887 525.21 581.99 529.985 573.094C547.704 540.555 563.349 506.925 576.827 472.407C589.692 439.477 600.583 405.807 609.44 371.576C619.065 331.167 626.651 290.299 632.169 249.125C633.748 241.666 633.066 233.904 630.211 226.835ZM522.106 200.671C529.923 209.499 539.751 216.309 550.756 220.521C557.297 223 564.167 224.499 571.145 224.97C573.279 225.468 575.511 225.35 577.581 224.631C579.651 223.911 581.476 222.619 582.844 220.904C583.838 219.37 584.432 217.612 584.574 215.789C584.716 213.966 584.399 212.136 583.654 210.467C582.909 208.798 581.758 207.342 580.307 206.232C578.856 205.123 577.151 204.395 575.347 204.115C568.202 203.611 561.178 201.997 554.528 199.332C548.73 196.585 543.498 192.772 539.105 188.091C529.729 177.758 523.978 164.641 522.727 150.734C540.872 166.04 558.3 182.16 575.49 198.566C583.226 205.933 590.913 213.299 598.506 220.761L607.1 229.37C608.294 230.662 611.541 233.006 611.875 234.775C611.8 236.387 611.577 237.988 611.207 239.559C610.921 242.046 610.682 244.581 610.395 247.068C609.87 251.852 609.345 256.204 608.772 260.748C607.578 270.315 606.193 279.881 604.713 289.161L522.106 251.899V200.671ZM304.94 75.446V81.1858C299.895 81.72 294.888 82.5666 289.947 83.7209C284.408 69.5945 278.853 55.4999 273.282 41.4372C283.739 36.08 294.292 31.0097 304.94 26.083V75.446ZM259.482 95.966L228.923 65.736C237.422 60.9528 246.017 55.8825 254.707 51.3863C259.912 64.4924 265.069 77.5506 270.226 90.6566C266.549 92.1394 262.968 93.957 259.482 95.966ZM340.084 83.0513C335.511 82.1019 330.888 81.4152 326.237 80.9945V26.5613C336.455 31.2489 346.578 36.1278 356.605 41.198C351.13 55.165 345.623 69.1161 340.084 83.0513ZM599.27 320.539C596.166 336.132 592.632 351.63 588.765 367.08L516.519 334.075C515.065 333.302 513.566 332.615 512.031 332.019C513.75 332.545 509.977 331.11 509.357 331.588C509.402 331.287 509.402 330.981 509.357 330.679C509.094 328.007 509.094 325.316 509.357 322.643V304.802C509.357 298.44 508.688 294.996 502.338 291.983C490.018 286.1 477.508 280.503 465.045 274.811L392.418 241.328L356.701 224.874C344.716 219.374 332.826 212.868 320.459 208.229C317.387 207.033 313.98 207.033 310.909 208.229C304.988 210.429 299.258 213.538 293.48 216.169L257.047 232.767L185.136 265.579L147.318 282.99L129.317 291.218C125.64 292.892 121.772 294.422 120.626 298.679C120.029 303.764 120.029 308.901 120.626 313.986V325.37C120.626 326.948 121.39 330.488 120.626 331.875C121.247 330.775 115.183 333.406 114.419 333.741L103.532 338.524L82.7607 348.09L42.6031 366.41C37.8282 347.947 33.0533 329.244 30.1405 310.398L254.135 209.424L315.636 181.729C389.839 215.116 464.026 248.599 538.198 282.177L601.323 310.638C600.559 313.89 599.938 317.191 599.27 320.539ZM575.395 413.668C570.906 427.731 565.845 441.65 560.735 455.426C550.566 451.777 541.323 445.93 533.661 438.302C526.513 432.14 518.267 427.385 509.357 424.287V353.974L583.13 387.456C580.647 396.321 578.085 405.059 575.443 413.668H575.395ZM537.577 494.983C525.381 483.211 509.66 475.783 492.835 473.841C474.779 472.442 456.869 477.984 442.746 489.339C436.699 495.008 430.164 500.13 423.216 504.645C416.028 508.466 408.004 510.439 399.867 510.385C391.696 510.229 383.697 508.008 376.613 503.928C369.905 499.268 363.524 494.154 357.513 488.622C345.724 479.498 331.364 474.329 316.474 473.848C301.585 473.367 286.923 477.599 274.571 485.943C267.743 490.726 262.347 496.897 255.472 501.536C248.657 506.256 240.783 509.213 232.552 510.146C215.696 511.868 202.087 504.167 190.054 493.166C182.735 486.353 174.084 481.135 164.649 477.842C155.213 474.548 145.199 473.251 135.238 474.033C126.005 474.874 117.03 477.54 108.832 481.877C101.194 486.415 94.0838 491.79 87.6312 497.901C84.1933 490.057 80.8667 482.196 77.6516 474.32C84.7389 471.832 91.4173 468.301 97.4677 463.845C105.06 458.152 111.124 451.026 119.719 446.721C128.999 442.235 139.441 440.746 149.602 442.459C159.764 444.173 169.143 449.005 176.446 456.287C188.376 468.162 203.885 475.762 220.566 477.907C237.783 479.6 255.023 474.921 269.032 464.753C275.574 459.97 280.827 453.848 287.607 449.543C294.756 444.9 302.979 442.182 311.482 441.65C319.573 441.259 327.633 442.903 334.927 446.434C342.102 450.495 348.716 455.48 354.6 461.262C367.269 471.933 383.248 477.859 399.799 478.025C416.351 478.191 432.445 472.586 445.324 462.17C454.11 455.139 461.177 447.821 472.255 443.994C483.696 440.372 496.075 441.156 506.969 446.194C515.994 450.356 522.202 457.531 529.937 463.462C536.943 468.815 544.852 472.866 553.287 475.42C552.666 477.19 551.233 479.486 550.708 480.777C549.658 483.36 548.607 485.895 547.509 488.43C545.885 492.209 544.214 495.988 542.734 499.719C540.935 498.282 539.228 496.732 537.625 495.079L537.577 494.983ZM498.661 585.865C394.688 608.36 287.47 611.489 182.367 595.096C168.259 593.233 154.263 590.598 140.442 587.204C137.478 586.8 134.604 585.894 131.943 584.526C129.585 581.903 127.724 578.872 126.452 575.581C122.966 569.458 119.623 563.24 116.329 557.022C122.641 553.179 129.743 550.825 137.097 550.137C144.451 549.449 151.865 550.446 158.778 553.052C172.864 558.552 181.841 571.324 195.068 578.355C207.068 584.607 220.604 587.284 234.076 586.072C247.547 584.86 260.39 579.809 271.086 571.515C276.761 566.395 282.723 561.604 288.944 557.165C295.544 553.12 303.004 550.694 310.718 550.086C326.857 548.89 340.084 556.352 351.592 566.971C361.464 576.285 373.785 582.583 387.107 585.125C400.429 587.667 414.199 586.347 426.798 581.321C433.7 578.489 440.138 574.636 445.897 569.889C451.93 564.063 458.63 558.974 465.857 554.726C473.489 551.06 481.944 549.454 490.386 550.066C498.828 550.678 506.964 553.488 513.988 558.218C509.054 567.465 503.961 576.665 498.709 585.817L498.661 585.865ZM425.126 558.792C418.277 562.82 410.566 565.148 402.636 565.584C394.521 565.882 386.461 564.139 379.191 560.514C372.135 556.301 365.582 551.294 359.661 545.59C348.731 536.431 335.299 530.784 321.117 529.385C306.936 527.986 292.662 530.899 280.158 537.746C265.833 545.638 256.522 559.414 240.287 563.91C232.536 565.909 224.416 565.996 216.624 564.163C208.831 562.33 201.599 558.633 195.546 553.387C189.461 547.633 182.841 542.476 175.777 537.985C168.506 533.835 160.548 531.032 152.284 529.71C136.539 527.319 120.45 530.337 106.636 538.272C103.198 531.448 99.8552 524.56 96.6082 517.608C103.15 512.825 108.641 506.607 115.708 502.302C122.879 497.754 131.106 495.149 139.583 494.744C147.871 494.423 156.099 496.269 163.458 500.102C170.478 504.481 177.037 509.561 183.035 515.264C194.633 524.75 208.927 530.32 223.874 531.179C238.822 532.038 253.659 528.142 266.263 520.047C273.378 515.264 278.917 508.903 285.84 504.072C292.798 499.121 300.899 496.027 309.381 495.079C317.528 494.225 325.756 495.511 333.256 498.81C341.106 502.894 348.301 508.134 354.6 514.355C365.986 524.07 380.142 529.939 395.051 531.124C409.961 532.309 424.864 528.751 437.637 520.956C445.181 516.173 450.959 509.668 458.121 504.502C465.795 498.921 474.877 495.606 484.336 494.936C493.664 494.448 502.934 496.674 511.028 501.345C519.48 506.128 525.926 513.59 533.852 519.234C530.669 526.09 527.343 532.898 523.873 539.659C511.539 532.12 497.2 528.537 482.777 529.392C468.353 530.247 454.536 535.499 443.176 544.442C437.508 549.616 431.494 554.394 425.174 558.744L425.126 558.792ZM120.435 423.857C111.514 426.732 103.218 431.277 95.9874 437.25C87.5357 444.185 80.4687 451.025 70.107 454.709C61.7667 432.387 54.3973 409.858 47.9989 387.121L120.435 354.022V423.857ZM141.541 343.403V309.92C141.445 309.19 141.445 308.45 141.541 307.72L142.352 308.581L144.119 307.768C145.638 307.187 147.121 306.516 148.56 305.759L164.174 298.584V424.67C156.881 422.189 149.242 420.881 141.541 420.795V343.403ZM185.279 288.109C185.757 287.2 184.945 288.539 185.661 288.109C185.136 288.491 187.81 287.678 187.858 287.678C189.082 287.205 190.277 286.662 191.439 286.052L205.764 279.547L231.358 267.828V457.148C223.966 457.448 216.594 456.199 209.711 453.481C202.829 450.763 196.59 446.636 191.391 441.363C190.2 440.113 188.923 438.946 187.571 437.872C186.855 437.441 184.897 436.245 185.327 436.963C185.327 436.724 185.327 436.197 185.327 435.91C185.157 434.321 185.157 432.717 185.327 431.127V302.123C184.873 297.703 184.873 293.247 185.327 288.826C185.327 288.826 185.232 288.252 185.327 288.061L185.279 288.109ZM378.857 259.074V309.298H326.332V234.106L378.857 258.309V259.074ZM378.857 451.743C374.017 449.152 369.538 445.936 365.535 442.176C358.15 434.574 349.195 428.682 339.296 424.914C329.398 421.146 318.796 419.593 308.235 420.365C297.753 421.329 287.613 424.595 278.535 429.931C268.985 435.528 261.965 443.994 252.702 449.734V330.823H378.857V452.126V451.743ZM252.463 257.926L304.988 234.01V309.394H252.463V257.926ZM400.105 266.488C399.914 266.154 400.392 266.345 400.105 266.632V266.488ZM420.829 277.49C428.737 280.6 436.469 284.145 443.987 288.109C444.229 288.291 444.505 288.421 444.799 288.491C444.799 288.874 444.799 289.257 444.799 289.543V431.606C444.85 432.577 444.85 433.551 444.799 434.523C444.799 434.523 444.56 434.523 444.226 434.858C441.982 437.106 439.451 438.924 436.968 441.076C427.133 451.007 413.828 456.719 399.867 457.005V268.928C399.848 268.625 399.848 268.322 399.867 268.019L420.829 277.49ZM465.857 423.761V298.345L480.468 305.041L484.909 307.098L486.628 307.911C487.344 308.533 487.917 308.389 488.299 307.433C488.395 308.179 488.395 308.935 488.299 309.681V420.556C480.688 420.471 473.112 421.601 465.857 423.904V423.761ZM210.205 76.7853L242.054 108.355C238.951 111.04 236.017 113.916 233.268 116.964L184.611 93.3353C193.142 87.7548 201.673 82.286 210.205 76.9288V76.7853ZM285.793 106.728C304.162 100.219 324.14 99.8261 342.75 105.609C361.361 111.393 377.609 123.042 389.075 138.824C401.936 156.384 408.178 177.938 406.695 199.667L320.268 160.731H319.886C312.867 158.961 308.235 162.07 301.789 164.988L275.717 176.707L225.485 199.38C224.272 179.514 229.484 159.786 240.348 143.123C251.211 126.459 267.147 113.747 285.793 106.872V106.728ZM420.447 76.7375C429.328 82.1903 438.082 87.7867 446.709 93.5266L398.959 116.773C397.909 115.482 396.429 114.286 395.712 113.521C393.659 111.464 391.511 109.55 389.362 107.637L420.447 76.7375ZM416.102 142.555C415.433 141.215 414.717 139.876 414.001 138.585C413.284 137.293 411.9 135.667 411.04 134.28L466.764 107.254C477.746 114.955 488.49 123.087 499.091 131.171L416.102 142.555ZM501.192 200.432V242.285L478.272 231.953L465.093 225.974L460.031 223.726C475.933 220.791 490.411 212.648 501.192 200.575V200.432ZM426.607 208.898C427.764 203.122 428.261 197.233 428.087 191.344C427.638 181.621 426.035 171.987 423.312 162.644L500.141 152.312C499.245 161.019 496.482 169.43 492.039 176.967C487.597 184.505 481.582 190.991 474.404 195.983C466.464 200.74 457.478 203.467 448.237 203.924C445.624 204.152 443.192 205.355 441.423 207.295C439.654 209.236 438.677 211.771 438.687 214.399C434.963 212.82 430.856 210.764 426.607 208.898ZM371.599 95.2964C367.828 93.1327 363.938 91.1844 359.948 89.4608L375.132 51.1949C384.014 55.9463 392.816 60.8412 401.538 65.8795L371.599 95.2964ZM164.413 107.159C182.971 116.247 201.562 125.271 220.184 134.232C218.561 136.958 217.033 139.685 215.648 142.507L132.707 130.836C143.244 122.704 153.876 114.812 164.604 107.159H164.413ZM165.177 226.405L160.163 228.653L146.984 234.584L124.064 244.916V203.254C134.893 215.34 149.421 223.482 165.368 226.405H165.177ZM205.907 208.037L186.139 216.886C186.081 214.205 185.008 211.646 183.137 209.728C181.267 207.81 178.738 206.675 176.064 206.554C168.559 206.277 161.205 204.362 154.516 200.941C147.827 197.521 141.965 192.678 137.339 186.752C129.602 176.301 125.072 163.818 124.303 150.83L208.008 162.596C204.085 177.425 203.433 192.931 206.098 208.037H205.907ZM102.959 251.708C102.672 255.535 100.142 255.678 96.7991 257.209L88.7772 260.796L26.1296 289.065C23.8376 275.289 21.6888 261.418 20.5428 247.547C19.9658 244.039 19.7897 240.476 20.0176 236.928C20.5906 233.771 24.2196 231.045 26.3206 228.749C31.3821 223.296 36.4913 217.843 41.696 212.486C41.811 212.346 41.9389 212.218 42.078 212.103C41.3001 213.562 40.8461 215.172 40.7472 216.823C40.6483 218.475 40.9068 220.128 41.505 221.669C45.516 232.193 61.7986 227.218 69.5818 224.922C82.5008 221.042 94.0786 213.62 103.007 203.493V233.962C103.15 239.941 103.627 245.825 103.15 251.708H102.959ZM54.1586 206.459C51.6105 206.492 49.0884 206.978 46.7097 207.894C64.5681 189.654 83.2064 172.275 102.625 155.756C98.9478 181.108 81.0417 204.067 54.1586 206.459Z"/>
</mask>
<path d="M630.211 226.835C623.526 214.303 612.544 204.545 602.182 195.122C590.245 184.265 578.928 172.785 567.086 161.64C541.946 138.352 515.445 116.582 487.726 96.4444C481.805 92.1395 475.836 87.9781 469.868 83.7688C468.094 82.1072 466.082 80.7206 463.899 79.6552C459.124 76.3548 454.349 73.15 449.288 70.0888C439.738 63.9184 430.188 57.8915 420.351 52.056C405.644 43.2548 390.603 34.9798 375.371 27.0875C362.622 20.5344 349.92 13.8379 337.171 7.18921C329.436 3.12346 320.602 -1.08577 311.673 0.253532C302.579 2.16518 293.855 5.5413 285.84 10.2505C267.075 19.8169 248.357 30.1488 229.925 40.4805C211.494 50.8123 192.824 62.1964 174.918 73.9632C141.422 96.0498 109.642 120.642 79.848 147.529C64.2816 161.879 49.3837 176.564 34.9633 191.87C27.1801 200.145 19.4446 208.468 11.9957 216.982C6.43293 222.95 2.48761 230.244 0.535635 238.172C-0.178545 242.399 -0.178545 246.716 0.535635 250.943C0.774384 256.97 1.44291 262.853 2.2069 268.88C4.97639 289.703 8.46213 310.43 12.6641 331.062C29.4294 412.835 57.8447 491.769 97.0379 565.44C101.813 574.624 106.874 583.712 112.031 592.753C113.666 596.556 115.962 600.038 118.812 603.037C122.318 605.103 126.26 606.315 130.32 606.576C151.107 610.977 172.037 614.628 193.11 617.53C276.453 629.059 360.998 628.817 444.274 616.812C465.379 613.799 486.867 610.546 507.638 605.62C509.257 605.147 510.755 604.332 512.031 603.228C513.285 602.205 514.338 600.955 515.135 599.545C520.292 590.887 525.21 581.99 529.985 573.094C547.704 540.555 563.349 506.925 576.827 472.407C589.692 439.477 600.583 405.807 609.44 371.576C619.065 331.167 626.651 290.299 632.169 249.125C633.748 241.666 633.066 233.904 630.211 226.835ZM522.106 200.671C529.923 209.499 539.751 216.309 550.756 220.521C557.297 223 564.167 224.499 571.145 224.97C573.279 225.468 575.511 225.35 577.581 224.631C579.651 223.911 581.476 222.619 582.844 220.904C583.838 219.37 584.432 217.612 584.574 215.789C584.716 213.966 584.399 212.136 583.654 210.467C582.909 208.798 581.758 207.342 580.307 206.232C578.856 205.123 577.151 204.395 575.347 204.115C568.202 203.611 561.178 201.997 554.528 199.332C548.73 196.585 543.498 192.772 539.105 188.091C529.729 177.758 523.978 164.641 522.727 150.734C540.872 166.04 558.3 182.16 575.49 198.566C583.226 205.933 590.913 213.299 598.506 220.761L607.1 229.37C608.294 230.662 611.541 233.006 611.875 234.775C611.8 236.387 611.577 237.988 611.207 239.559C610.921 242.046 610.682 244.581 610.395 247.068C609.87 251.852 609.345 256.204 608.772 260.748C607.578 270.315 606.193 279.881 604.713 289.161L522.106 251.899V200.671ZM304.94 75.446V81.1858C299.895 81.72 294.888 82.5666 289.947 83.7209C284.408 69.5945 278.853 55.4999 273.282 41.4372C283.739 36.08 294.292 31.0097 304.94 26.083V75.446ZM259.482 95.966L228.923 65.736C237.422 60.9528 246.017 55.8825 254.707 51.3863C259.912 64.4924 265.069 77.5506 270.226 90.6566C266.549 92.1394 262.968 93.957 259.482 95.966ZM340.084 83.0513C335.511 82.1019 330.888 81.4152 326.237 80.9945V26.5613C336.455 31.2489 346.578 36.1278 356.605 41.198C351.13 55.165 345.623 69.1161 340.084 83.0513ZM599.27 320.539C596.166 336.132 592.632 351.63 588.765 367.08L516.519 334.075C515.065 333.302 513.566 332.615 512.031 332.019C513.75 332.545 509.977 331.11 509.357 331.588C509.402 331.287 509.402 330.981 509.357 330.679C509.094 328.007 509.094 325.316 509.357 322.643V304.802C509.357 298.44 508.688 294.996 502.338 291.983C490.018 286.1 477.508 280.503 465.045 274.811L392.418 241.328L356.701 224.874C344.716 219.374 332.826 212.868 320.459 208.229C317.387 207.033 313.98 207.033 310.909 208.229C304.988 210.429 299.258 213.538 293.48 216.169L257.047 232.767L185.136 265.579L147.318 282.99L129.317 291.218C125.64 292.892 121.772 294.422 120.626 298.679C120.029 303.764 120.029 308.901 120.626 313.986V325.37C120.626 326.948 121.39 330.488 120.626 331.875C121.247 330.775 115.183 333.406 114.419 333.741L103.532 338.524L82.7607 348.09L42.6031 366.41C37.8282 347.947 33.0533 329.244 30.1405 310.398L254.135 209.424L315.636 181.729C389.839 215.116 464.026 248.599 538.198 282.177L601.323 310.638C600.559 313.89 599.938 317.191 599.27 320.539ZM575.395 413.668C570.906 427.731 565.845 441.65 560.735 455.426C550.566 451.777 541.323 445.93 533.661 438.302C526.513 432.14 518.267 427.385 509.357 424.287V353.974L583.13 387.456C580.647 396.321 578.085 405.059 575.443 413.668H575.395ZM537.577 494.983C525.381 483.211 509.66 475.783 492.835 473.841C474.779 472.442 456.869 477.984 442.746 489.339C436.699 495.008 430.164 500.13 423.216 504.645C416.028 508.466 408.004 510.439 399.867 510.385C391.696 510.229 383.697 508.008 376.613 503.928C369.905 499.268 363.524 494.154 357.513 488.622C345.724 479.498 331.364 474.329 316.474 473.848C301.585 473.367 286.923 477.599 274.571 485.943C267.743 490.726 262.347 496.897 255.472 501.536C248.657 506.256 240.783 509.213 232.552 510.146C215.696 511.868 202.087 504.167 190.054 493.166C182.735 486.353 174.084 481.135 164.649 477.842C155.213 474.548 145.199 473.251 135.238 474.033C126.005 474.874 117.03 477.54 108.832 481.877C101.194 486.415 94.0838 491.79 87.6312 497.901C84.1933 490.057 80.8667 482.196 77.6516 474.32C84.7389 471.832 91.4173 468.301 97.4677 463.845C105.06 458.152 111.124 451.026 119.719 446.721C128.999 442.235 139.441 440.746 149.602 442.459C159.764 444.173 169.143 449.005 176.446 456.287C188.376 468.162 203.885 475.762 220.566 477.907C237.783 479.6 255.023 474.921 269.032 464.753C275.574 459.97 280.827 453.848 287.607 449.543C294.756 444.9 302.979 442.182 311.482 441.65C319.573 441.259 327.633 442.903 334.927 446.434C342.102 450.495 348.716 455.48 354.6 461.262C367.269 471.933 383.248 477.859 399.799 478.025C416.351 478.191 432.445 472.586 445.324 462.17C454.11 455.139 461.177 447.821 472.255 443.994C483.696 440.372 496.075 441.156 506.969 446.194C515.994 450.356 522.202 457.531 529.937 463.462C536.943 468.815 544.852 472.866 553.287 475.42C552.666 477.19 551.233 479.486 550.708 480.777C549.658 483.36 548.607 485.895 547.509 488.43C545.885 492.209 544.214 495.988 542.734 499.719C540.935 498.282 539.228 496.732 537.625 495.079L537.577 494.983ZM498.661 585.865C394.688 608.36 287.47 611.489 182.367 595.096C168.259 593.233 154.263 590.598 140.442 587.204C137.478 586.8 134.604 585.894 131.943 584.526C129.585 581.903 127.724 578.872 126.452 575.581C122.966 569.458 119.623 563.24 116.329 557.022C122.641 553.179 129.743 550.825 137.097 550.137C144.451 549.449 151.865 550.446 158.778 553.052C172.864 558.552 181.841 571.324 195.068 578.355C207.068 584.607 220.604 587.284 234.076 586.072C247.547 584.86 260.39 579.809 271.086 571.515C276.761 566.395 282.723 561.604 288.944 557.165C295.544 553.12 303.004 550.694 310.718 550.086C326.857 548.89 340.084 556.352 351.592 566.971C361.464 576.285 373.785 582.583 387.107 585.125C400.429 587.667 414.199 586.347 426.798 581.321C433.7 578.489 440.138 574.636 445.897 569.889C451.93 564.063 458.63 558.974 465.857 554.726C473.489 551.06 481.944 549.454 490.386 550.066C498.828 550.678 506.964 553.488 513.988 558.218C509.054 567.465 503.961 576.665 498.709 585.817L498.661 585.865ZM425.126 558.792C418.277 562.82 410.566 565.148 402.636 565.584C394.521 565.882 386.461 564.139 379.191 560.514C372.135 556.301 365.582 551.294 359.661 545.59C348.731 536.431 335.299 530.784 321.117 529.385C306.936 527.986 292.662 530.899 280.158 537.746C265.833 545.638 256.522 559.414 240.287 563.91C232.536 565.909 224.416 565.996 216.624 564.163C208.831 562.33 201.599 558.633 195.546 553.387C189.461 547.633 182.841 542.476 175.777 537.985C168.506 533.835 160.548 531.032 152.284 529.71C136.539 527.319 120.45 530.337 106.636 538.272C103.198 531.448 99.8552 524.56 96.6082 517.608C103.15 512.825 108.641 506.607 115.708 502.302C122.879 497.754 131.106 495.149 139.583 494.744C147.871 494.423 156.099 496.269 163.458 500.102C170.478 504.481 177.037 509.561 183.035 515.264C194.633 524.75 208.927 530.32 223.874 531.179C238.822 532.038 253.659 528.142 266.263 520.047C273.378 515.264 278.917 508.903 285.84 504.072C292.798 499.121 300.899 496.027 309.381 495.079C317.528 494.225 325.756 495.511 333.256 498.81C341.106 502.894 348.301 508.134 354.6 514.355C365.986 524.07 380.142 529.939 395.051 531.124C409.961 532.309 424.864 528.751 437.637 520.956C445.181 516.173 450.959 509.668 458.121 504.502C465.795 498.921 474.877 495.606 484.336 494.936C493.664 494.448 502.934 496.674 511.028 501.345C519.48 506.128 525.926 513.59 533.852 519.234C530.669 526.09 527.343 532.898 523.873 539.659C511.539 532.12 497.2 528.537 482.777 529.392C468.353 530.247 454.536 535.499 443.176 544.442C437.508 549.616 431.494 554.394 425.174 558.744L425.126 558.792ZM120.435 423.857C111.514 426.732 103.218 431.277 95.9874 437.25C87.5357 444.185 80.4687 451.025 70.107 454.709C61.7667 432.387 54.3973 409.858 47.9989 387.121L120.435 354.022V423.857ZM141.541 343.403V309.92C141.445 309.19 141.445 308.45 141.541 307.72L142.352 308.581L144.119 307.768C145.638 307.187 147.121 306.516 148.56 305.759L164.174 298.584V424.67C156.881 422.189 149.242 420.881 141.541 420.795V343.403ZM185.279 288.109C185.757 287.2 184.945 288.539 185.661 288.109C185.136 288.491 187.81 287.678 187.858 287.678C189.082 287.205 190.277 286.662 191.439 286.052L205.764 279.547L231.358 267.828V457.148C223.966 457.448 216.594 456.199 209.711 453.481C202.829 450.763 196.59 446.636 191.391 441.363C190.2 440.113 188.923 438.946 187.571 437.872C186.855 437.441 184.897 436.245 185.327 436.963C185.327 436.724 185.327 436.197 185.327 435.91C185.157 434.321 185.157 432.717 185.327 431.127V302.123C184.873 297.703 184.873 293.247 185.327 288.826C185.327 288.826 185.232 288.252 185.327 288.061L185.279 288.109ZM378.857 259.074V309.298H326.332V234.106L378.857 258.309V259.074ZM378.857 451.743C374.017 449.152 369.538 445.936 365.535 442.176C358.15 434.574 349.195 428.682 339.296 424.914C329.398 421.146 318.796 419.593 308.235 420.365C297.753 421.329 287.613 424.595 278.535 429.931C268.985 435.528 261.965 443.994 252.702 449.734V330.823H378.857V452.126V451.743ZM252.463 257.926L304.988 234.01V309.394H252.463V257.926ZM400.105 266.488C399.914 266.154 400.392 266.345 400.105 266.632V266.488ZM420.829 277.49C428.737 280.6 436.469 284.145 443.987 288.109C444.229 288.291 444.505 288.421 444.799 288.491C444.799 288.874 444.799 289.257 444.799 289.543V431.606C444.85 432.577 444.85 433.551 444.799 434.523C444.799 434.523 444.56 434.523 444.226 434.858C441.982 437.106 439.451 438.924 436.968 441.076C427.133 451.007 413.828 456.719 399.867 457.005V268.928C399.848 268.625 399.848 268.322 399.867 268.019L420.829 277.49ZM465.857 423.761V298.345L480.468 305.041L484.909 307.098L486.628 307.911C487.344 308.533 487.917 308.389 488.299 307.433C488.395 308.179 488.395 308.935 488.299 309.681V420.556C480.688 420.471 473.112 421.601 465.857 423.904V423.761ZM210.205 76.7853L242.054 108.355C238.951 111.04 236.017 113.916 233.268 116.964L184.611 93.3353C193.142 87.7548 201.673 82.286 210.205 76.9288V76.7853ZM285.793 106.728C304.162 100.219 324.14 99.8261 342.75 105.609C361.361 111.393 377.609 123.042 389.075 138.824C401.936 156.384 408.178 177.938 406.695 199.667L320.268 160.731H319.886C312.867 158.961 308.235 162.07 301.789 164.988L275.717 176.707L225.485 199.38C224.272 179.514 229.484 159.786 240.348 143.123C251.211 126.459 267.147 113.747 285.793 106.872V106.728ZM420.447 76.7375C429.328 82.1903 438.082 87.7867 446.709 93.5266L398.959 116.773C397.909 115.482 396.429 114.286 395.712 113.521C393.659 111.464 391.511 109.55 389.362 107.637L420.447 76.7375ZM416.102 142.555C415.433 141.215 414.717 139.876 414.001 138.585C413.284 137.293 411.9 135.667 411.04 134.28L466.764 107.254C477.746 114.955 488.49 123.087 499.091 131.171L416.102 142.555ZM501.192 200.432V242.285L478.272 231.953L465.093 225.974L460.031 223.726C475.933 220.791 490.411 212.648 501.192 200.575V200.432ZM426.607 208.898C427.764 203.122 428.261 197.233 428.087 191.344C427.638 181.621 426.035 171.987 423.312 162.644L500.141 152.312C499.245 161.019 496.482 169.43 492.039 176.967C487.597 184.505 481.582 190.991 474.404 195.983C466.464 200.74 457.478 203.467 448.237 203.924C445.624 204.152 443.192 205.355 441.423 207.295C439.654 209.236 438.677 211.771 438.687 214.399C434.963 212.82 430.856 210.764 426.607 208.898ZM371.599 95.2964C367.828 93.1327 363.938 91.1844 359.948 89.4608L375.132 51.1949C384.014 55.9463 392.816 60.8412 401.538 65.8795L371.599 95.2964ZM164.413 107.159C182.971 116.247 201.562 125.271 220.184 134.232C218.561 136.958 217.033 139.685 215.648 142.507L132.707 130.836C143.244 122.704 153.876 114.812 164.604 107.159H164.413ZM165.177 226.405L160.163 228.653L146.984 234.584L124.064 244.916V203.254C134.893 215.34 149.421 223.482 165.368 226.405H165.177ZM205.907 208.037L186.139 216.886C186.081 214.205 185.008 211.646 183.137 209.728C181.267 207.81 178.738 206.675 176.064 206.554C168.559 206.277 161.205 204.362 154.516 200.941C147.827 197.521 141.965 192.678 137.339 186.752C129.602 176.301 125.072 163.818 124.303 150.83L208.008 162.596C204.085 177.425 203.433 192.931 206.098 208.037H205.907ZM102.959 251.708C102.672 255.535 100.142 255.678 96.7991 257.209L88.7772 260.796L26.1296 289.065C23.8376 275.289 21.6888 261.418 20.5428 247.547C19.9658 244.039 19.7897 240.476 20.0176 236.928C20.5906 233.771 24.2196 231.045 26.3206 228.749C31.3821 223.296 36.4913 217.843 41.696 212.486C41.811 212.346 41.9389 212.218 42.078 212.103C41.3001 213.562 40.8461 215.172 40.7472 216.823C40.6483 218.475 40.9068 220.128 41.505 221.669C45.516 232.193 61.7986 227.218 69.5818 224.922C82.5008 221.042 94.0786 213.62 103.007 203.493V233.962C103.15 239.941 103.627 245.825 103.15 251.708H102.959ZM54.1586 206.459C51.6105 206.492 49.0884 206.978 46.7097 207.894C64.5681 189.654 83.2064 172.275 102.625 155.756C98.9478 181.108 81.0417 204.067 54.1586 206.459Z" stroke="#B0AAA1" stroke-opacity="0.2" stroke-width="2" mask="url(#path-1-inside-1_747_17492)"/>
</svg>
