<svg width="50" height="50" viewBox="0 0 50 50" fill="none" xmlns="http://www.w3.org/2000/svg">
<path d="M30.1429 25C30.1429 27.8403 27.8403 30.1429 25 30.1429C22.1597 30.1429 19.8571 27.8403 19.8571 25C19.8571 22.1597 22.1597 19.8571 25 19.8571C27.8403 19.8571 30.1429 22.1597 30.1429 25ZM30.1429 25V26.7143C30.1429 28.6078 31.6779 30.1429 33.5714 30.1429C34.7878 30.1429 35.8562 29.5094 36.4648 28.5545C36.8037 28.0228 37 27.3915 37 26.7143V25C37 18.3726 31.6274 13 25 13C18.3726 13 13 18.3726 13 25C13 31.6274 18.3726 37 25 37C27.5496 37 29.9134 36.2049 31.8571 34.8491" stroke="#C19B5C" stroke-width="2" stroke-linecap="round" stroke-linejoin="round"/>
</svg>
