<svg width="51" height="50" viewBox="0 0 51 50" fill="none" xmlns="http://www.w3.org/2000/svg">
<path d="M34.8042 23.9746H17.221C15.2631 23.9746 13.5 25.4136 13.5 27.3714V32.4762C13.5 32.7111 13.8664 33.0055 14.1013 33.0055H37.9238C38.1588 33.0055 38.2469 32.7111 38.2469 32.4762V27.3714C38.2469 25.4136 36.762 23.9746 34.8042 23.9746Z" stroke="#C19B5C" stroke-width="2" stroke-miterlimit="10" stroke-linecap="round" stroke-linejoin="round"/>
<path d="M38.2469 28.6227C38.2469 28.3877 38.0564 28.1973 37.8215 28.1973H13.9254C13.6905 28.1973 13.5 28.3877 13.5 28.6227V32.5805C13.5 32.8154 13.6905 33.0059 13.9254 33.0059H37.8215C38.0564 33.0059 38.2469 32.8154 38.2469 32.5805V28.6227Z" stroke="#C19B5C" stroke-width="2" stroke-miterlimit="10" stroke-linecap="round" stroke-linejoin="round"/>
<path d="M36.1357 21V16.3116C36.1357 16.0767 36.0316 16 35.7966 16H16.2283C15.9933 16 15.7283 16.0767 15.7283 16.3116L15.7283 21" stroke="#C19B5C" stroke-width="2" stroke-miterlimit="10" stroke-linecap="round" stroke-linejoin="round"/>
<path d="M13.5 30.7773V34.9996" stroke="#C19B5C" stroke-width="2" stroke-miterlimit="10" stroke-linecap="round" stroke-linejoin="round"/>
<path d="M38.2468 30.7773V34.9996" stroke="#C19B5C" stroke-width="2" stroke-miterlimit="10" stroke-linecap="round" stroke-linejoin="round"/>
<path d="M33.243 21.5352C33.243 20.4812 33.469 19.3712 33.469 19.3712C33.469 19.1841 33.3172 19.014 33.13 19.014C33.13 19.014 32.0761 19.2305 31.041 19.2305C30.0058 19.2305 28.8391 19 28.8391 19C28.6518 19 28.5 19.1493 28.5 19.3365C28.5 19.3365 28.726 20.4071 28.726 21.5364" stroke="#C19B5C" stroke-width="2" stroke-miterlimit="10" stroke-linecap="round" stroke-linejoin="round"/>
<path d="M23.2428 21.5352C23.2428 20.4812 23.4687 19.3712 23.4687 19.3712C23.4687 19.1841 23.317 19.014 23.1299 19.014C23.1299 19.014 22.0759 19.2305 21.0408 19.2305C20.0056 19.2305 18.8388 19 18.8388 19C18.6515 19 18.5 19.1493 18.5 19.3365C18.5 19.3365 18.7258 20.4071 18.7258 21.5364" stroke="#C19B5C" stroke-width="2" stroke-miterlimit="10" stroke-linecap="round" stroke-linejoin="round"/>
</svg>
