<svg width="417" height="22" viewBox="0 0 417 22" fill="none" xmlns="http://www.w3.org/2000/svg">
<g clip-path="url(#clip0_406_797)">
<path d="M22.4815 21.5463H17.2921V5.04203H5.18939V21.5806H0V0.0427856H22.4815V21.5463Z" fill="#422612"/>
<path d="M75.0599 15.0747L77.3525 19.5518C74.5307 20.8553 71.4358 21.5172 68.3066 21.4864C59.5184 21.4864 52.6406 16.7953 52.6406 10.7774C52.6406 4.75954 59.5184 0.0427763 68.3066 0.0427763C71.4358 0.0119679 74.5307 0.673863 77.3525 1.97742L75.0599 6.45449C72.95 5.49373 70.64 5.01057 68.3066 5.04202C63.3393 5.04202 57.83 7.37044 57.83 10.7774C57.83 14.1844 63.3393 16.5129 68.3066 16.5129C70.6416 16.5318 72.9507 16.04 75.0599 15.0747Z" fill="#422612"/>
<path d="M102.42 5.04203H94.1381V21.5463H88.9487V5.04203H80.5781V0.0427856H102.455L102.42 5.04203Z" fill="#422612"/>
<path d="M132.622 10.4436C132.409 4.67393 126.402 0.0427856 119.134 0.0427856C111.865 0.0427856 105.805 4.67393 105.618 10.4436C105.609 10.5547 105.609 10.6663 105.618 10.7774C105.621 12.3983 106.075 13.9888 106.933 15.3829C109.11 18.9954 113.758 21.4864 119.151 21.4864C124.545 21.4864 129.272 18.9183 131.405 15.2716C132.225 13.9055 132.657 12.3555 132.658 10.7774C132.655 10.6655 132.643 10.5538 132.622 10.4436ZM119.134 16.5129C116.781 16.5564 114.49 15.7882 112.673 14.3471C112.113 13.9166 111.654 13.3751 111.329 12.7593C111.004 12.1435 110.82 11.4676 110.79 10.7774C110.788 10.4416 110.836 10.1073 110.932 9.78442C111.634 7.11361 115.108 5.04203 119.134 5.04203C122.857 5.04203 126.1 6.80546 127.131 9.16811C127.36 9.67579 127.478 10.2237 127.477 10.7774C127.448 11.9701 126.934 13.1039 126.047 13.9362C125.129 14.785 124.045 15.4499 122.858 15.8922C121.672 16.3345 120.406 16.5455 119.134 16.5129Z" fill="#422612"/>
<path d="M156.997 8.35486C156.997 12.635 152.928 16.6669 145.792 16.6669H140.665V21.5463H135.476V0.0684814H145.152C152.963 0.0684814 156.997 4.0319 156.997 8.35486ZM151.843 8.35486C151.843 6.3603 149.489 5.06773 145.152 5.06773H140.665V11.6677H145.792C149.524 11.6677 151.879 10.3494 151.879 8.35486H151.843Z" fill="#422612"/>
<path d="M182.322 15.0747L184.614 19.5518C181.791 20.8527 178.697 21.5145 175.568 21.4864C166.78 21.4864 159.902 16.7954 159.902 10.7775C159.902 4.75955 166.78 0.0427883 175.568 0.0427883C178.697 0.0147175 181.791 0.676477 184.614 1.97743L182.322 6.45451C180.212 5.49374 177.902 5.01058 175.568 5.04203C170.601 5.04203 165.092 7.37045 165.092 10.7775C165.092 14.1845 170.601 16.5129 175.568 16.5129C177.903 16.5318 180.212 16.04 182.322 15.0747Z" fill="#422612"/>
<path d="M204.359 21.4864L195.793 12.8319L192.994 15.2887V21.5463H187.796V0.0427856H192.994V8.53465L202.635 0.0427856H210.313L199.65 9.45913L211.53 21.4864H204.359Z" fill="#422612"/>
<path d="M237.859 10.7774C237.859 16.7012 231.808 21.4864 224.353 21.4864C216.897 21.4864 210.819 16.7012 210.819 10.7774C210.819 4.85371 216.871 0.0427856 224.353 0.0427856C231.835 0.0427856 237.859 4.85371 237.859 10.7774ZM232.697 10.7774C232.697 7.65294 228.876 5.04203 224.353 5.04203C219.83 5.04203 216.009 7.61013 216.009 10.7774C216.009 13.9448 219.83 16.5129 224.353 16.5129C228.876 16.5129 232.732 13.8763 232.732 10.7774H232.697Z" fill="#422612"/>
<path d="M246.266 8.29494H255.534V13.2599H246.266V16.5129H259.897V21.4864H241.076V0.0427856H259.959V5.04203H246.266V8.29494Z" fill="#422612"/>
<path d="M49.6906 14.2358L47.2381 9.29647L43.7903 2.32842L42.6707 0.0684814H36.4505L35.3398 2.25992L31.7854 9.36497L29.3151 14.2701L25.6719 21.4864H31.4389L32.4519 19.4405L33.4826 17.386L33.7225 16.9237C35.5649 17.5964 37.5194 17.9387 39.4895 17.9338C41.4673 17.9409 43.4291 17.5925 45.2743 16.9066L46.6161 19.6288L47.5491 21.4949H53.2805L49.6906 14.2358ZM39.4895 12.9603C38.2993 12.9629 37.1167 12.7778 35.9885 12.4124L39.5429 5.32452L41.9865 10.2638L42.0398 10.3751L43.0439 12.3954C41.9002 12.7736 40.6988 12.9646 39.4895 12.9603Z" fill="#422612"/>
<path d="M313.461 10.7347C313.461 16.6584 307.409 21.4436 299.963 21.4436C292.517 21.4436 286.43 16.6584 286.43 10.7347C286.43 4.81093 292.481 0 299.963 0C307.445 0 313.461 4.81093 313.461 10.7347ZM308.307 10.7347C308.307 7.61015 304.486 4.99924 299.963 4.99924C295.44 4.99924 291.619 7.56735 291.619 10.7347C291.619 13.902 295.44 16.47 299.963 16.47C304.486 16.47 308.307 13.8335 308.307 10.7347Z" fill="#422612"/>
<path d="M339.159 14.4583C339.159 18.7385 334.032 22.0342 327.19 22.0342C320.348 22.0342 315.247 18.7813 315.247 14.4583H320.499C320.499 15.3144 323.164 17.0264 327.252 17.0264C331.339 17.0264 334.032 15.3144 334.032 14.4583C334.032 13.6023 331.455 11.8903 327.376 11.8903C326.195 12.1299 325.306 12.2241 324.959 12.284L324.32 7.31902C326.914 6.99956 329.435 6.26164 331.775 5.13616H315.283V0.136963H339.159V2.61942C339.159 5.3844 337.533 7.37895 335.4 8.81708C337.729 10.0926 339.159 12.1128 339.159 14.4583Z" fill="#422612"/>
<path d="M348.303 8.25215H357.571V13.2171H348.303V16.47H361.934V21.4436H343.113V0.0427856H361.996V5.04203H348.303V8.25215Z" fill="#422612"/>
<path d="M387.09 8.31207C387.09 12.5922 383.02 16.6242 375.885 16.6242H370.758V21.5035H365.568V0.0256958H375.245C383.02 0.0256958 387.09 3.98911 387.09 8.31207ZM381.936 8.31207C381.936 6.31752 379.582 5.03346 375.245 5.03346H370.758V11.6249H375.885C379.582 11.6249 381.936 10.3066 381.936 8.31207Z" fill="#422612"/>
<path d="M417 10.7347C417 16.6584 410.949 21.4436 403.493 21.4436C396.038 21.4436 389.96 16.6584 389.96 10.7347C389.96 4.81093 396.011 0 403.493 0C410.975 0 417 4.81093 417 10.7347ZM411.837 10.7347C411.837 7.61015 408.016 4.99924 403.493 4.99924C398.97 4.99924 395.149 7.56735 395.149 10.7347C395.149 13.902 398.97 16.47 403.493 16.47C408.016 16.47 411.837 13.8335 411.837 10.7347Z" fill="#422612"/>
</g>
<defs>
<clipPath id="clip0_406_797">
<rect width="417" height="22" fill="white"/>
</clipPath>
</defs>
</svg>
