<svg width="236" height="28" viewBox="0 0 236 28" fill="none" xmlns="http://www.w3.org/2000/svg">
<path d="M108.542 6.31055L103.435 20.3625L98.3274 6.31055H93.0498L100.682 27.3115H106.187L113.824 6.31055H108.542Z" fill="white"/>
<path d="M3.898 9.31192C2.87626 10.2619 2.06781 11.4209 1.52682 12.7112C0.985832 14.0014 0.724794 15.3933 0.76115 16.7934C0.727746 18.2029 0.989849 19.6037 1.53037 20.9042C2.07089 22.2048 2.87767 23.3758 3.898 24.3409C5.99069 26.3037 8.97462 27.2983 12.7624 27.2983H15.3532V22.3781H12.7624C8.36735 22.3781 5.85087 20.3493 5.85087 16.811C5.85087 13.2727 8.36735 11.2439 12.7624 11.2439H15.3532V6.31055H12.7624C8.95278 6.31055 5.96884 7.32273 3.898 9.31192Z" fill="white"/>
<path d="M61.8201 6.30078C59.0554 6.30427 56.4049 7.41216 54.4499 9.38145C52.4949 11.3507 51.3951 14.0207 51.3916 16.8057C51.3939 19.5914 52.4932 22.2625 54.4483 24.2327C56.4034 26.203 59.0546 27.3115 61.8201 27.315H72.2224V16.2159C72.0729 13.5379 70.9121 11.0189 68.978 9.17532C67.0439 7.33175 64.4829 6.30329 61.8201 6.30078ZM67.4996 16.8057V22.5268H61.8201C60.3138 22.5268 58.8692 21.924 57.8041 20.8511C56.7389 19.7782 56.1406 18.323 56.1406 16.8057C56.1406 15.2883 56.7389 13.8331 57.8041 12.7602C58.8692 11.6873 60.3138 11.0845 61.8201 11.0845C63.3264 11.0845 64.771 11.6873 65.8362 12.7602C66.9013 13.8331 67.4996 15.2883 67.4996 16.8057Z" fill="white"/>
<path d="M232.304 19.8516C231.322 19.8516 230.38 20.245 229.685 20.9453C228.99 21.6456 228.6 22.5954 228.6 23.5858C228.6 24.5761 228.99 25.5259 229.685 26.2262C230.38 26.9265 231.322 27.3199 232.304 27.3199H236V23.3568C235.944 22.4078 235.529 21.5165 234.843 20.865C234.156 20.2135 233.248 19.851 232.304 19.8516Z" fill="white"/>
<path d="M23.6463 7.54187L23.3798 7.88953L22.5759 6.27441H18.207V27.315H23.1701V13.2014C23.1283 12.6619 23.2959 12.1271 23.6375 11.7095C23.9565 11.375 24.5113 11.2122 25.2846 11.2122H28.1637V6.27441H26.5472C25.2278 6.30082 24.2841 6.7145 23.6463 7.54187Z" fill="white"/>
<path d="M84.0023 11.1914V6.26244H80.0092V0L75.0068 0V21.3707C75.0091 22.9433 75.6304 24.4509 76.7343 25.5629C77.8383 26.675 79.3349 27.3007 80.8961 27.303H84.0023V22.3169H81.7829C81.3121 22.3157 80.861 22.1265 80.5284 21.7907C80.1959 21.4549 80.0092 21 80.0092 20.5257V11.1914H84.0023Z" fill="white"/>
<path d="M91.6917 6.34766H86.7578V27.3134H91.6917V6.34766Z" fill="white"/>
<path d="M223.175 8.69548C221.534 7.14326 219.362 6.28881 217.111 6.31021C214.853 6.28268 212.672 7.13945 211.029 8.69989L210.951 8.7791L210.868 8.69548C209.228 7.1409 207.055 6.28607 204.804 6.31021C203.545 6.30425 202.3 6.56984 201.151 7.08915V6.3454H196.219V27.3156H201.151V15.7149C201.204 12.7311 202.488 11.0852 204.804 11.0852C207.119 11.0852 208.5 12.8235 208.513 15.8513V27.3156H213.436V15.8425C213.436 12.7619 214.747 11.0808 217.098 11.0808C219.448 11.0808 220.807 12.8411 220.807 15.8821V27.3244H225.73V15.8821C225.744 12.6915 224.879 10.271 223.175 8.69548Z" fill="white"/>
<path d="M149.182 11.1914V6.26244H145.188V0L140.19 0V21.3707C140.192 22.9429 140.812 24.4505 141.915 25.5626C143.018 26.6748 144.514 27.3007 146.075 27.303H149.182V22.3169H146.967C146.495 22.3157 146.044 22.1266 145.711 21.791C145.377 21.4553 145.19 21.0004 145.188 20.5257V11.1914H149.182Z" fill="white"/>
<path d="M127.371 21.3176C126.5 22.0096 125.445 22.4261 124.339 22.5146H123.872C122.869 22.5111 121.885 22.2422 121.019 21.7347C120.152 21.2272 119.434 20.499 118.935 19.6233H133.911L133.959 19.434C134.166 18.6197 134.274 17.7834 134.283 16.9431V16.8111V15.7021L134.248 15.7329C134.11 14.4016 133.72 13.1093 133.099 11.9261L133.077 11.8821C133.046 11.8205 133.011 11.7589 132.976 11.7017L132.915 11.596C132.883 11.5326 132.848 11.4709 132.81 11.4112L132.749 11.31C131.824 9.77906 130.523 8.5145 128.971 7.63867C127.418 6.76284 125.668 6.30541 123.889 6.31059C123.662 6.31059 123.426 6.31057 123.146 6.34137C120.547 6.5445 118.115 7.71606 116.327 9.62745C114.538 11.5388 113.521 14.0529 113.474 16.6791V16.8023V17.9201L113.513 17.8893C113.649 19.2238 114.039 20.5194 114.662 21.7049V21.7401L114.767 21.9249L114.828 22.0349C114.859 22.0965 114.894 22.1537 114.928 22.2109L114.99 22.3166C115.916 23.8473 117.218 25.1115 118.771 25.9873C120.324 26.863 122.074 27.3206 123.854 27.316C124.077 27.316 124.313 27.316 124.597 27.2852C126.879 27.108 129.04 26.1803 130.748 24.6446L127.393 21.2648L127.371 21.3176ZM123.4 11.1075H123.872C125.03 11.1026 126.161 11.4568 127.112 12.1221C128.064 12.7874 128.788 13.7316 129.188 14.8263H118.546C118.92 13.8057 119.576 12.9137 120.435 12.255C121.295 11.5964 122.323 11.1983 123.4 11.1075Z" fill="white"/>
<path d="M42.7037 21.3176C41.8326 22.0096 40.7775 22.4261 39.6717 22.5146H39.2042C38.2019 22.5111 37.218 22.2422 36.3515 21.7347C35.485 21.2272 34.7662 20.499 34.2674 19.6233H49.2438L49.2919 19.434C49.4982 18.6197 49.6068 17.7834 49.6152 16.9431V16.8111V15.7021L49.5803 15.7329C49.4426 14.4016 49.0525 13.1093 48.4312 11.9261V11.8821C48.4007 11.8205 48.3657 11.7589 48.3308 11.7017L48.274 11.596C48.239 11.5344 48.2041 11.4728 48.1648 11.4112L48.1036 11.31C47.1787 9.77906 45.8772 8.5145 44.3251 7.63867C42.7729 6.76284 41.0226 6.30541 39.2435 6.31059C39.0163 6.31059 38.7804 6.31057 38.5008 6.34137C35.9011 6.5445 33.4699 7.71606 31.6814 9.62745C29.893 11.5388 28.8757 14.0529 28.8281 16.6791V16.8023V17.9201L28.8674 17.8893C29.0031 19.2238 29.3932 20.5194 30.0164 21.7049V21.7401L30.1213 21.9249L30.1825 22.0349C30.213 22.0965 30.248 22.1537 30.283 22.2109L30.3441 22.3166C31.2703 23.8473 32.5727 25.1115 34.1255 25.9873C35.6783 26.863 37.429 27.3206 39.2086 27.316C39.4314 27.316 39.6454 27.316 39.9513 27.2852C42.2336 27.108 44.3949 26.1803 46.1026 24.6446L42.7473 21.2648L42.7037 21.3176ZM38.7323 11.1075H39.2042C40.3622 11.1026 41.4937 11.4568 42.4449 12.1221C43.3962 12.7874 44.121 13.7316 44.5211 14.8263H33.8785C34.2555 13.8074 34.9117 12.9172 35.7709 12.2589C36.63 11.6007 37.6569 11.2014 38.7323 11.1075Z" fill="white"/>
<path d="M183 6.30078C180.238 6.30777 177.591 7.41718 175.639 9.3861C173.686 11.355 172.588 14.023 172.585 16.8057C172.587 19.5914 173.687 22.2625 175.642 24.2327C177.597 26.203 180.248 27.3115 183.013 27.315H193.416V16.2159C193.266 13.5356 192.104 11.0147 190.167 9.17078C188.23 7.32687 185.665 6.29992 183 6.30078ZM188.68 16.8057V22.5268H183C181.494 22.5268 180.049 21.924 178.984 20.8511C177.919 19.7782 177.321 18.323 177.321 16.8057C177.321 15.2883 177.919 13.8331 178.984 12.7602C180.049 11.6873 181.494 11.0845 183 11.0845C183.747 11.084 184.486 11.2315 185.175 11.5188C185.865 11.806 186.491 12.2273 187.019 12.7587C187.547 13.29 187.966 13.9209 188.252 14.6153C188.537 15.3097 188.684 16.054 188.684 16.8057H188.68Z" fill="white"/>
<path d="M163.881 21.3176C163.012 22.0095 161.958 22.426 160.854 22.5146H160.382C159.38 22.5117 158.397 22.2429 157.531 21.7353C156.665 21.2277 155.947 20.4992 155.449 19.6232H170.422L170.47 19.434C170.676 18.6197 170.784 17.7834 170.793 16.9431V16.8111V15.702L170.754 15.7328C170.618 14.4012 170.228 13.1085 169.605 11.9261V11.8821C169.574 11.8205 169.539 11.7589 169.504 11.7017L169.447 11.596L169.342 11.4112L169.281 11.31C168.355 9.77929 167.053 8.51502 165.5 7.63928C163.947 6.76354 162.196 6.30592 160.417 6.31058C160.194 6.31058 159.958 6.31056 159.674 6.34136C157.073 6.53969 154.64 7.70994 152.851 9.62247C151.062 11.535 150.047 14.0518 150.006 16.679V16.8023V17.9201L150.045 17.8893C150.181 19.2238 150.571 20.5193 151.194 21.7048L151.216 21.7401C151.246 21.8036 151.28 21.8653 151.317 21.9249L151.378 22.0349L151.478 22.2109L151.544 22.3166C152.469 23.8475 153.77 25.112 155.322 25.9879C156.874 26.8637 158.625 27.3211 160.404 27.316C160.631 27.316 160.867 27.316 161.146 27.2851C163.429 27.109 165.591 26.1811 167.298 24.6446L163.943 21.2648L163.881 21.3176ZM159.91 11.1075H160.382C161.54 11.1019 162.672 11.4559 163.623 12.1213C164.575 12.7867 165.299 13.7312 165.699 14.8263H155.056C155.434 13.8068 156.09 12.9161 156.95 12.2578C157.81 11.5995 158.838 11.2006 159.914 11.1075H159.91Z" fill="white"/>
</svg>
