<svg width="40" height="40" viewBox="0 0 40 40" fill="none" xmlns="http://www.w3.org/2000/svg">
<path d="M17 23.9286V21.5714M17 21.5714V13.7143C17 12.8464 17.6716 12.1429 18.5 12.1429C19.3284 12.1429 20 12.8464 20 13.7143V20H25.0294C26.3939 20 27.5 21.1588 27.5 22.5882V23.9286C27.5 27.834 24.4779 31 20.75 31H20C16.6863 31 14 28.1858 14 24.7143C14 22.9785 15.3431 21.5714 17 21.5714ZM22.25 16.8571H25.25C27.3211 16.8571 29 15.0983 29 12.9286C29 10.7589 27.3211 9 25.25 9H14.75C12.6789 9 11 10.7589 11 12.9286C11 15.0983 12.6789 16.8571 14.75 16.8571" stroke="#C19B5C" stroke-width="1.6"/>
</svg>
