<svg width="80" height="80" viewBox="0 0 80 80" fill="none" xmlns="http://www.w3.org/2000/svg">
<circle cx="40" cy="40" r="40" fill="#C19B5C"/>
<path d="M43.9467 46.9852L43.2396 47.6923L44.6538 49.1065L45.361 48.3994L43.9467 46.9852ZM52.5 39.8462L53.2071 40.5533L53.9142 39.8462L53.2071 39.139L52.5 39.8462ZM45.361 31.2929L44.6538 30.5858L43.2396 32L43.9467 32.7071L45.361 31.2929ZM45.361 48.3994L53.2071 40.5533L51.7929 39.139L43.9467 46.9852L45.361 48.3994ZM53.2071 39.139L45.361 31.2929L43.9467 32.7071L51.7929 40.5533L53.2071 39.139ZM52.5 38.8462H27V40.8462H52.5V38.8462Z" fill="white"/>
</svg>
