<svg width="29" height="29" viewBox="0 0 29 29" fill="none" xmlns="http://www.w3.org/2000/svg">
<g clip-path="url(#clip0_547_3079)">
<path d="M2.49192e-05 13.9321C2.49192e-05 7.37083 2.20388e-05 4.0902 2.03606 2.05416C4.07211 0.0181204 7.35876 0.012085 13.92 0.012085H15.1042C21.6654 0.012085 24.9461 0.0120786 26.9881 2.05416C29.0302 4.09625 29 7.35875 29 13.9321V15.0921C29 21.6594 29 24.94 26.964 26.976C24.9279 29.0121 21.6413 29.0121 15.08 29.0121H13.8959C7.33461 29.0121 4.05399 29.0121 2.01191 26.976C-0.0301732 24.94 2.49192e-05 21.6473 2.49192e-05 15.08V13.9321Z" fill="#C19B5C"/>
<g clip-path="url(#clip1_547_3079)">
<path d="M8.55784 13.7155L19.2001 10.0448C19.6938 9.88546 20.1254 10.1527 19.9654 10.8208L18.1546 18.4577C18.0205 18.9977 17.6609 19.1312 17.1577 18.8758L14.3983 17.0565L13.0673 18.2035C12.9199 18.3354 12.7957 18.4465 12.5107 18.4465L12.7069 15.9344L17.8208 11.8012C18.0433 11.6258 17.7713 11.527 17.4759 11.7017L11.156 15.261L8.43151 14.5008C7.83997 14.333 7.82789 13.972 8.55655 13.7166L8.55784 13.7155Z" fill="#2C2A2A"/>
</g>
</g>
<defs>
<clipPath id="clip0_547_3079">
<rect width="29" height="29" fill="white"/>
</clipPath>
<clipPath id="clip1_547_3079">
<rect width="12" height="9" fill="white" transform="translate(8 10)"/>
</clipPath>
</defs>
</svg>
