<svg width="29" height="29" viewBox="0 0 29 29" fill="none" xmlns="http://www.w3.org/2000/svg">
<g clip-path="url(#clip0_547_3075)">
<path d="M2.49192e-05 13.9321C2.49192e-05 7.37083 2.20388e-05 4.0902 2.03606 2.05416C4.07211 0.0181204 7.35876 0.012085 13.92 0.012085H15.1042C21.6654 0.012085 24.9461 0.0120786 26.9881 2.05416C29.0302 4.09625 29 7.35875 29 13.9321V15.0921C29 21.6594 29 24.94 26.964 26.976C24.9279 29.0121 21.6413 29.0121 15.08 29.0121H13.8959C7.33461 29.0121 4.05399 29.0121 2.01191 26.976C-0.0301732 24.94 2.49192e-05 21.6473 2.49192e-05 15.08V13.9321Z" fill="#C19B5C"/>
<g clip-path="url(#clip1_547_3075)">
<path d="M11.0443 20C10.8937 20.0014 10.7446 19.9708 10.6071 19.9105C10.4696 19.8502 10.3469 19.7615 10.2473 19.6505C10.1478 19.5394 10.0737 19.4086 10.0302 19.267C9.98664 19.1253 9.97463 18.976 9.99496 18.8294V10.1758C9.97813 10.0295 9.99259 9.88133 10.0374 9.74082C10.0822 9.60032 10.1564 9.47059 10.2551 9.3599C10.3539 9.2492 10.4752 9.15999 10.611 9.09802C10.7469 9.03605 10.8945 9.00266 11.0443 9C11.2835 9.00536 11.5171 9.07299 11.7211 9.19597L19.3496 13.5227C19.537 13.6143 19.6961 13.7534 19.8104 13.9257C19.9248 14.098 19.9903 14.2971 20.0002 14.5026C19.9911 14.7076 19.9258 14.9063 19.8113 15.0779C19.6968 15.2494 19.5373 15.3874 19.3496 15.4773L11.7211 19.8092C11.5167 19.9306 11.2831 19.9965 11.0443 20Z" fill="#2C2A2A"/>
</g>
</g>
<defs>
<clipPath id="clip0_547_3075">
<rect width="29" height="29" fill="white"/>
</clipPath>
<clipPath id="clip1_547_3075">
<rect width="10" height="11" fill="white" transform="translate(10 9)"/>
</clipPath>
</defs>
</svg>
