<svg width="21" height="21" viewBox="0 0 21 21" fill="none" xmlns="http://www.w3.org/2000/svg">
<path d="M17.8077 3H3.19231C1.98153 3 1 3.95139 1 5.125V17.875C1 19.0486 1.98153 20 3.19231 20H17.8077C19.0185 20 20 19.0486 20 17.875V5.125C20 3.95139 19.0185 3 17.8077 3Z" stroke="#C19B5C" stroke-width="2" stroke-linejoin="round"/>
<path d="M5 1V0H3V1H5ZM3 1V3H5V1H3Z" fill="#C19B5C"/>
<path d="M17 1V0H15V1H17ZM15 1V3H17V1H15Z" fill="#C19B5C"/>
<path d="M20 7H1" stroke="#C19B5C" stroke-width="2" stroke-linecap="round" stroke-linejoin="round"/>
<rect x="4" y="10" width="2" height="2" fill="#C19B5C"/>
<rect x="4" y="15" width="2" height="2" fill="#C19B5C"/>
<rect x="9.5" y="10" width="2" height="2" fill="#C19B5C"/>
<rect x="9.5" y="15" width="2" height="2" fill="#C19B5C"/>
<rect x="15" y="10" width="2" height="2" fill="#C19B5C"/>
<rect x="15" y="15" width="2" height="2" fill="#C19B5C"/>
</svg>
