<svg width="29" height="29" viewBox="0 0 29 29" fill="none" xmlns="http://www.w3.org/2000/svg">
<g clip-path="url(#clip0_547_3083)">
<path d="M2.49192e-05 13.9321C2.49192e-05 7.37083 2.20388e-05 4.0902 2.03606 2.05416C4.07211 0.0181204 7.35876 0.012085 13.92 0.012085H15.1042C21.6654 0.012085 24.9461 0.0120786 26.9881 2.05416C29.0302 4.09625 29 7.35875 29 13.9321V15.0921C29 21.6594 29 24.94 26.964 26.976C24.9279 29.0121 21.6413 29.0121 15.08 29.0121H13.8959C7.33461 29.0121 4.05399 29.0121 2.01191 26.976C-0.0301732 24.94 2.49192e-05 21.6473 2.49192e-05 15.08V13.9321Z" fill="#C19B5C"/>
<path d="M23 14.5911V14.4089C19.2357 14.2875 17.5175 14.1964 16.1393 12.8607C14.8036 11.4825 14.7064 9.76429 14.5911 6H14.4089C14.2875 9.76429 14.1964 11.4825 12.8607 12.8607C11.4825 14.1964 9.76429 14.2936 6 14.4089V14.5911C9.76429 14.7125 11.4825 14.8036 12.8607 16.1393C14.1964 17.5175 14.2936 19.2357 14.4089 23H14.5911C14.7125 19.2357 14.8036 17.5175 16.1393 16.1393C17.5175 14.8036 19.2357 14.7064 23 14.5911Z" fill="#2C2A2A"/>
</g>
<defs>
<clipPath id="clip0_547_3083">
<rect width="29" height="29" fill="white"/>
</clipPath>
</defs>
</svg>
