<svg width="50" height="50" viewBox="0 0 50 50" fill="none" xmlns="http://www.w3.org/2000/svg">
<path d="M24 29.5V30.5H26V29.5H24ZM25 24.5H26V23.5H25V24.5ZM24 20.5V21.5H26V20.5H24ZM26 20.485V19.485H24V20.485H26ZM24 23.5H23V25.5H24V23.5ZM22.75 28.5H21.75V30.5H22.75V28.5ZM27.25 30.5H28.25V28.5H27.25V30.5ZM26 29.5V24.5H24V29.5H26ZM26 20.5V20.485H24V20.5H26ZM24 25.5H25V23.5H24V25.5ZM22.75 30.5H27.25V28.5H22.75V30.5ZM25 15.5C30.2467 15.5 34.5 19.7533 34.5 25H36.5C36.5 18.6487 31.3513 13.5 25 13.5V15.5ZM15.5 25C15.5 19.7533 19.7533 15.5 25 15.5V13.5C18.6487 13.5 13.5 18.6487 13.5 25H15.5ZM25 34.5C19.7533 34.5 15.5 30.2467 15.5 25H13.5C13.5 31.3513 18.6487 36.5 25 36.5V34.5ZM25 36.5C31.3513 36.5 36.5 31.3513 36.5 25H34.5C34.5 30.2467 30.2467 34.5 25 34.5V36.5Z" fill="#C19B5C"/>
</svg>
