<svg width="152" height="140" viewBox="0 0 152 140" fill="none" xmlns="http://www.w3.org/2000/svg">
<path d="M53.5092 133.203C53.5092 136.778 49.992 139.664 45.6578 139.664C41.3236 139.664 37.7891 136.767 37.7891 133.203C37.7891 129.64 41.3062 126.725 45.6578 126.725C50.0094 126.725 53.5092 129.628 53.5092 133.203ZM50.5077 133.203C50.5077 131.314 48.2885 129.727 45.6578 129.727C43.0272 129.727 40.8079 131.297 40.8079 133.203C40.8079 135.11 43.0272 136.68 45.6578 136.68C48.2885 136.68 50.5077 135.104 50.5077 133.203Z" fill="white"/>
<path d="M68.4651 135.422C68.4651 138.036 65.4868 140 61.5119 140C57.5369 140 54.5586 138.036 54.5586 135.422H57.5775C57.5775 135.961 59.113 136.999 61.5003 136.999C63.8876 136.999 65.4405 135.961 65.4405 135.422C65.4405 134.884 63.9455 133.87 61.5756 133.852C60.8919 133.997 60.3704 134.055 60.1676 134.09L59.7967 131.094C61.3047 130.901 62.7697 130.456 64.1309 129.779H54.5644V126.76H68.4304V128.261C68.4304 129.924 67.4859 131.129 66.2459 131.998C67.6134 132.815 68.4651 134.038 68.4651 135.422Z" fill="white"/>
<path d="M73.7611 131.702H79.1498V134.704H73.7611V136.662H81.6878V139.664H70.7422V126.725H81.7225V129.744H73.7611V131.702Z" fill="white"/>
<path d="M96.3126 131.743C96.3126 134.35 93.9427 136.755 89.7939 136.755H86.7982V139.699H83.7793V126.742H89.4056C93.9427 126.742 96.3126 129.13 96.3126 131.743ZM93.3111 131.743C93.3111 130.538 91.9436 129.761 89.423 129.761H86.7982V133.742H89.7765C91.9436 133.742 93.3111 132.942 93.3111 131.743Z" fill="white"/>
<path d="M113.696 133.203C113.696 136.778 110.179 139.664 105.844 139.664C101.51 139.664 97.9756 136.767 97.9756 133.203C97.9756 129.64 101.499 126.725 105.844 126.725C110.19 126.725 113.696 129.628 113.696 133.203ZM110.694 133.203C110.694 131.314 108.475 129.727 105.844 129.727C103.214 129.727 100.994 131.297 100.994 133.203C100.994 135.11 103.22 136.68 105.844 136.68C108.469 136.68 110.694 135.104 110.694 133.203Z" fill="white"/>
<path d="M28.9474 91.2055C29.0917 91.2824 29.2181 91.3891 29.3182 91.5184C29.4225 91.6469 29.5048 91.7917 29.5616 91.9472C29.6157 92.1097 29.643 92.28 29.6427 92.4513C29.6534 92.6725 29.6112 92.893 29.5195 93.0946C29.4278 93.2962 29.2892 93.4729 29.1154 93.6102C28.8028 93.8446 28.4327 93.9904 28.0442 94.0322C27.6557 94.074 27.2631 94.0103 26.9078 93.8477C26.6407 93.7204 26.4155 93.5193 26.2588 93.2683C26.0898 93.0185 25.999 92.7239 25.998 92.4223H26.8266C26.8398 92.5802 26.8937 92.7319 26.9831 92.8627C27.0705 92.989 27.1907 93.0892 27.3307 93.1524C27.4826 93.2172 27.6466 93.2488 27.8117 93.2451C28.0682 93.2538 28.3198 93.174 28.5244 93.0191C28.6109 92.9493 28.6808 92.8611 28.7289 92.7608C28.777 92.6606 28.8022 92.5509 28.8025 92.4397C28.8039 92.331 28.7824 92.2233 28.7394 92.1235C28.6965 92.0237 28.6331 91.934 28.5534 91.8602C28.3722 91.7031 28.1383 91.6203 27.8986 91.6285H27.3192V90.9042H27.8986C28.1116 90.9129 28.3195 90.838 28.478 90.6956C28.5511 90.6279 28.6085 90.5452 28.6465 90.4532C28.6846 90.3611 28.7022 90.262 28.6982 90.1625C28.7026 90.0593 28.6822 89.9566 28.6389 89.8629C28.5956 89.7692 28.5305 89.6871 28.4491 89.6236C28.2664 89.4881 28.0449 89.415 27.8175 89.415C27.59 89.415 27.3686 89.4881 27.1859 89.6236C27.1042 89.6871 27.0364 89.7667 26.9866 89.8573C26.9367 89.948 26.906 90.0479 26.8962 90.1509H26.0792C26.0855 89.9458 26.1358 89.7444 26.2268 89.5605C26.3178 89.3765 26.4473 89.2142 26.6065 89.0847C26.9425 88.8095 27.3659 88.6636 27.8001 88.6733C28.2467 88.6568 28.6845 88.8007 29.0343 89.0789C29.1927 89.2069 29.3195 89.3697 29.4049 89.5546C29.4903 89.7395 29.5321 89.9415 29.5268 90.1451C29.5286 90.3655 29.4748 90.5827 29.3704 90.7767C29.266 90.9516 29.1209 91.0988 28.9474 91.2055Z" fill="white"/>
<path d="M35.9577 93.9288L35.5057 92.8047H33.188L32.7418 93.9288H31.8379L33.9297 88.7139H34.7351L36.879 93.9288H35.9577ZM34.3411 89.8438L33.4893 92.0341H35.2276L34.3411 89.8438Z" fill="white"/>
<path d="M42.3663 88.7486V89.5425H40.3557V93.9462H39.5039V88.7313L42.3663 88.7486Z" fill="white"/>
<path d="M47.2163 94.0273C46.8545 94.0392 46.4942 93.977 46.1574 93.8445C45.8205 93.7119 45.5144 93.5119 45.2578 93.2567C44.7562 92.7408 44.4756 92.0496 44.4756 91.33C44.4756 90.6105 44.7562 89.9193 45.2578 89.4034C45.7925 88.9115 46.4926 88.6385 47.2192 88.6385C47.9458 88.6385 48.6458 88.9115 49.1806 89.4034C49.4357 89.6543 49.6364 89.9552 49.77 90.2872C49.9036 90.6192 49.9673 90.9752 49.957 91.3329C49.9639 91.814 49.8419 92.2882 49.6036 92.7062C49.3761 93.117 49.0365 93.4547 48.6243 93.6797C48.1928 93.915 47.7077 94.0348 47.2163 94.0273ZM45.8778 92.6714C46.1897 93.0017 46.607 93.2129 47.0578 93.2686C47.5086 93.3243 47.9648 93.2211 48.3477 92.9768C48.7307 92.7325 49.0165 92.3623 49.1559 91.9299C49.2953 91.4976 49.2796 91.0302 49.1115 90.6081C48.9434 90.1861 48.6335 89.8359 48.235 89.6178C47.8365 89.3996 47.3745 89.3273 46.9284 89.4131C46.4823 89.4989 46.0801 89.7376 45.7911 90.088C45.502 90.4384 45.3441 90.8787 45.3447 91.3329C45.3377 91.5806 45.3814 91.827 45.4731 92.0572C45.5648 92.2874 45.7025 92.4964 45.8778 92.6714Z" fill="white"/>
<path d="M54.7323 88.7486C55.0454 88.745 55.3544 88.8208 55.6304 88.9688C55.8959 89.1129 56.1165 89.3274 56.2678 89.5888C56.421 89.8549 56.5009 90.1568 56.4996 90.4638C56.5055 90.6923 56.4637 90.9196 56.3769 91.1311C56.2901 91.3426 56.1602 91.5337 55.9954 91.6922C55.8282 91.8537 55.6302 91.98 55.4132 92.0636C55.1962 92.1472 54.9647 92.1864 54.7323 92.1789H53.6603V93.9462H52.8027V88.7313L54.7323 88.7486ZM54.6859 91.3677C54.8163 91.3711 54.9461 91.3495 55.0683 91.304C55.1796 91.2618 55.2819 91.1989 55.3697 91.1185C55.4546 91.0366 55.5216 90.9379 55.5667 90.8288C55.6131 90.7127 55.6367 90.5888 55.6362 90.4638C55.6398 90.3023 55.5983 90.1431 55.5164 90.0039C55.4345 89.8647 55.3155 89.7511 55.1727 89.6758C55.0235 89.5949 54.8555 89.5549 54.6859 89.5599H53.6603V91.3677H54.6859Z" fill="white"/>
<path d="M61.6391 94.0273C61.2774 94.0392 60.917 93.977 60.5802 93.8445C60.2434 93.7119 59.9373 93.5119 59.6806 93.2567C59.179 92.7408 58.8984 92.0496 58.8984 91.33C58.8984 90.6105 59.179 89.9193 59.6806 89.4034C60.2154 88.9115 60.9154 88.6385 61.642 88.6385C62.3686 88.6385 63.0687 88.9115 63.6034 89.4034C63.8586 89.6543 64.0592 89.9552 64.1928 90.2872C64.3264 90.6192 64.3901 90.9752 64.3799 91.3329C64.3868 91.814 64.2647 92.2882 64.0264 92.7062C63.799 93.117 63.4593 93.4547 63.0472 93.6797C62.6156 93.915 62.1306 94.0348 61.6391 94.0273ZM60.3006 92.6714C60.6125 93.0017 61.0298 93.2129 61.4806 93.2686C61.9315 93.3243 62.3876 93.2211 62.7706 92.9768C63.1535 92.7325 63.4393 92.3623 63.5787 91.9299C63.7181 91.4976 63.7024 91.0302 63.5344 90.6081C63.3663 90.1861 63.0563 89.8359 62.6579 89.6178C62.2594 89.3996 61.7973 89.3273 61.3513 89.4131C60.9052 89.4989 60.503 89.7376 60.2139 90.088C59.9248 90.4384 59.767 90.8787 59.7675 91.3329C59.7606 91.5806 59.8043 91.827 59.8959 92.0572C59.9876 92.2874 60.1253 92.4964 60.3006 92.6714Z" fill="white"/>
<path d="M71.1875 93.135H71.709V94.9429H70.921V93.9288H67.3632V94.9429H66.5752V93.135H66.9808C67.041 93.0963 67.0956 93.0495 67.143 92.9959C67.1972 92.9332 67.2421 92.8629 67.2763 92.7873C67.3243 92.6968 67.3631 92.6017 67.3922 92.5034C67.4212 92.4049 67.4502 92.2658 67.4849 92.092C67.5197 91.9182 67.5429 91.7327 67.566 91.5473C67.5892 91.3619 67.624 91.1185 67.6529 90.8114C67.6819 90.5043 67.7167 90.203 67.7457 89.8901C67.7746 89.5772 67.8036 89.1948 67.8442 88.7313H71.1875V93.135ZM68.609 89.5251C68.5221 90.7361 68.4294 91.5879 68.3367 92.0862C68.2884 92.4684 68.1383 92.8307 67.9021 93.135H70.3242V89.5251H68.609Z" fill="white"/>
<path d="M77.787 88.7486H78.6388V93.9636H77.787V91.6458H75.4055V93.9114H74.5537V88.6965H75.4055V90.823H77.787V88.7486Z" fill="white"/>
<path d="M83.773 90.487C84.01 90.4779 84.2463 90.5162 84.4682 90.5998C84.6901 90.6834 84.8931 90.8105 85.0652 90.9737C85.3915 91.3063 85.5742 91.7536 85.5742 92.2195C85.5742 92.6854 85.3915 93.1327 85.0652 93.4653C84.8931 93.6284 84.6901 93.7555 84.4682 93.8391C84.2463 93.9227 84.01 93.9611 83.773 93.952H81.8203V88.7371H82.6721V90.4754L83.773 90.487ZM83.7151 93.1524C83.8448 93.1576 83.9742 93.1367 84.0956 93.091C84.2171 93.0452 84.3281 92.9754 84.422 92.8858C84.5117 92.7984 84.583 92.6939 84.6317 92.5784C84.6804 92.463 84.7054 92.339 84.7054 92.2137C84.7054 92.0884 84.6804 91.9644 84.6317 91.849C84.583 91.7335 84.5117 91.629 84.422 91.5415C84.2302 91.3644 83.976 91.2706 83.7151 91.2808H82.6721V93.1524H83.7151ZM86.2472 88.7544H87.1048V93.9694H86.2472V88.7544Z" fill="white"/>
<path d="M93.838 88.7486H94.4522V93.9636H93.6062V90.3595L90.8539 93.9288H90.2744V88.7139H91.1262V92.2774L93.838 88.7486ZM91.2595 88.0185V87.358H93.4208V88.0011L91.2595 88.0185Z" fill="white"/>
<path d="M104.46 93.9288L102.831 91.6458H102.223V93.923H101.371V88.7081H102.223V90.8346H102.802L104.291 88.7081H105.34L103.602 91.2402L105.543 93.9288H104.46Z" fill="white"/>
<path d="M108.921 88.7487H112.241V93.9636H111.383V89.5599H109.686L109.436 92.2137C109.326 93.3726 108.764 93.952 107.762 93.952H107.513V93.1118H107.762C108.243 93.1118 108.515 92.8163 108.567 92.2195L108.921 88.7487Z" fill="white"/>
<path d="M118.384 88.7486H119.293L117.74 92.3064C117.563 92.8023 117.274 93.2505 116.895 93.6159C116.545 93.8666 116.119 93.9893 115.689 93.9636H115.463V93.1524H115.77C115.973 93.159 116.174 93.1089 116.35 93.0075C116.534 92.8498 116.679 92.6514 116.773 92.4281L114.803 88.7313H115.776L117.213 91.443L118.384 88.7486Z" fill="white"/>
<path d="M123.813 90.6608C124.035 90.6535 124.256 90.6908 124.463 90.7704C124.67 90.85 124.859 90.9704 125.018 91.1244C125.314 91.4375 125.48 91.8522 125.48 92.2833C125.48 92.7143 125.314 93.129 125.018 93.4421C124.858 93.5968 124.668 93.7176 124.46 93.7973C124.252 93.8769 124.03 93.9138 123.807 93.9057H121.854V88.6907H125.099V89.4846H122.724V90.6434L123.813 90.6608ZM123.738 93.1234C123.971 93.13 124.198 93.0447 124.369 92.8859C124.499 92.7532 124.582 92.582 124.606 92.3982C124.63 92.2143 124.594 92.0276 124.503 91.8661C124.427 91.7443 124.321 91.6443 124.195 91.5763C124.054 91.5045 123.897 91.4687 123.738 91.4721H122.724V93.1234H123.738Z" fill="white"/>
<path d="M13.2499 117.755H10.231V107.777H3.19661V117.755H0.177734V104.776H13.2499V117.755Z" fill="white"/>
<path d="M43.8148 113.85L45.1475 116.55C43.5071 117.332 41.7093 117.729 39.892 117.709C34.7813 117.709 30.7832 114.876 30.7832 111.248C30.7832 107.621 34.7813 104.77 39.892 104.77C41.7093 104.75 43.5071 105.147 45.1475 105.929L43.8148 108.635C42.589 108.056 41.2473 107.765 39.892 107.783C36.9948 107.783 33.7963 109.191 33.7963 111.26C33.7963 113.328 37.0006 114.736 39.892 114.736C41.2497 114.741 42.5908 114.438 43.8148 113.85Z" fill="white"/>
<path d="M59.7209 107.795H54.9289V117.755H51.9101V107.795H47.0254V104.776H59.7441L59.7209 107.795Z" fill="white"/>
<path d="M77.277 111.057C77.1495 107.58 73.6903 104.776 69.4372 104.776C65.1841 104.776 61.7075 107.575 61.5742 111.051C61.5742 111.121 61.5742 111.19 61.5742 111.26C61.5784 112.237 61.8424 113.194 62.3391 114.035C63.6196 116.214 66.3024 117.721 69.414 117.721C72.5256 117.721 75.2953 116.191 76.5353 113.972C77.0108 113.149 77.2625 112.216 77.2654 111.266C77.2756 111.197 77.2794 111.127 77.277 111.057ZM69.414 114.719C68.0444 114.746 66.7104 114.281 65.6535 113.41C65.3283 113.15 65.0626 112.824 64.8747 112.453C64.6867 112.082 64.5808 111.675 64.5641 111.26C64.5647 111.064 64.59 110.87 64.6395 110.68C65.0509 109.07 67.0731 107.818 69.414 107.818C71.5753 107.818 73.4701 108.878 74.0495 110.304C74.1826 110.613 74.2516 110.946 74.2523 111.283C74.2329 112.001 73.9335 112.683 73.418 113.184C72.8852 113.691 72.257 114.089 71.5697 114.352C70.8825 114.616 70.1498 114.741 69.414 114.719Z" fill="white"/>
<path d="M91.468 109.794C91.468 112.401 89.0981 114.812 84.9551 114.812H81.971V117.755H78.9521V104.793H84.5843C89.1155 104.793 91.468 107.181 91.468 109.794ZM88.4723 109.794C88.4723 108.589 87.0991 107.812 84.5843 107.812H81.971V111.793H84.9551C87.0991 111.793 88.4723 110.999 88.4723 109.794Z" fill="white"/>
<path d="M106.169 113.85L107.502 116.55C105.862 117.332 104.064 117.729 102.246 117.709C97.1358 117.709 93.1377 114.876 93.1377 111.248C93.1377 107.621 97.1358 104.77 102.246 104.77C104.064 104.75 105.862 105.147 107.502 105.929L106.169 108.635C104.944 108.056 103.602 107.764 102.246 107.783C99.3493 107.783 96.1566 109.191 96.1566 111.26C96.1566 113.328 99.3551 114.736 102.246 114.736C103.604 114.741 104.946 114.438 106.169 113.85Z" fill="white"/>
<path d="M118.98 117.721L114.032 112.506L112.404 113.989V117.767H109.385V104.787H112.404V109.916L118.013 104.787H122.474L116.251 110.472L123.129 117.721H118.98Z" fill="white"/>
<path d="M138.478 111.254C138.478 114.829 134.961 117.715 130.627 117.715C126.292 117.715 122.758 114.818 122.758 111.254C122.758 107.691 126.275 104.776 130.627 104.776C134.978 104.776 138.478 107.685 138.478 111.254ZM135.477 111.254C135.477 109.365 133.257 107.777 130.627 107.777C127.996 107.777 125.777 109.348 125.777 111.254C125.777 113.16 127.996 114.731 130.627 114.731C133.257 114.731 135.471 113.126 135.471 111.254H135.477Z" fill="white"/>
<path d="M143.345 109.753H148.734V112.755H143.345V114.719H151.272V117.721H140.326V104.776H151.336V107.795H143.345V109.753Z" fill="white"/>
<path d="M29.0631 113.34L27.6435 110.362L25.6386 106.132L24.9839 104.77H21.374L20.7424 106.132L18.6564 110.42L17.2194 113.381L15.0986 117.721H18.4536L19.033 116.486L19.6125 115.241L19.7515 114.962C21.9138 115.789 24.305 115.789 26.4672 114.962L27.2495 116.608L27.7941 117.732H31.1723L29.0631 113.34ZM23.1355 112.575C22.4436 112.576 21.7563 112.463 21.1016 112.239L23.1702 107.957L24.5898 110.941L24.6188 111.005L25.1983 112.227C24.5348 112.458 23.8376 112.575 23.1355 112.575Z" fill="white"/>
<path d="M113.823 27.4787C113.012 25.9606 111.679 24.7786 110.422 23.6371C108.973 22.3217 107.6 20.9311 106.163 19.581C103.112 16.76 99.8965 14.1227 96.5328 11.6832C95.8143 11.1617 95.09 10.6576 94.3657 10.1477C94.1505 9.94643 93.9064 9.77847 93.6414 9.6494C93.062 9.24959 92.4826 8.86137 91.8684 8.49053C90.7095 7.74305 89.5506 7.01296 88.357 6.30604C86.5723 5.23987 84.747 4.23744 82.8986 3.28137C81.3515 2.48753 79.8102 1.67632 78.2631 0.870898C77.3244 0.378374 76.2525 -0.13153 75.1689 0.0307127C74.0654 0.262289 73.0067 0.671271 72.0341 1.24174C69.757 2.40062 67.4856 3.65221 65.2489 4.9038C63.0123 6.15539 60.7467 7.53445 58.5738 8.95987C54.5091 11.6354 50.6526 14.6145 47.0371 17.8716C45.1482 19.61 43.3403 21.3888 41.5904 23.243C40.6459 24.2455 39.7072 25.2537 38.8033 26.2851C38.1283 27.008 37.6495 27.8917 37.4127 28.852C37.326 29.3641 37.326 29.8871 37.4127 30.3991C37.4416 31.1292 37.5228 31.8419 37.6155 32.572C37.9515 35.0945 38.3745 37.6054 38.8844 40.1047C40.9189 50.0107 44.3671 59.5727 49.1231 68.4972C49.7026 69.6097 50.3168 70.7107 50.9426 71.8058C51.1409 72.2665 51.4195 72.6884 51.7654 73.0516C52.1909 73.3019 52.6692 73.4488 53.1618 73.4804C55.6843 74.0135 58.2242 74.4558 60.7814 74.8073C70.895 76.2039 81.1545 76.1747 91.2599 74.7204C93.8211 74.3554 96.4285 73.9614 98.9491 73.3645C99.1455 73.3073 99.3273 73.2085 99.4822 73.0748C99.6344 72.9508 99.7622 72.7995 99.8588 72.6286C100.485 71.5798 101.081 70.5021 101.661 69.4243C103.811 65.4826 105.71 61.4087 107.345 57.2271C108.906 53.238 110.228 49.1593 111.303 45.0126C112.471 40.1175 113.391 35.1667 114.061 30.1789C114.252 29.2753 114.17 28.335 113.823 27.4787ZM100.705 24.3092C101.653 25.3787 102.846 26.2036 104.181 26.7139C104.975 27.0141 105.809 27.1957 106.656 27.2528C106.915 27.3131 107.185 27.2989 107.437 27.2117C107.688 27.1245 107.909 26.968 108.075 26.7602C108.196 26.5745 108.268 26.3614 108.285 26.1406C108.302 25.9197 108.264 25.6981 108.174 25.4959C108.083 25.2937 107.944 25.1173 107.767 24.9829C107.591 24.8485 107.384 24.7603 107.166 24.7264C106.298 24.6654 105.446 24.4699 104.639 24.147C103.936 23.8142 103.301 23.3523 102.768 22.7853C101.63 21.5336 100.932 19.9446 100.78 18.2599C102.982 20.1141 105.097 22.0668 107.183 24.0543C108.122 24.9466 109.055 25.8389 109.976 26.7429L111.019 27.7858C111.164 27.9423 111.558 28.2262 111.598 28.4406C111.589 28.6358 111.562 28.8298 111.517 29.0201C111.482 29.3214 111.453 29.6285 111.419 29.9298C111.355 30.5092 111.291 31.0365 111.222 31.587C111.077 32.7458 110.909 33.9047 110.729 35.0288L100.705 30.515V24.3092ZM74.3519 9.1395V9.83482C73.7397 9.89952 73.132 10.0021 72.5325 10.1419C71.8603 8.43065 71.1862 6.72323 70.5102 5.01968C71.7792 4.37071 73.0598 3.7565 74.3519 3.15968V9.1395ZM68.8356 11.6253L65.1272 7.96324C66.1586 7.3838 67.2016 6.76959 68.2562 6.22492C68.8878 7.81258 69.5136 9.39444 70.1394 10.9821C69.6932 11.1617 69.2586 11.3819 68.8356 11.6253ZM78.6166 10.0608C78.0617 9.94579 77.5006 9.86261 76.9362 9.81165V3.21763C78.1762 3.78548 79.4046 4.3765 80.6214 4.99071C79.957 6.68267 79.2887 8.3727 78.6166 10.0608ZM110.069 38.83C109.692 40.7189 109.263 42.5963 108.794 44.4679L100.027 40.4698C99.8503 40.3761 99.6685 40.2929 99.4822 40.2206C99.6908 40.2843 99.233 40.1105 99.1577 40.1685C99.1632 40.132 99.1632 40.0949 99.1577 40.0584C99.1258 39.7347 99.1258 39.4086 99.1577 39.0849V36.9236C99.1577 36.1529 99.0766 35.7358 98.3059 35.3707C96.811 34.658 95.2928 33.98 93.7805 33.2905L84.9672 29.2344L80.633 27.2412C79.1786 26.5748 77.7358 25.7868 76.2351 25.2247C75.8624 25.0798 75.4489 25.0798 75.0762 25.2247C74.3577 25.4913 73.6624 25.8679 72.9613 26.1866L68.5401 28.1972L59.8138 32.1722L55.2246 34.2814L53.0401 35.278C52.594 35.4808 52.1246 35.6662 51.9856 36.1819C51.9131 36.7979 51.9131 37.4202 51.9856 38.0361V39.4152C51.9856 39.6064 52.0783 40.0352 51.9856 40.2032C52.0609 40.07 51.325 40.3886 51.2323 40.4292L49.9112 41.0086L47.3906 42.1675L42.5175 44.3868C41.9381 42.1501 41.3586 39.8845 41.0052 37.6015L68.1867 25.3696L75.6499 22.0146C84.6543 26.0591 93.6569 30.1152 102.658 34.1829L110.318 37.6305C110.225 38.0245 110.15 38.4244 110.069 38.83ZM107.171 50.1116C106.627 51.8152 106.012 53.5013 105.392 55.1701C104.158 54.728 103.037 54.0198 102.107 53.0957C101.24 52.3492 100.239 51.7732 99.1577 51.398V42.8802L108.11 46.9363C107.809 48.0102 107.498 49.0686 107.177 50.1116H107.171ZM102.582 59.9621C101.102 58.536 99.1945 57.6361 97.1528 57.401C94.9618 57.2315 92.7884 57.9028 91.0745 59.2784C90.3408 59.9651 89.5477 60.5856 88.7046 61.1326C87.8323 61.5954 86.8587 61.8343 85.8712 61.8279C84.8797 61.809 83.909 61.5399 83.0493 61.0457C82.2353 60.4811 81.461 59.8616 80.7315 59.1914C79.3009 58.0862 77.5584 57.46 75.7516 57.4018C73.9447 57.3435 72.1655 57.8562 70.6667 58.867C69.8381 59.4464 69.1833 60.1939 68.3489 60.7559C67.522 61.3276 66.5665 61.6859 65.5676 61.7989C63.5222 62.0075 61.8708 61.0746 60.4106 59.7419C59.5224 58.9166 58.4726 58.2845 57.3276 57.8855C56.1827 57.4866 54.9674 57.3295 53.7586 57.4242C52.6382 57.526 51.5492 57.849 50.5543 58.3744C49.6275 58.9242 48.7646 59.5752 47.9816 60.3156C47.5644 59.3653 47.1608 58.4131 46.7706 57.4589C47.6307 57.1575 48.4411 56.7298 49.1753 56.1899C50.0966 55.5004 50.8325 54.6371 51.8755 54.1156C53.0016 53.5721 54.2687 53.3918 55.5018 53.5993C56.7349 53.8069 57.873 54.3922 58.7592 55.2744C60.2069 56.713 62.0889 57.6336 64.1132 57.8935C66.2025 58.0986 68.2945 57.5318 69.9945 56.3C70.7884 55.7206 71.4257 54.9789 72.2486 54.4574C73.1161 53.895 74.1139 53.5658 75.1457 53.5014C76.1276 53.454 77.1057 53.6532 77.9908 54.0808C78.8615 54.5728 79.6641 55.1767 80.3781 55.877C81.9154 57.1698 83.8545 57.8877 85.863 57.9078C87.8715 57.9279 89.8245 57.2489 91.3874 55.9871C92.4536 55.1354 93.3112 54.2488 94.6555 53.7853C96.0438 53.3465 97.546 53.4415 98.868 54.0518C99.9631 54.5559 100.716 55.4251 101.655 56.1436C102.505 56.7921 103.465 57.2828 104.489 57.5922C104.413 57.8066 104.239 58.0847 104.176 58.2412C104.048 58.5541 103.921 58.8612 103.787 59.1683C103.59 59.626 103.388 60.0838 103.208 60.5357C102.99 60.3616 102.783 60.1739 102.588 59.9737L102.582 59.9621ZM97.8598 70.9714C85.2428 73.6965 72.2319 74.0756 59.4777 72.0898C57.7657 71.864 56.0674 71.5448 54.3902 71.1337C54.0305 71.0847 53.6818 70.975 53.3588 70.8092C53.0727 70.4915 52.8469 70.1243 52.6925 69.7257C52.2695 68.984 51.8639 68.2307 51.4641 67.4774C52.23 67.0119 53.0918 66.7267 53.9842 66.6434C54.8767 66.5601 55.7764 66.6808 56.6153 66.9965C58.3246 67.6628 59.414 69.2099 61.019 70.0617C62.4752 70.819 64.1178 71.1434 65.7525 70.9966C67.3873 70.8497 68.9458 70.2378 70.2437 69.2331C70.9324 68.6129 71.6559 68.0325 72.4108 67.4948C73.2116 67.0047 74.117 66.7109 75.053 66.6372C77.0115 66.4924 78.6166 67.3963 80.013 68.6827C81.211 69.811 82.7062 70.5739 84.3228 70.8818C85.9394 71.1898 87.6103 71.0299 89.1392 70.421C89.9768 70.078 90.7581 69.6112 91.457 69.0361C92.189 68.3304 93.002 67.7139 93.879 67.1993C94.8051 66.7552 95.8312 66.5606 96.8556 66.6348C97.88 66.709 98.8673 67.0494 99.7197 67.6223C99.121 68.7425 98.5029 69.857 97.8656 70.9656L97.8598 70.9714ZM88.9364 67.6918C88.1053 68.1798 87.1696 68.4619 86.2072 68.5146C85.2225 68.5507 84.2443 68.3396 83.3622 67.9004C82.5059 67.3901 81.7108 66.7835 80.9923 66.0926C79.6659 64.9831 78.0359 64.299 76.315 64.1295C74.5941 63.96 72.862 64.3129 71.3446 65.1423C69.6063 66.0984 68.4764 67.7672 66.5063 68.3118C65.5657 68.554 64.5804 68.5645 63.6348 68.3425C62.6892 68.1205 61.8115 67.6725 61.0769 67.037C60.3386 66.3401 59.5353 65.7153 58.6781 65.1713C57.7957 64.6686 56.83 64.329 55.8272 64.1688C53.9166 63.8792 51.9642 64.2448 50.2878 65.206C49.8706 64.3793 49.465 63.545 49.071 62.7028C49.8648 62.1234 50.5312 61.3701 51.3887 60.8486C52.2589 60.2977 53.2572 59.9822 54.2859 59.9331C55.2916 59.8942 56.2902 60.1178 57.1831 60.5821C58.035 61.1126 58.831 61.728 59.5588 62.4189C60.9662 63.568 62.7008 64.2428 64.5146 64.3469C66.3285 64.4509 68.1289 63.9789 69.6585 62.9984C70.5218 62.4189 71.194 61.6483 72.0341 61.063C72.8785 60.4634 73.8616 60.0885 74.8908 59.9737C75.8794 59.8703 76.8779 60.026 77.788 60.4256C78.7406 60.9204 79.6137 61.5552 80.3781 62.3088C81.7598 63.4857 83.4776 64.1966 85.2868 64.3401C87.0961 64.4837 88.9045 64.0527 90.4545 63.1085C91.37 62.529 92.0712 61.741 92.9403 61.1152C93.8715 60.439 94.9736 60.0376 96.1214 59.9563C97.2534 59.8973 98.3783 60.1669 99.3605 60.7327C100.386 61.3122 101.168 62.2161 102.13 62.8999C101.744 63.7304 101.34 64.5551 100.919 65.3741C99.4225 64.4608 97.6825 64.0268 95.9322 64.1304C94.182 64.234 92.5052 64.8701 91.1267 65.9535C90.439 66.5803 89.7091 67.1591 88.9422 67.686L88.9364 67.6918ZM51.9624 51.3458C50.8798 51.6942 49.8731 52.2447 48.9957 52.9683C47.97 53.8085 47.1125 54.6371 45.8551 55.0832C44.843 52.3792 43.9487 49.65 43.1723 46.8957L51.9624 42.886V51.3458ZM54.5235 41.5997V37.5436C54.5119 37.4551 54.5119 37.3655 54.5235 37.2771L54.622 37.3814L54.8364 37.2828C55.0207 37.2125 55.2006 37.1313 55.3753 37.0395L57.27 36.1703V51.4443C56.3851 51.1438 55.458 50.9854 54.5235 50.975V41.5997ZM59.8312 34.9014C59.8891 34.7913 59.7906 34.9535 59.8775 34.9014C59.8138 34.9477 60.1383 34.8492 60.1441 34.8492C60.2926 34.7919 60.4377 34.7261 60.5786 34.6522L62.317 33.8642L65.4227 32.4445V55.3787C64.5258 55.4151 63.6311 55.2638 62.796 54.9346C61.9608 54.6053 61.2036 54.1053 60.5728 53.4666C60.4282 53.3151 60.2734 53.1738 60.1093 53.0436C60.0224 52.9914 59.7848 52.8466 59.837 52.9335C59.837 52.9045 59.837 52.8408 59.837 52.806C59.8163 52.6134 59.8163 52.4192 59.837 52.2266V36.5991C59.7819 36.0636 59.7819 35.5238 59.837 34.9883C59.837 34.9883 59.8254 34.9187 59.837 34.8956L59.8312 34.9014ZM83.3216 31.3842V37.4683H76.9478V28.3595L83.3216 31.2915V31.3842ZM83.3216 54.724C82.7343 54.4101 82.1908 54.0205 81.705 53.5651C80.8089 52.6441 79.7222 51.9304 78.521 51.4739C77.3198 51.0175 76.0333 50.8294 74.7517 50.9228C73.4798 51.0396 72.2492 51.4353 71.1476 52.0817C69.9887 52.7597 69.1369 53.7853 68.0128 54.4806V40.0757H83.3216V54.7703V54.724ZM67.9839 31.2451L74.3577 28.3479V37.4799H67.9839V31.2451ZM85.9001 32.2823C85.877 32.2417 85.9349 32.2649 85.9001 32.2997V32.2823ZM88.4149 33.615C89.3746 33.9918 90.3128 34.4212 91.2252 34.9014C91.2545 34.9234 91.288 34.9392 91.3237 34.9477C91.3237 34.9941 91.3237 35.0404 91.3237 35.0752V52.2845C91.3299 52.4023 91.3299 52.5202 91.3237 52.638C91.3237 52.638 91.2947 52.638 91.2542 52.6785C90.9818 52.9509 90.6747 53.1711 90.3734 53.4318C89.1799 54.6348 87.5654 55.3267 85.8712 55.3614V32.5778C85.8689 32.5411 85.8689 32.5044 85.8712 32.4677L88.4149 33.615ZM93.879 51.3342V36.1414L95.6521 36.9526L96.191 37.2017L96.3996 37.3002C96.4865 37.3756 96.556 37.3582 96.6024 37.2423C96.614 37.3327 96.614 37.4242 96.6024 37.5146V50.946C95.6788 50.9357 94.7595 51.0726 93.879 51.3516V51.3342ZM62.8558 9.30174L66.7207 13.126C66.3441 13.4514 65.9881 13.7997 65.6545 14.169L59.75 11.3066C60.7853 10.6306 61.8206 9.96809 62.8558 9.31912V9.30174ZM72.0284 12.929C74.2575 12.1404 76.6818 12.0929 78.9401 12.7935C81.1985 13.4941 83.1702 14.9053 84.5616 16.8171C86.1223 18.9443 86.8797 21.5553 86.6997 24.1875L76.2119 19.4709H76.1656C75.3138 19.2565 74.7517 19.6331 73.9695 19.9866L70.8057 21.4062L64.71 24.1528C64.5629 21.7463 65.1954 19.3565 66.5136 17.3378C67.8319 15.3192 69.7658 13.7792 72.0284 12.9464V12.929ZM88.3685 9.29595C89.4463 9.95651 90.5086 10.6344 91.5555 11.3298L85.7611 14.1458C85.6336 13.9894 85.454 13.8445 85.367 13.7518C85.1179 13.5027 84.8571 13.2709 84.5964 13.0391L88.3685 9.29595ZM87.8412 17.269C87.7601 17.1068 87.6732 16.9445 87.5863 16.7881C87.4994 16.6316 87.3313 16.4346 87.227 16.2666L93.9891 12.9928C95.3218 13.9257 96.6255 14.9107 97.9119 15.89L87.8412 17.269ZM98.1669 24.2802V29.3503L95.3856 28.0987L93.7863 27.3744L93.1721 27.1021C95.1018 26.7466 96.8587 25.7601 98.1669 24.2976V24.2802ZM89.116 25.3058C89.2565 24.6061 89.3168 23.8927 89.2956 23.1793C89.2411 22.0015 89.0466 20.8344 88.7162 19.7027L98.0394 18.4511C97.9307 19.5058 97.5953 20.5246 97.0563 21.4377C96.5172 22.3508 95.7872 23.1366 94.9162 23.7414C93.9527 24.3176 92.8622 24.6479 91.7409 24.7032C91.4238 24.7308 91.1286 24.8766 90.9139 25.1117C90.6993 25.3467 90.5808 25.6539 90.582 25.9722C90.13 25.781 89.6317 25.5318 89.116 25.3058ZM82.4409 11.5442C81.9833 11.2821 81.5113 11.046 81.0271 10.8372L82.8697 6.20174C83.9474 6.77731 85.0155 7.37028 86.074 7.98062L82.4409 11.5442ZM57.299 12.9812C59.5511 14.0821 61.807 15.1753 64.0669 16.2608C63.8698 16.5911 63.6844 16.9214 63.5164 17.2632L53.4515 15.8494C54.7302 14.8644 56.0204 13.9083 57.3222 12.9812H57.299ZM57.3917 27.4266L56.7833 27.6989L55.1841 28.4174L52.4028 29.669V24.6221C53.7168 26.0862 55.4797 27.0726 57.4149 27.4266H57.3917ZM62.3343 25.2015L59.9355 26.2735C59.9284 25.9487 59.7982 25.6387 59.5712 25.4064C59.3442 25.174 59.0374 25.0365 58.7128 25.0219C57.8021 24.9884 56.9097 24.7563 56.098 24.3419C55.2864 23.9276 54.575 23.341 54.0136 22.623C53.0748 21.357 52.5251 19.8449 52.4317 18.2715L62.5893 19.6969C62.1132 21.4932 62.0341 23.3716 62.3575 25.2015H62.3343ZM49.8416 30.4918C49.8069 30.9554 49.4998 30.9728 49.0942 31.1582L48.1207 31.5928L40.5185 35.0173C40.2403 33.3485 39.9796 31.6681 39.8405 29.9877C39.7705 29.5627 39.7491 29.1312 39.7768 28.7014C39.8463 28.3189 40.2867 27.9887 40.5416 27.7105C41.1558 27.05 41.7758 26.3894 42.4074 25.7404C42.4214 25.7235 42.4369 25.708 42.4538 25.6941C42.3594 25.8708 42.3043 26.0659 42.2923 26.2659C42.2803 26.4659 42.3117 26.6662 42.3843 26.8529C42.871 28.1277 44.8469 27.5251 45.7914 27.247C47.3591 26.777 48.764 25.8778 49.8474 24.6511V28.3421C49.8648 29.0664 49.9228 29.7791 49.8648 30.4918H49.8416ZM43.9198 25.0103C43.6105 25.0143 43.3045 25.0732 43.0158 25.1842C45.1829 22.9746 47.4447 20.8693 49.8011 18.8683C49.3549 21.9393 47.182 24.7206 43.9198 25.0103Z" fill="white"/>
<path d="M60.0977 53.0146C60.144 53.0493 60.144 53.0551 60.0977 53.0146V53.0146Z" fill="white"/>
</svg>
