<svg width="197" height="182" viewBox="0 0 197 182" fill="none" xmlns="http://www.w3.org/2000/svg">
<path d="M69.8383 173.148C69.8383 177.795 65.2664 181.546 59.6325 181.546C53.9986 181.546 49.4041 177.78 49.4041 173.148C49.4041 168.516 53.976 164.727 59.6325 164.727C65.289 164.727 69.8383 168.501 69.8383 173.148ZM65.9367 173.148C65.9367 170.692 63.052 168.629 59.6325 168.629C56.213 168.629 53.3282 170.67 53.3282 173.148C53.3282 175.626 56.213 177.667 59.6325 177.667C63.052 177.667 65.9367 175.618 65.9367 173.148Z" fill="#422612"/>
<path d="M89.2784 176.032C89.2784 179.429 85.407 181.983 80.24 181.983C75.0731 181.983 71.2017 179.429 71.2017 176.032H75.1258C75.1258 176.733 77.1218 178.081 80.225 178.081C83.3282 178.081 85.3467 176.733 85.3467 176.032C85.3467 175.332 83.4035 174.014 80.3229 173.991C79.4341 174.179 78.7563 174.255 78.4926 174.3L78.0106 170.406C79.9708 170.154 81.8751 169.576 83.6445 168.696H71.2092V164.772H89.2332V166.723C89.2332 168.884 88.0055 170.451 86.3937 171.581C88.1712 172.643 89.2784 174.232 89.2784 176.032Z" fill="#422612"/>
<path d="M96.1624 171.197H103.167V175.099H96.1624V177.644H106.466V181.546H92.2383V164.727H106.511V168.651H96.1624V171.197Z" fill="#422612"/>
<path d="M125.476 171.25C125.476 174.639 122.396 177.765 117.003 177.765H113.109V181.591H109.185V164.75H116.498C122.396 164.75 125.476 167.853 125.476 171.25ZM121.575 171.25C121.575 169.683 119.797 168.674 116.521 168.674H113.109V173.848H116.98C119.797 173.848 121.575 172.809 121.575 171.25Z" fill="#422612"/>
<path d="M148.073 173.148C148.073 177.795 143.501 181.546 137.867 181.546C132.233 181.546 127.639 177.78 127.639 173.148C127.639 168.516 132.218 164.727 137.867 164.727C143.516 164.727 148.073 168.501 148.073 173.148ZM144.171 173.148C144.171 170.692 141.287 168.629 137.867 168.629C134.448 168.629 131.563 170.67 131.563 173.148C131.563 175.626 134.455 177.667 137.867 177.667C141.279 177.667 144.171 175.618 144.171 173.148Z" fill="#422612"/>
<path d="M37.9099 118.556C38.0975 118.656 38.2618 118.794 38.392 118.963C38.5275 119.13 38.6345 119.318 38.7083 119.52C38.7786 119.731 38.8142 119.953 38.8138 120.175C38.8277 120.463 38.7728 120.749 38.6536 121.011C38.5344 121.273 38.3543 121.503 38.1284 121.682C37.722 121.986 37.241 122.176 36.7359 122.23C36.2309 122.285 35.7206 122.202 35.2587 121.99C34.9115 121.825 34.6188 121.564 34.4151 121.237C34.1954 120.912 34.0774 120.53 34.0762 120.138H35.1532C35.1704 120.343 35.2404 120.54 35.3566 120.71C35.4702 120.874 35.6265 121.004 35.8085 121.087C36.0059 121.171 36.2191 121.212 36.4337 121.207C36.7671 121.218 37.0941 121.115 37.3601 120.913C37.4726 120.823 37.5634 120.708 37.626 120.578C37.6885 120.447 37.7212 120.305 37.7216 120.16C37.7234 120.019 37.6954 119.879 37.6396 119.749C37.5838 119.619 37.5015 119.503 37.3978 119.407C37.1623 119.203 36.8582 119.095 36.5467 119.106H35.7935V118.164H36.5467C36.8235 118.175 37.0938 118.078 37.2999 117.893C37.3948 117.805 37.4695 117.698 37.5189 117.578C37.5683 117.458 37.5912 117.329 37.5861 117.2C37.5917 117.066 37.5653 116.932 37.5089 116.811C37.4526 116.689 37.368 116.582 37.2622 116.5C37.0247 116.324 36.7369 116.228 36.4412 116.228C36.1455 116.228 35.8577 116.324 35.6202 116.5C35.514 116.582 35.4259 116.686 35.3611 116.803C35.2964 116.921 35.2564 117.051 35.2436 117.185H34.1816C34.1898 116.918 34.2553 116.657 34.3735 116.418C34.4918 116.178 34.6601 115.967 34.867 115.799C35.3038 115.441 35.8542 115.252 36.4186 115.264C36.9992 115.243 37.5683 115.43 38.0229 115.792C38.2288 115.958 38.3937 116.17 38.5047 116.41C38.6157 116.65 38.6699 116.913 38.6631 117.177C38.6655 117.464 38.5956 117.746 38.4598 117.998C38.3241 118.226 38.1355 118.417 37.9099 118.556Z" fill="#246A36"/>
<path d="M47.0235 122.096L46.436 120.634H43.4232L42.8432 122.096H41.6682L44.3873 115.317H45.4342L48.221 122.096H47.0235ZM44.922 116.786L43.8148 119.633H46.0744L44.922 116.786Z" fill="#246A36"/>
<path d="M55.3541 115.362V116.394H52.7405V122.119H51.6333V115.34L55.3541 115.362Z" fill="#246A36"/>
<path d="M61.6582 122.223C61.188 122.239 60.7196 122.158 60.2818 121.985C59.844 121.813 59.446 121.553 59.1124 121.221C58.4605 120.551 58.0957 119.652 58.0957 118.717C58.0957 117.782 58.4605 116.883 59.1124 116.213C59.8075 115.573 60.7175 115.218 61.662 115.218C62.6065 115.218 63.5165 115.573 64.2116 116.213C64.5433 116.539 64.8041 116.93 64.9778 117.361C65.1514 117.793 65.2342 118.256 65.2209 118.721C65.2299 119.346 65.0712 119.962 64.7614 120.506C64.4658 121.04 64.0243 121.479 63.4885 121.771C62.9276 122.077 62.2971 122.233 61.6582 122.223ZM59.9184 120.461C60.3238 120.89 60.8662 121.164 61.4522 121.237C62.0383 121.309 62.6312 121.175 63.129 120.858C63.6268 120.54 63.9983 120.059 64.1795 119.497C64.3607 118.935 64.3403 118.327 64.1218 117.779C63.9033 117.23 63.5004 116.775 62.9825 116.491C62.4645 116.208 61.8639 116.114 61.2841 116.225C60.7042 116.337 60.1814 116.647 59.8057 117.102C59.4299 117.558 59.2247 118.13 59.2254 118.721C59.2164 119.043 59.2732 119.363 59.3923 119.662C59.5115 119.961 59.6905 120.233 59.9184 120.461Z" fill="#246A36"/>
<path d="M71.4271 115.362C71.8342 115.358 72.2358 115.456 72.5946 115.649C72.9397 115.836 73.2264 116.115 73.4231 116.455C73.6222 116.8 73.7261 117.193 73.7244 117.592C73.732 117.889 73.6777 118.184 73.5649 118.459C73.4521 118.734 73.2832 118.983 73.0691 119.189C72.8516 119.399 72.5942 119.563 72.3122 119.671C72.0302 119.78 71.7292 119.831 71.4271 119.821H70.0337V122.119H68.9189V115.34L71.4271 115.362ZM71.3668 118.767C71.5363 118.771 71.7051 118.743 71.864 118.684C72.0086 118.629 72.1415 118.547 72.2556 118.443C72.366 118.336 72.4532 118.208 72.5117 118.066C72.572 117.916 72.6027 117.754 72.6021 117.592C72.6067 117.382 72.5528 117.175 72.4464 116.994C72.34 116.813 72.1852 116.665 71.9995 116.568C71.8056 116.462 71.5873 116.41 71.3668 116.417H70.0337V118.767H71.3668Z" fill="#246A36"/>
<path d="M80.405 122.223C79.9348 122.239 79.4664 122.158 79.0286 121.985C78.5908 121.813 78.1929 121.553 77.8593 121.221C77.2073 120.551 76.8425 119.652 76.8425 118.717C76.8425 117.782 77.2073 116.883 77.8593 116.213C78.5544 115.573 79.4643 115.218 80.4088 115.218C81.3533 115.218 82.2633 115.573 82.9584 116.213C83.2901 116.539 83.5509 116.93 83.7246 117.361C83.8982 117.793 83.981 118.256 83.9677 118.721C83.9767 119.346 83.818 119.962 83.5082 120.506C83.2126 121.04 82.7711 121.479 82.2353 121.771C81.6744 122.077 81.0439 122.233 80.405 122.223ZM78.6652 120.461C79.0706 120.89 79.6131 121.164 80.1991 121.237C80.7851 121.309 81.378 121.175 81.8758 120.858C82.3736 120.54 82.7451 120.059 82.9263 119.497C83.1075 118.935 83.0871 118.327 82.8686 117.779C82.6502 117.23 82.2473 116.775 81.7293 116.491C81.2113 116.208 80.6107 116.114 80.0309 116.225C79.451 116.337 78.9282 116.647 78.5525 117.102C78.1767 117.558 77.9715 118.13 77.9722 118.721C77.9632 119.043 78.02 119.363 78.1391 119.662C78.2583 119.961 78.4373 120.233 78.6652 120.461Z" fill="#246A36"/>
<path d="M92.818 121.064H93.4958V123.414H92.4715V122.096H87.8468V123.414H86.8225V121.064H87.3497C87.428 121.014 87.4989 120.953 87.5606 120.883C87.6311 120.802 87.6895 120.71 87.7339 120.612C87.7963 120.495 87.8467 120.371 87.8845 120.243C87.9222 120.115 87.9598 119.934 88.005 119.708C88.0502 119.482 88.0803 119.241 88.1105 119C88.1406 118.759 88.1858 118.443 88.2234 118.044C88.2611 117.645 88.3063 117.253 88.344 116.846C88.3816 116.44 88.4193 115.942 88.472 115.34H92.818V121.064ZM89.4662 116.372C89.3532 117.946 89.2328 119.053 89.1122 119.701C89.0495 120.198 88.8544 120.669 88.5473 121.064H91.6957V116.372H89.4662Z" fill="#246A36"/>
<path d="M101.397 115.362H102.504V122.141H101.397V119.128H98.3013V122.073H97.1941V115.294H98.3013V118.059H101.397V115.362Z" fill="#246A36"/>
<path d="M109.177 117.622C109.485 117.61 109.793 117.66 110.081 117.769C110.37 117.878 110.633 118.043 110.857 118.255C111.281 118.687 111.519 119.269 111.519 119.874C111.519 120.48 111.281 121.061 110.857 121.494C110.633 121.706 110.37 121.871 110.081 121.98C109.793 122.088 109.485 122.138 109.177 122.126H106.639V115.348H107.746V117.607L109.177 117.622ZM109.102 121.087C109.271 121.094 109.439 121.067 109.597 121.007C109.755 120.948 109.899 120.857 110.021 120.741C110.138 120.627 110.23 120.491 110.294 120.341C110.357 120.191 110.389 120.03 110.389 119.867C110.389 119.704 110.357 119.543 110.294 119.393C110.23 119.243 110.138 119.107 110.021 118.993C109.772 118.763 109.441 118.641 109.102 118.654H107.746V121.087H109.102ZM112.394 115.37H113.508V122.149H112.394V115.37Z" fill="#246A36"/>
<path d="M122.26 115.362H123.059V122.141H121.959V117.456L118.381 122.096H117.628V115.317H118.735V119.949L122.26 115.362ZM118.909 114.413V113.555H121.718V114.391L118.909 114.413Z" fill="#246A36"/>
<path d="M136.067 122.095L133.95 119.128H133.159V122.088H132.052V115.309H133.159V118.073H133.913L135.848 115.309H137.212L134.952 118.601L137.475 122.095H136.067Z" fill="#246A36"/>
<path d="M141.866 115.362H146.182V122.141H145.067V116.417H142.86L142.537 119.866C142.393 121.373 141.663 122.126 140.36 122.126H140.036V121.034H140.36C140.985 121.034 141.339 120.65 141.407 119.874L141.866 115.362Z" fill="#246A36"/>
<path d="M154.166 115.362H155.349L153.33 119.987C153.1 120.632 152.724 121.214 152.231 121.689C151.776 122.015 151.222 122.175 150.664 122.141H150.37V121.087H150.769C151.033 121.095 151.294 121.03 151.523 120.898C151.762 120.693 151.95 120.436 152.072 120.145L149.511 115.34H150.777L152.645 118.865L154.166 115.362Z" fill="#246A36"/>
<path d="M161.223 117.847C161.511 117.838 161.799 117.886 162.068 117.99C162.337 118.093 162.582 118.25 162.79 118.45C163.175 118.857 163.39 119.396 163.39 119.956C163.39 120.517 163.175 121.056 162.79 121.463C162.582 121.664 162.335 121.821 162.064 121.925C161.794 122.028 161.505 122.076 161.216 122.065H158.677V115.287H162.895V116.318H159.807V117.825L161.223 117.847ZM161.125 121.049C161.429 121.057 161.724 120.946 161.946 120.74C162.115 120.567 162.223 120.345 162.254 120.106C162.285 119.867 162.238 119.624 162.12 119.414C162.022 119.256 161.884 119.126 161.72 119.038C161.536 118.944 161.332 118.898 161.125 118.902H159.807V121.049H161.125Z" fill="#246A36"/>
<path d="M17.5058 153.067H13.5816V140.097H4.43783V153.067H0.513672V136.196H17.5058V153.067Z" fill="#422612"/>
<path d="M57.2368 147.991L58.9691 151.5C56.8368 152.517 54.4999 153.033 52.1376 153.007C45.4944 153.007 40.2974 149.324 40.2974 144.609C40.2974 139.894 45.4944 136.188 52.1376 136.188C54.4999 136.162 56.8368 136.677 58.9691 137.694L57.2368 141.212C55.6434 140.46 53.8994 140.081 52.1376 140.105C48.3716 140.105 44.214 141.935 44.214 144.624C44.214 147.313 48.3792 149.143 52.1376 149.143C53.9025 149.148 55.6458 148.754 57.2368 147.991Z" fill="#422612"/>
<path d="M77.9122 140.12H71.6833V153.067H67.7591V140.12H61.4097V136.196H77.9424L77.9122 140.12Z" fill="#422612"/>
<path d="M100.734 144.36C100.568 139.841 96.0716 136.196 90.5432 136.196C85.0147 136.196 80.4955 139.834 80.3223 144.353C80.3223 144.443 80.3223 144.534 80.3223 144.624C80.3278 145.894 80.6709 147.139 81.3165 148.232C82.9811 151.064 86.4684 153.022 90.513 153.022C94.5577 153.022 98.158 151.034 99.7698 148.149C100.388 147.08 100.715 145.867 100.719 144.632C100.732 144.542 100.737 144.451 100.734 144.36ZM90.513 149.121C88.7326 149.155 86.9987 148.551 85.6248 147.418C85.202 147.082 84.8568 146.658 84.6124 146.175C84.3681 145.693 84.2304 145.164 84.2088 144.624C84.2095 144.37 84.2424 144.117 84.3067 143.871C84.8415 141.777 87.4701 140.15 90.513 140.15C93.3225 140.15 95.7854 141.528 96.5386 143.381C96.7116 143.783 96.8013 144.216 96.8022 144.654C96.777 145.588 96.3877 146.474 95.7176 147.125C95.0251 147.785 94.2085 148.301 93.3152 148.644C92.4218 148.986 91.4694 149.148 90.513 149.121Z" fill="#422612"/>
<path d="M119.18 142.719C119.18 146.108 116.1 149.242 110.714 149.242H106.835V153.068H102.911V136.219H110.232C116.122 136.219 119.18 139.322 119.18 142.719ZM115.286 142.719C115.286 141.152 113.501 140.143 110.232 140.143H106.835V145.317H110.714C113.501 145.317 115.286 144.286 115.286 142.719Z" fill="#422612"/>
<path d="M138.289 147.991L140.021 151.5C137.889 152.517 135.552 153.033 133.19 153.007C126.547 153.007 121.35 149.324 121.35 144.609C121.35 139.894 126.547 136.188 133.19 136.188C135.552 136.162 137.889 136.677 140.021 137.694L138.289 141.212C136.696 140.459 134.952 140.08 133.19 140.105C129.424 140.105 125.274 141.935 125.274 144.624C125.274 147.313 129.431 149.143 133.19 149.143C134.955 149.149 136.698 148.755 138.289 147.991Z" fill="#422612"/>
<path d="M154.942 153.022L148.51 146.243L146.393 148.171V153.082H142.469V136.21H146.393V142.876L153.684 136.21H159.484L151.394 143.599L160.335 153.022H154.942Z" fill="#422612"/>
<path d="M180.287 144.617C180.287 149.264 175.715 153.015 170.081 153.015C164.448 153.015 159.853 149.249 159.853 144.617C159.853 139.984 164.425 136.196 170.081 136.196C175.738 136.196 180.287 139.977 180.287 144.617ZM176.386 144.617C176.386 142.161 173.501 140.097 170.081 140.097C166.662 140.097 163.777 142.139 163.777 144.617C163.777 147.095 166.662 149.136 170.081 149.136C173.501 149.136 176.378 147.049 176.378 144.617H176.386Z" fill="#422612"/>
<path d="M186.614 142.666H193.619V146.567H186.614V149.121H196.918V153.022H182.69V136.196H197V140.12H186.614V142.666Z" fill="#422612"/>
<path d="M38.0607 147.328L36.2154 143.456L33.6094 137.958L32.7583 136.188H28.0658L27.2448 137.958L24.5333 143.532L22.6654 147.381L19.9087 153.022H24.2697L25.0229 151.418L25.7761 149.798L25.9569 149.437C28.7676 150.511 31.8758 150.511 34.6864 149.437L35.7033 151.576L36.4113 153.037H40.8024L38.0607 147.328ZM30.3555 146.334C29.4562 146.335 28.5629 146.187 27.7118 145.897L30.4007 140.331L32.2461 144.21L32.2837 144.292L33.0369 145.882C32.1746 146.181 31.2683 146.333 30.3555 146.334Z" fill="#422612"/>
<path d="M148.238 35.7189C147.184 33.7455 145.451 32.209 143.817 30.7252C141.934 29.0155 140.149 27.2078 138.281 25.4528C134.315 21.7858 130.135 18.3578 125.763 15.1867C124.829 14.5089 123.887 13.8536 122.946 13.1908C122.666 12.9291 122.349 12.7108 122.004 12.543C121.251 12.0233 120.498 11.5187 119.7 11.0366C118.193 10.065 116.687 9.11596 115.135 8.19706C112.815 6.81117 110.443 5.50814 108.04 4.26536C106.029 3.23348 104.026 2.179 102.015 1.13206C100.794 0.491839 99.401 -0.170973 97.9925 0.0399227C96.558 0.340943 95.1819 0.872567 93.9177 1.6141C90.9576 3.1205 88.0051 4.74741 85.0977 6.37432C82.1904 8.00123 79.2454 9.79384 76.4209 11.6467C71.1373 15.1246 66.1243 18.997 61.4247 23.2309C58.9693 25.4905 56.6193 27.8028 54.3447 30.213C53.1169 31.5161 51.8968 32.8266 50.7218 34.1673C49.8443 35.107 49.222 36.2557 48.9141 37.504C48.8014 38.1696 48.8014 38.8494 48.9141 39.515C48.9517 40.4641 49.0572 41.3905 49.1777 42.3395C49.6146 45.6185 50.1644 48.8823 50.8272 52.1311C53.4717 65.0076 57.9539 77.437 64.1362 89.0378C64.8894 90.4839 65.6878 91.915 66.5013 93.3386C66.7591 93.9374 67.1212 94.4857 67.5708 94.9579C68.1239 95.2833 68.7457 95.4742 69.386 95.5153C72.6649 96.2082 75.9665 96.7832 79.2906 97.2401C92.4369 99.0556 105.773 99.0175 118.909 97.1272C122.238 96.6526 125.627 96.1405 128.904 95.3647C129.159 95.2903 129.395 95.1619 129.597 94.9881C129.795 94.8269 129.961 94.6302 130.086 94.4081C130.9 93.0448 131.675 91.6439 132.429 90.2429C135.224 85.1191 137.692 79.8236 139.818 74.3881C141.847 69.2028 143.565 63.9009 144.962 58.5107C146.48 52.1477 147.677 45.7122 148.547 39.2288C148.796 38.0542 148.689 36.832 148.238 35.7189ZM131.186 31.5989C132.419 32.9891 133.969 34.0613 135.705 34.7247C136.737 35.115 137.821 35.351 138.921 35.4252C139.258 35.5036 139.61 35.4851 139.936 35.3718C140.263 35.2585 140.551 35.055 140.767 34.785C140.923 34.5434 141.017 34.2665 141.04 33.9795C141.062 33.6924 141.012 33.4043 140.894 33.1414C140.777 32.8786 140.595 32.6494 140.366 32.4747C140.138 32.3 139.869 32.1853 139.584 32.1412C138.457 32.0619 137.349 31.8078 136.3 31.388C135.386 30.9555 134.56 30.3551 133.867 29.618C132.388 27.9909 131.481 25.9254 131.284 23.7355C134.146 26.1458 136.895 28.684 139.607 31.2675C140.827 32.4274 142.039 33.5874 143.237 34.7624L144.593 36.1181C144.781 36.3215 145.293 36.6905 145.346 36.9692C145.334 37.223 145.299 37.4751 145.241 37.7224C145.195 38.1141 145.158 38.5133 145.113 38.9049C145.03 39.6581 144.947 40.3436 144.856 41.0591C144.668 42.5655 144.45 44.0719 144.216 45.5331L131.186 39.6657V31.5989ZM96.9305 11.8802V12.784C96.1346 12.8681 95.3448 13.0015 94.5654 13.1832C93.6917 10.9588 92.8155 8.73936 91.9368 6.52496C93.5863 5.68138 95.2508 4.88298 96.9305 4.10719V11.8802ZM89.76 15.1114L84.9396 10.3512C86.2803 9.59801 87.636 8.79962 89.0068 8.09161C89.8278 10.1554 90.6413 12.2116 91.4547 14.2754C90.8748 14.5089 90.3099 14.7951 89.76 15.1114ZM102.474 13.0778C101.753 12.9283 101.023 12.8202 100.29 12.7539V4.18251C101.902 4.92065 103.498 5.68891 105.08 6.4873C104.216 8.68663 103.348 10.8835 102.474 13.0778ZM143.358 50.4741C142.868 52.9295 142.311 55.3699 141.701 57.8027L130.305 52.6056C130.075 52.4839 129.839 52.3757 129.597 52.2817C129.868 52.3646 129.273 52.1386 129.175 52.214C129.182 52.1665 129.182 52.1183 129.175 52.0708C129.133 51.6501 129.133 51.2262 129.175 50.8055V47.996C129.175 46.9943 129.069 46.452 128.068 45.9775C126.124 45.051 124.151 44.1698 122.185 43.2735L110.729 38.0011L105.095 35.4101C103.205 34.5439 101.329 33.5196 99.3784 32.789C98.8939 32.6006 98.3564 32.6006 97.872 32.789C96.938 33.1354 96.0342 33.625 95.1228 34.0393L89.3759 36.6529L78.0327 41.8198L72.0674 44.5615L69.2278 45.857C68.6479 46.1206 68.0378 46.3616 67.857 47.0319C67.7628 47.8326 67.7628 48.6415 67.857 49.4422V51.2348C67.857 51.4833 67.9775 52.0407 67.857 52.2591C67.9549 52.0859 66.9984 52.5002 66.8779 52.5529L65.1606 53.3061L61.8842 54.8125L55.5498 57.6972C54.7966 54.7899 54.0434 51.8449 53.5839 48.8773L88.9164 32.9773L98.6176 28.6163C110.322 33.8736 122.025 39.146 133.724 44.4334L143.681 48.9149C143.561 49.4271 143.463 49.9468 143.358 50.4741ZM139.592 65.1388C138.884 67.3532 138.085 69.545 137.279 71.7142C135.675 71.1396 134.217 70.219 133.009 69.0178C131.881 68.0474 130.58 67.2987 129.175 66.8109V55.7389L140.812 61.0113C140.42 62.4072 140.016 63.7831 139.599 65.1388H139.592ZM133.626 77.9432C131.703 76.0895 129.223 74.9197 126.569 74.6141C123.721 74.3937 120.896 75.2663 118.668 77.0544C117.714 77.9471 116.683 78.7536 115.587 79.4647C114.453 80.0663 113.188 80.3769 111.904 80.3685C110.615 80.3439 109.354 79.9941 108.236 79.3517C107.178 78.6179 106.171 77.8126 105.223 76.9414C103.364 75.5048 101.099 74.6908 98.7499 74.6151C96.4012 74.5393 94.0884 75.2058 92.1401 76.5196C91.0631 77.2728 90.2119 78.2445 89.1273 78.9751C88.0525 79.7182 86.8104 80.1839 85.512 80.3308C82.8532 80.602 80.7066 79.3893 78.8085 77.657C77.6539 76.5842 76.2894 75.7625 74.8011 75.2439C73.3127 74.7254 71.7331 74.5211 70.1618 74.6442C68.7054 74.7766 67.2898 75.1965 65.9966 75.8794C64.7919 76.594 63.6702 77.4403 62.6524 78.4026C62.1101 77.1674 61.5854 75.9296 61.0782 74.6894C62.1962 74.2976 63.2496 73.7417 64.204 73.0399C65.4016 72.1436 66.3582 71.0213 67.7139 70.3434C69.1778 69.6371 70.8249 69.4026 72.4277 69.6724C74.0305 69.9422 75.51 70.7031 76.6619 71.8498C78.5438 73.7197 80.9901 74.9164 83.6215 75.2543C86.3372 75.5209 89.0567 74.7841 91.2664 73.183C92.2983 72.4298 93.1268 71.4657 94.1964 70.7878C95.324 70.0568 96.6211 69.6287 97.9624 69.545C99.2386 69.4834 100.51 69.7424 101.661 70.2982C102.792 70.9378 103.836 71.7228 104.764 72.6331C106.762 74.3135 109.283 75.2467 111.893 75.2729C114.504 75.299 117.043 74.4164 119.075 72.7762C120.46 71.669 121.575 70.5167 123.323 69.9141C125.127 69.3437 127.08 69.4672 128.798 70.2606C130.222 70.9159 131.201 72.0457 132.421 72.9796C133.526 73.8226 134.774 74.4604 136.104 74.8626C136.006 75.1413 135.78 75.5028 135.698 75.7062C135.532 76.1129 135.366 76.5121 135.193 76.9113C134.937 77.5063 134.673 78.1014 134.44 78.6889C134.156 78.4625 133.887 78.2185 133.634 77.9583L133.626 77.9432ZM127.488 92.254C111.087 95.7962 94.1748 96.2889 77.5959 93.7076C75.3705 93.4142 73.1629 92.9993 70.9828 92.4649C70.5152 92.4012 70.0619 92.2586 69.6421 92.0431C69.2702 91.6301 68.9767 91.1528 68.7759 90.6346C68.2261 89.6705 67.6988 88.6913 67.1791 87.7122C68.1748 87.1071 69.295 86.7363 70.4551 86.628C71.6151 86.5197 72.7846 86.6767 73.8751 87.087C76.097 87.9532 77.513 89.9642 79.5994 91.0714C81.4922 92.0558 83.6274 92.4775 85.7524 92.2866C87.8773 92.0957 89.9032 91.3003 91.5903 89.9944C92.4855 89.1881 93.426 88.4337 94.4073 87.7348C95.4483 87.0977 96.6251 86.7157 97.8418 86.62C100.388 86.4317 102.474 87.6067 104.289 89.2788C105.846 90.7455 107.79 91.7372 109.891 92.1375C111.993 92.5378 114.165 92.3299 116.152 91.5384C117.241 91.0926 118.256 90.4858 119.165 89.7383C120.116 88.821 121.173 88.0195 122.313 87.3506C123.517 86.7734 124.851 86.5204 126.182 86.6169C127.514 86.7133 128.797 87.1558 129.905 87.9005C129.127 89.3567 128.324 90.8053 127.495 92.2464L127.488 92.254ZM115.888 87.9909C114.808 88.6251 113.592 88.9918 112.341 89.0604C111.061 89.1073 109.789 88.8329 108.643 88.262C107.53 87.5986 106.496 86.8102 105.562 85.912C103.838 84.4698 101.719 83.5806 99.4822 83.3603C97.2453 83.1399 94.9938 83.5987 93.0214 84.6768C90.7618 85.9196 89.293 88.0888 86.7322 88.7968C85.5095 89.1116 84.2287 89.1252 82.9995 88.8366C81.7704 88.548 80.6295 87.9658 79.6747 87.1397C78.7149 86.2338 77.6708 85.4217 76.5565 84.7144C75.4095 84.0611 74.1542 83.6197 72.8507 83.4114C70.3671 83.035 67.8293 83.5102 65.6501 84.7596C65.1078 83.6851 64.5806 82.6005 64.0684 81.5058C65.1003 80.7526 65.9665 79.7735 67.0812 79.0956C68.2123 78.3794 69.51 77.9693 70.8472 77.9055C72.1545 77.8549 73.4525 78.1456 74.6132 78.7491C75.7206 79.4387 76.7552 80.2387 77.7013 81.1367C79.5307 82.6304 81.7854 83.5076 84.1433 83.6428C86.5011 83.7781 88.8414 83.1646 90.8296 81.8899C91.9518 81.1367 92.8255 80.135 93.9177 79.3743C95.0152 78.5948 96.2931 78.1075 97.631 77.9583C98.916 77.8238 100.214 78.0263 101.397 78.5457C102.635 79.1889 103.77 80.0141 104.764 80.9936C106.56 82.5234 108.793 83.4475 111.144 83.6341C113.496 83.8207 115.847 83.2604 117.862 82.0331C119.052 81.2799 119.963 80.2555 121.093 79.4421C122.303 78.5632 123.736 78.0413 125.228 77.9357C126.7 77.8589 128.162 78.2094 129.438 78.9449C130.772 79.6981 131.788 80.8731 133.039 81.7619C132.537 82.8415 132.012 83.9135 131.465 84.9781C129.519 83.7909 127.257 83.2268 124.982 83.3615C122.707 83.4961 120.527 84.323 118.736 85.7313C117.842 86.546 116.893 87.2984 115.896 87.9833L115.888 87.9909ZM67.8269 66.7431C66.4196 67.196 65.1111 67.9116 63.9705 68.8521C62.6374 69.9442 61.5226 71.0213 59.8882 71.6013C58.5726 68.0863 57.4102 64.5388 56.4009 60.9586L67.8269 55.7465V66.7431ZM71.156 54.0744V48.802C71.1409 48.687 71.1409 48.5705 71.156 48.4555L71.2841 48.5911L71.5628 48.463C71.8023 48.3716 72.0362 48.266 72.2632 48.1467L74.7262 47.0169V66.8712C73.5758 66.4805 72.3708 66.2746 71.156 66.2611V54.0744ZM78.0553 45.3674C78.1306 45.2243 78.0026 45.4352 78.1156 45.3674C78.0327 45.4276 78.4545 45.2996 78.462 45.2996C78.6551 45.2251 78.8437 45.1396 79.0269 45.0435L81.2865 44.0192L85.3237 42.1738V71.9854C84.1577 72.0327 82.9948 71.836 81.9092 71.408C80.8236 70.98 79.8394 70.3301 79.0194 69.4998C78.8314 69.3029 78.6301 69.1192 78.4169 68.95C78.3039 68.8822 77.9951 68.6939 78.0629 68.8069C78.0629 68.7692 78.0629 68.6864 78.0629 68.6412C78.036 68.3909 78.036 68.1383 78.0629 67.888V47.5743C77.9913 46.8781 77.9913 46.1765 78.0629 45.4804C78.0629 45.4804 78.0478 45.39 78.0629 45.3598L78.0553 45.3674ZM108.59 40.7955V48.704H100.305V36.8638L108.59 40.675V40.7955ZM108.59 71.1343C107.827 70.7263 107.12 70.2199 106.489 69.6279C105.324 68.4307 103.911 67.5029 102.35 66.9096C100.788 66.3163 99.1161 66.0718 97.4502 66.1933C95.7968 66.3451 94.1972 66.8594 92.7653 67.6997C91.2589 68.5809 90.1517 69.9141 88.6905 70.8179V52.0934H108.59V71.1945V71.1343ZM88.6528 40.6147L96.938 36.8487V48.7191H88.6528V40.6147ZM111.942 41.9629C111.912 41.9102 111.987 41.9403 111.942 41.9855V41.9629ZM115.211 43.6953C116.458 44.185 117.678 44.7433 118.864 45.3674C118.902 45.3961 118.945 45.4166 118.992 45.4276C118.992 45.4879 118.992 45.5481 118.992 45.5933V67.9633C119 68.1164 119 68.2697 118.992 68.4228C118.992 68.4228 118.954 68.4228 118.901 68.4755C118.547 68.8295 118.148 69.1157 117.756 69.4546C116.205 71.0184 114.106 71.9178 111.904 71.9628V42.3471C111.901 42.2994 111.901 42.2516 111.904 42.2039L115.211 43.6953ZM122.313 66.7281V46.9792L124.618 48.0337L125.318 48.3576L125.59 48.4856C125.703 48.5835 125.793 48.5609 125.853 48.4103C125.868 48.5278 125.868 48.6468 125.853 48.7643V66.2234C124.653 66.21 123.458 66.3879 122.313 66.7507V66.7281ZM81.987 12.0911L87.0109 17.0622C86.5214 17.4851 86.0585 17.9379 85.625 18.4179L77.9499 14.6972C79.2956 13.8184 80.6413 12.9573 81.987 12.1137V12.0911ZM93.9101 16.8061C96.8078 15.781 99.959 15.7192 102.895 16.6299C105.83 17.5406 108.393 19.375 110.202 21.8601C112.231 24.6252 113.215 28.0192 112.981 31.4408L99.3482 25.3097H99.288C98.1808 25.031 97.4502 25.5206 96.4333 25.9801L92.3209 27.8254L84.3973 31.3956C84.206 28.2674 85.0281 25.161 86.7417 22.537C88.4553 19.913 90.9691 17.9112 93.9101 16.8287V16.8061ZM115.15 12.0836C116.551 12.9422 117.932 13.8234 119.293 14.7273L111.761 18.3878C111.595 18.1845 111.362 17.9962 111.249 17.8757C110.925 17.5518 110.586 17.2505 110.247 16.9492L115.15 12.0836ZM114.465 22.4476C114.359 22.2367 114.246 22.0258 114.133 21.8224C114.021 21.619 113.802 21.363 113.667 21.1445L122.456 16.889C124.189 18.1016 125.883 19.382 127.555 20.6549L114.465 22.4476ZM127.887 31.5613V38.1517L124.272 36.5248L122.193 35.5833L121.394 35.2293C123.903 34.7672 126.186 33.4849 127.887 31.5839V31.5613ZM116.122 32.8944C116.305 31.9849 116.383 31.0575 116.355 30.1302C116.285 28.5992 116.032 27.0822 115.602 25.611L127.721 23.9841C127.58 25.3551 127.144 26.6794 126.443 27.8663C125.743 29.0533 124.794 30.0747 123.661 30.8608C122.409 31.6098 120.992 32.0392 119.534 32.1111C119.122 32.147 118.738 32.3365 118.459 32.642C118.18 32.9476 118.026 33.3468 118.028 33.7606C117.44 33.512 116.792 33.1882 116.122 32.8944ZM107.445 15.006C106.85 14.6653 106.237 14.3585 105.607 14.0871L108.002 8.06148C109.403 8.80965 110.792 9.58043 112.168 10.3738L107.445 15.006ZM74.7638 16.8739C77.6913 18.305 80.6237 19.726 83.5612 21.137C83.3051 21.5663 83.0641 21.9956 82.8457 22.44L69.7626 20.6022C71.4247 19.3218 73.1018 18.079 74.794 16.8739H74.7638ZM74.8844 35.6511L74.0935 36.0051L72.0147 36.9391L68.3993 38.566V32.0056C70.1075 33.9087 72.399 35.191 74.9145 35.6511H74.8844ZM81.3091 32.7588L78.1909 34.1523C78.1818 33.7301 78.0125 33.3271 77.7174 33.0251C77.4224 32.723 77.0235 32.5444 76.6016 32.5254C75.4178 32.4817 74.2578 32.1801 73.2027 31.6415C72.1476 31.1029 71.2229 30.3403 70.4932 29.4071C69.2728 27.7614 68.5583 25.7958 68.437 23.7506L81.6405 25.6035C81.0217 27.9384 80.9189 30.3801 81.3393 32.7588H81.3091ZM65.0702 39.6355C65.025 40.2381 64.6258 40.2607 64.0986 40.5017L62.8332 41.0666L52.9512 45.518C52.5897 43.3488 52.2507 41.1645 52.07 38.9803C51.979 38.4278 51.9512 37.8669 51.9871 37.3082C52.0775 36.811 52.65 36.3817 52.9814 36.0202C53.7798 35.1616 54.5857 34.3029 55.4067 33.4593C55.4248 33.4374 55.445 33.4172 55.4669 33.3991C55.3442 33.6288 55.2726 33.8824 55.257 34.1424C55.2414 34.4024 55.2822 34.6627 55.3765 34.9055C56.0092 36.5625 58.5776 35.7792 59.8053 35.4176C61.8432 34.8067 63.6694 33.6379 65.0777 32.0433V36.8412C65.1003 37.7827 65.1756 38.7091 65.1003 39.6355H65.0702ZM57.3725 32.5103C56.9706 32.5155 56.5727 32.592 56.1975 32.7363C59.0145 29.8641 61.9545 27.1274 65.0175 24.5264C64.4375 28.5183 61.613 32.1337 57.3725 32.5103Z" fill="#246A36"/>
<path d="M78.4019 68.9126C78.4608 68.9568 78.4608 68.9642 78.4019 68.9126V68.9126Z" fill="#616569"/>
</svg>
