<svg width="47" height="46" viewBox="0 0 47 46" fill="none" xmlns="http://www.w3.org/2000/svg">
<path d="M46.7626 16.608C46.2723 15.6905 45.4668 14.9761 44.7068 14.2861C43.8313 13.4912 43.0013 12.6507 42.1328 11.8347C40.2889 10.1297 38.3453 8.53572 36.3123 7.0613C35.878 6.74611 35.4403 6.44143 35.0025 6.13324C34.8724 6.01158 34.7249 5.91007 34.5648 5.83206C34.2145 5.59042 33.8643 5.35578 33.4931 5.13164C32.7927 4.67987 32.0923 4.2386 31.3708 3.81134C30.2922 3.16696 29.189 2.56109 28.0718 1.98324C27.1368 1.50346 26.2052 1.01316 25.2702 0.526367C24.7028 0.228688 24.0549 -0.0794963 23.4 0.0185626C22.7331 0.158527 22.0932 0.405713 21.5054 0.750502C20.1291 1.45092 18.7562 2.20738 17.4044 2.96384C16.0526 3.72029 14.6833 4.55379 13.37 5.41531C10.9133 7.03241 8.58246 8.83296 6.39731 10.8015C5.25562 11.8522 4.16296 12.9273 3.10533 14.048C2.53448 14.6539 1.96714 15.2632 1.42081 15.8866C1.01283 16.3235 0.723465 16.8576 0.580301 17.438C0.527921 17.7475 0.527921 18.0636 0.580301 18.3731C0.597811 18.8144 0.646843 19.2451 0.702877 19.6864C0.905999 21.211 1.16165 22.7286 1.46984 24.2391C2.69945 30.2263 4.78352 36.0055 7.65807 41.3994C8.00828 42.0719 8.37949 42.7373 8.75772 43.3992C8.8776 43.6776 9.04599 43.9326 9.25503 44.1521C9.51219 44.3034 9.80129 44.3922 10.099 44.4113C11.6236 44.7335 13.1587 45.0008 14.7043 45.2133C20.8169 46.0574 27.0177 46.0397 33.1254 45.1607C34.6733 44.9401 36.2493 44.7019 37.7727 44.3412C37.8914 44.3067 38.0013 44.2469 38.0949 44.1661C38.1869 44.0912 38.2641 43.9997 38.3225 43.8965C38.7007 43.2626 39.0615 42.6112 39.4117 41.9598C40.7112 39.5774 41.8587 37.1152 42.8472 34.5879C43.7908 32.1769 44.5895 29.7117 45.2392 27.2054C45.9451 24.2469 46.5014 21.2546 46.9062 18.24C47.022 17.6939 46.972 17.1256 46.7626 16.608ZM38.8338 14.6924C39.4072 15.3388 40.128 15.8373 40.9351 16.1458C41.4148 16.3272 41.9187 16.437 42.4305 16.4715C42.587 16.5079 42.7507 16.4993 42.9025 16.4466C43.0544 16.394 43.1882 16.2994 43.2885 16.1738C43.3614 16.0615 43.405 15.9327 43.4154 15.7993C43.4258 15.6658 43.4026 15.5318 43.3479 15.4096C43.2933 15.2874 43.2089 15.1808 43.1025 15.0996C42.996 15.0183 42.871 14.965 42.7387 14.9445C42.2146 14.9077 41.6995 14.7895 41.2118 14.5943C40.7865 14.3932 40.4028 14.1141 40.0806 13.7713C39.3929 13.0148 38.9711 12.0544 38.8793 11.0362C40.2101 12.1569 41.4884 13.3371 42.7492 14.5383C43.3165 15.0776 43.8804 15.6169 44.4372 16.1633L45.0676 16.7937C45.1551 16.8882 45.3933 17.0598 45.4178 17.1894C45.4123 17.3074 45.3959 17.4246 45.3688 17.5396C45.3477 17.7217 45.3302 17.9073 45.3092 18.0894C45.2707 18.4396 45.2322 18.7583 45.1901 19.091C45.1026 19.7915 45.001 20.4919 44.8925 21.1713L38.8338 18.4431V14.6924ZM22.9062 5.52387V5.94413C22.5362 5.98323 22.1689 6.04522 21.8066 6.12974C21.4003 5.09545 20.9929 4.0635 20.5843 3.03388C21.3513 2.64164 22.1253 2.27042 22.9062 1.9097V5.52387ZM19.5722 7.02628L17.3309 4.81295C17.9543 4.46274 18.5846 4.09151 19.222 3.76232C19.6038 4.72189 19.982 5.67796 20.3602 6.63754C20.0905 6.74611 19.8279 6.87919 19.5722 7.02628ZM25.4838 6.08071C25.1484 6.0112 24.8093 5.96092 24.4682 5.93012V1.94472C25.2176 2.28793 25.9601 2.64514 26.6955 3.01637C26.2939 4.03898 25.89 5.06043 25.4838 6.08071ZM44.4932 23.4687C44.2656 24.6104 44.0064 25.745 43.7228 26.8762L38.4241 24.4598C38.3174 24.4032 38.2075 24.3529 38.0949 24.3092C38.221 24.3477 37.9443 24.2426 37.8988 24.2777C37.9021 24.2556 37.9021 24.2332 37.8988 24.2111C37.8795 24.0155 37.8795 23.8184 37.8988 23.6228V22.3165C37.8988 21.8507 37.8497 21.5985 37.3839 21.3779C36.4804 20.9472 35.5628 20.5374 34.6488 20.1207L29.3221 17.6692L26.7025 16.4645C25.8235 16.0617 24.9515 15.5854 24.0444 15.2457C23.8192 15.1582 23.5693 15.1582 23.344 15.2457C22.9097 15.4068 22.4895 15.6345 22.0657 15.8271L19.3936 17.0423L14.1194 19.4447L11.3458 20.7195L10.0255 21.3219C9.75582 21.4445 9.47216 21.5565 9.38811 21.8682C9.3443 22.2405 9.3443 22.6166 9.38811 22.9889V23.8224C9.38811 23.938 9.44414 24.1971 9.38811 24.2987C9.43364 24.2181 8.98886 24.4107 8.93283 24.4352L8.13435 24.7855L6.61093 25.4859L3.66566 26.8272C3.31545 25.4754 2.96524 24.1061 2.75161 22.7262L19.18 15.3333L23.6907 13.3056C29.133 15.75 34.5741 18.2015 40.014 20.66L44.6438 22.7437C44.5878 22.9819 44.5423 23.2235 44.4932 23.4687ZM42.7422 30.2873C42.413 31.3169 42.0417 32.336 41.667 33.3446C40.9212 33.0774 40.2432 32.6494 39.6813 32.0909C39.157 31.6397 38.5522 31.2915 37.8988 31.0647V25.9166L43.3095 28.3681C43.1274 29.0172 42.9395 29.6569 42.7457 30.2873H42.7422ZM39.9685 36.2409C39.074 35.3789 37.921 34.835 36.687 34.6929C35.3627 34.5905 34.0492 34.9962 33.0133 35.8276C32.5698 36.2427 32.0905 36.6177 31.581 36.9483C31.0537 37.228 30.4653 37.3724 29.8684 37.3685C29.2692 37.3571 28.6825 37.1945 28.1629 36.8957C27.671 36.5546 27.2029 36.1801 26.7621 35.7751C25.8974 35.1071 24.8442 34.7286 23.7522 34.6934C22.6601 34.6582 21.5848 34.968 20.6789 35.5789C20.1781 35.9292 19.7824 36.3809 19.2781 36.7206C18.7783 37.0662 18.2008 37.2827 17.597 37.351C16.3608 37.4771 15.3627 36.9133 14.4802 36.1078C13.9433 35.609 13.3088 35.2269 12.6168 34.9858C11.9248 34.7447 11.1903 34.6497 10.4598 34.7069C9.78258 34.7685 9.12434 34.9637 8.52309 35.2813C7.96291 35.6135 7.4414 36.007 6.96815 36.4545C6.716 35.8801 6.47202 35.3046 6.23621 34.7279C6.75602 34.5458 7.24583 34.2873 7.68958 33.961C8.24642 33.5442 8.69119 33.0224 9.32157 32.7072C10.0022 32.3788 10.768 32.2698 11.5133 32.3952C12.2586 32.5207 12.9465 32.8745 13.4821 33.4076C14.3571 34.2771 15.4945 34.8335 16.718 34.9906C17.9808 35.1146 19.2452 34.772 20.2727 34.0275C20.7524 33.6773 21.1377 33.229 21.635 32.9139C22.1593 32.5739 22.7624 32.3749 23.386 32.336C23.9795 32.3074 24.5706 32.4278 25.1056 32.6862C25.6318 32.9836 26.1169 33.3486 26.5484 33.7719C27.4776 34.5532 28.6495 34.9871 29.8635 34.9992C31.0774 35.0114 32.2578 34.601 33.2024 33.8384C33.8468 33.3236 34.3651 32.7878 35.1776 32.5076C36.0167 32.2424 36.9246 32.2998 37.7236 32.6687C38.3855 32.9734 38.8408 33.4987 39.4082 33.933C39.922 34.3249 40.5021 34.6215 41.1207 34.8085C41.0752 34.9381 40.9701 35.1062 40.9316 35.2007C40.8545 35.3898 40.7775 35.5755 40.6969 35.7611C40.5779 36.0377 40.4553 36.3144 40.3467 36.5876C40.2148 36.4823 40.0896 36.3689 39.972 36.2479L39.9685 36.2409ZM37.1143 42.8949C29.4886 44.5419 21.6249 44.771 13.9163 43.5708C12.8816 43.4343 11.8551 43.2414 10.8415 42.9929C10.6241 42.9633 10.4133 42.897 10.2181 42.7968C10.0452 42.6048 9.90869 42.3829 9.81537 42.1419C9.55971 41.6936 9.31456 41.2384 9.07291 40.7831C9.53585 40.5017 10.0567 40.3293 10.5961 40.279C11.1355 40.2286 11.6793 40.3016 12.1863 40.4924C13.2194 40.8951 13.8778 41.8302 14.8479 42.345C15.728 42.8027 16.7208 42.9988 17.7088 42.91C18.6968 42.8213 19.6388 42.4514 20.4232 41.8442C20.8395 41.4694 21.2768 41.1186 21.733 40.7936C22.2171 40.4974 22.7643 40.3198 23.33 40.2753C24.5137 40.1877 25.4838 40.7341 26.3278 41.5115C27.0519 42.1935 27.9555 42.6546 28.9326 42.8407C29.9097 43.0268 30.9196 42.9302 31.8436 42.5622C32.3498 42.3549 32.822 42.0727 33.2445 41.7252C33.6869 41.2986 34.1783 40.926 34.7083 40.615C35.2681 40.3466 35.8882 40.229 36.5074 40.2738C37.1265 40.3186 37.7232 40.5244 38.2385 40.8706C37.8766 41.5477 37.503 42.2213 37.1178 42.8913L37.1143 42.8949ZM31.721 40.9127C31.2187 41.2076 30.6532 41.3781 30.0716 41.41C29.4764 41.4318 28.8852 41.3042 28.352 41.0387C27.8345 40.7303 27.3539 40.3637 26.9197 39.9461C26.118 39.2755 25.1328 38.862 24.0927 38.7596C23.0526 38.6571 22.0057 38.8705 21.0886 39.3717C20.038 39.9496 19.3551 40.9582 18.1644 41.2874C17.5959 41.4338 17.0003 41.4401 16.4288 41.3059C15.8573 41.1717 15.3269 40.901 14.8829 40.5169C14.4366 40.0957 13.9512 39.7181 13.433 39.3892C12.8997 39.0854 12.3161 38.8802 11.71 38.7834C10.5552 38.6084 9.37521 38.8293 8.36198 39.4103C8.10983 38.9106 7.86469 38.4063 7.62655 37.8973C8.10634 37.5471 8.50908 37.0919 9.02739 36.7767C9.55329 36.4437 10.1567 36.253 10.7784 36.2233C11.3863 36.1998 11.9898 36.335 12.5295 36.6156C13.0444 36.9362 13.5254 37.3082 13.9654 37.7257C14.816 38.4202 15.8643 38.8281 16.9606 38.891C18.0569 38.9539 19.1451 38.6686 20.0695 38.076C20.5913 37.7257 20.9976 37.26 21.5054 36.9062C22.0157 36.5438 22.6099 36.3172 23.2319 36.2479C23.8294 36.1853 24.4329 36.2795 24.983 36.521C25.5587 36.8201 26.0864 37.2037 26.5484 37.6592C27.3835 38.3705 28.4218 38.8001 29.5153 38.8869C30.6088 38.9737 31.7018 38.7132 32.6386 38.1425C33.1919 37.7923 33.6157 37.316 34.141 36.9378C34.7038 36.5291 35.3699 36.2865 36.0637 36.2373C36.7478 36.2017 37.4277 36.3646 38.0213 36.7066C38.6412 37.0568 39.114 37.6032 39.6953 38.0164C39.4619 38.5184 39.2179 39.0169 38.9634 39.5118C38.0588 38.9598 37.0071 38.6976 35.9493 38.7602C34.8914 38.8227 33.878 39.2072 33.0448 39.862C32.6292 40.2408 32.1881 40.5907 31.7245 40.9092L31.721 40.9127ZM9.3741 31.0332C8.71978 31.2438 8.11133 31.5765 7.58102 32.0138C6.96115 32.5216 6.44283 33.0224 5.68287 33.2921C5.07117 31.6578 4.53068 30.0083 4.0614 28.3436L9.3741 25.9201V31.0332ZM10.922 25.1427V22.6912C10.915 22.6377 10.915 22.5836 10.922 22.5301L10.9816 22.5931L11.1111 22.5336C11.2225 22.4911 11.3313 22.442 11.4368 22.3865L12.582 21.8612V31.0928C12.0471 30.9111 11.4869 30.8154 10.922 30.8091V25.1427ZM14.13 21.0942C14.165 21.0277 14.1054 21.1258 14.158 21.0942C14.1195 21.1223 14.3156 21.0627 14.3191 21.0627C14.4088 21.0281 14.4965 20.9883 14.5817 20.9437L15.6324 20.4674L17.5095 19.6093V33.4707C16.9674 33.4927 16.4266 33.4012 15.9219 33.2022C15.4171 33.0032 14.9595 32.701 14.5782 32.315C14.4908 32.2234 14.3972 32.138 14.2981 32.0593C14.2455 32.0278 14.1019 31.9403 14.1335 31.9928C14.1335 31.9753 14.1335 31.9368 14.1335 31.9158C14.121 31.7993 14.121 31.6819 14.1335 31.5655V22.1204C14.1002 21.7967 14.1002 21.4704 14.1335 21.1468C14.1335 21.1468 14.1265 21.1047 14.1335 21.0907L14.13 21.0942ZM28.3275 18.9685V22.6457H24.4752V17.1404L28.3275 18.9124V18.9685ZM28.3275 33.0749C27.9725 32.8853 27.644 32.6498 27.3504 32.3745C26.8088 31.8179 26.152 31.3865 25.426 31.1106C24.7 30.8347 23.9225 30.7211 23.1479 30.7776C22.3791 30.8481 21.6354 31.0873 20.9696 31.478C20.2691 31.8877 19.7543 32.5076 19.0749 32.9279V24.2216H28.3275V33.103V33.0749ZM19.0574 18.8844L22.9097 17.1334V22.6527H19.0574V18.8844ZM29.8859 19.5113C29.8719 19.4868 29.907 19.5008 29.8859 19.5218V19.5113ZM31.4059 20.3168C31.9859 20.5445 32.5529 20.804 33.1044 21.0942C33.1221 21.1076 33.1423 21.1171 33.1639 21.1223C33.1639 21.1503 33.1639 21.1783 33.1639 21.1993V31.6006C33.1677 31.6717 33.1677 31.743 33.1639 31.8142C33.1639 31.8142 33.1464 31.8142 33.1219 31.8387C32.9573 32.0033 32.7717 32.1364 32.5896 32.294C31.8682 33.021 30.8924 33.4392 29.8684 33.4602V19.6899C29.8671 19.6677 29.8671 19.6455 29.8684 19.6234L31.4059 20.3168ZM34.7083 31.0262V21.8437L35.78 22.334L36.1057 22.4846L36.2318 22.5441C36.2843 22.5896 36.3263 22.5791 36.3543 22.5091C36.3613 22.5637 36.3613 22.619 36.3543 22.6737V30.7916C35.7961 30.7853 35.2405 30.8681 34.7083 31.0367V31.0262ZM15.9581 5.62193L18.294 7.93333C18.0664 8.12997 17.8512 8.34049 17.6496 8.5637L14.0809 6.83366C14.7066 6.42509 15.3323 6.02467 15.9581 5.63244V5.62193ZM21.5019 7.81425C22.8492 7.33763 24.3144 7.30889 25.6793 7.73232C27.0443 8.15575 28.236 9.0087 29.077 10.1642C30.0202 11.4499 30.478 13.0279 30.3692 14.6188L24.0304 11.7681H24.0024C23.4876 11.6386 23.1479 11.8662 22.6751 12.0798L20.7629 12.9378L17.0787 14.5978C16.9898 13.1434 17.3721 11.699 18.1688 10.4789C18.9656 9.25884 20.1344 8.3281 21.5019 7.82476V7.81425ZM31.3778 5.61843C32.0292 6.01767 32.6713 6.42742 33.304 6.84767L29.8019 8.54969C29.7248 8.45514 29.6163 8.36759 29.5637 8.31155C29.4132 8.16096 29.2556 8.02087 29.098 7.88079L31.3778 5.61843ZM31.0591 10.4373C31.0101 10.3393 30.9576 10.2412 30.905 10.1467C30.8525 10.0521 30.751 9.93303 30.6879 9.83147L34.7749 7.85277C35.5804 8.41661 36.3683 9.01197 37.1458 9.60383L31.0591 10.4373ZM37.2999 14.6749V17.7392L35.6189 16.9828L34.6523 16.545L34.2811 16.3804C35.4474 16.1655 36.5092 15.5693 37.2999 14.6854V14.6749ZM31.8296 15.2948C31.9145 14.8718 31.9509 14.4406 31.9382 14.0095C31.9052 13.2976 31.7877 12.5923 31.588 11.9082L37.2228 11.1518C37.1571 11.7892 36.9545 12.405 36.6287 12.9569C36.3028 13.5087 35.8616 13.9837 35.3352 14.3492C34.7529 14.6975 34.0938 14.8971 33.4161 14.9305C33.2244 14.9472 33.046 15.0353 32.9163 15.1774C32.7865 15.3195 32.7149 15.5051 32.7156 15.6975C32.4425 15.5819 32.1413 15.4313 31.8296 15.2948ZM27.7952 6.97725C27.5186 6.81883 27.2333 6.67619 26.9407 6.54999L28.0543 3.7483C28.7057 4.09618 29.3513 4.45457 29.991 4.82345L27.7952 6.97725ZM12.5995 7.84577C13.9607 8.51117 15.3242 9.1719 16.69 9.82796C16.5709 10.0276 16.4589 10.2272 16.3573 10.4338L10.2741 9.57931C11.0469 8.98396 11.8267 8.40611 12.6135 7.84577H12.5995ZM12.6556 16.5765L12.2879 16.7411L11.3213 17.1754L9.64026 17.9318V14.8815C10.4345 15.7664 11.5 16.3626 12.6696 16.5765H12.6556ZM15.6429 15.2317L14.193 15.8796C14.1888 15.6833 14.1101 15.496 13.9729 15.3555C13.8357 15.215 13.6502 15.132 13.454 15.1232C12.9036 15.1029 12.3643 14.9626 11.8737 14.7122C11.3831 14.4617 10.9531 14.1072 10.6138 13.6733C10.0464 12.9081 9.71418 11.9942 9.65777 11.0432L15.797 11.9047C15.5092 12.9904 15.4614 14.1257 15.6569 15.2317H15.6429ZM8.09232 18.4291C8.07131 18.7093 7.8857 18.7198 7.64055 18.8319L7.0522 19.0945L2.45744 21.1643C2.28933 20.1557 2.13173 19.1401 2.04768 18.1245C2.00537 17.8676 1.99245 17.6068 2.00917 17.347C2.05119 17.1158 2.31735 16.9162 2.47145 16.7481C2.84267 16.3489 3.2174 15.9496 3.59913 15.5574C3.60756 15.5472 3.61694 15.5378 3.62714 15.5294C3.57008 15.6362 3.53679 15.7541 3.52954 15.875C3.52229 15.9959 3.54124 16.1169 3.58511 16.2298C3.87929 17.0003 5.07351 16.6361 5.64436 16.468C6.59187 16.1839 7.44102 15.6404 8.09583 14.899V17.1299C8.10634 17.5676 8.14136 17.9984 8.10634 18.4291H8.09232ZM4.51317 15.1161C4.32628 15.1186 4.1413 15.1541 3.96684 15.2212C5.27663 13.8857 6.64362 12.6133 8.06781 11.4039C7.79814 13.26 6.48486 14.941 4.51317 15.1161Z" fill="#246A36"/>
<path d="M14.291 32.042C14.319 32.063 14.319 32.0665 14.291 32.042V32.042Z" fill="#2C2A2A"/>
</svg>
