<svg width="50" height="50" viewBox="0 0 50 50" fill="none" xmlns="http://www.w3.org/2000/svg">
<path d="M25.5 35C31.0228 35 35.5 30.5228 35.5 25C35.5 19.4772 31.0228 15 25.5 15C19.9772 15 15.5 19.4772 15.5 25C15.5 30.5228 19.9772 35 25.5 35Z" stroke="#C19B5C" stroke-width="2" stroke-linecap="square"/>
<path d="M24.3562 26.4794V27.3097H27.4898V28.7157H24.3562V29.9209H22.535V28.7157H21.5977V27.3097H22.535V26.4794H21.5977V24.9394H22.535V20.2793H26.2042C26.4899 20.2793 26.7577 20.2972 27.0077 20.3329C27.5656 20.4132 28.0299 20.5985 28.4004 20.8886C28.7753 21.1787 29.0521 21.5448 29.2306 21.9867C29.4092 22.4241 29.4984 22.9129 29.4984 23.453C29.4984 24.2877 29.2886 24.964 28.8691 25.4818C28.4539 25.9951 27.8335 26.3098 27.0077 26.4258C26.7577 26.4615 26.4899 26.4794 26.2042 26.4794H24.3562ZM24.3562 24.9394H26.1239C26.356 24.9394 26.5613 24.9126 26.7399 24.8591C27.3559 24.6761 27.6638 24.2252 27.6638 23.5066C27.6638 23.1718 27.5924 22.8683 27.4496 22.596C27.3112 22.3192 27.0746 22.1362 26.7399 22.0469C26.5792 22.0023 26.3738 21.98 26.1239 21.98H24.3562V24.9394Z" fill="#C19B5C"/>
</svg>
