<svg width="40" height="40" viewBox="0 0 40 40" fill="none" xmlns="http://www.w3.org/2000/svg">
<circle cx="20" cy="20" r="19.5" stroke="#C19B5C"/>
<path d="M18.0137 15H16.4286C15.6396 15 15 15.6396 15 16.4286V17.8571C15 21.802 18.198 25 22.1429 25H23.5714C24.3604 25 25 24.3604 25 23.5714V22.5843C25 22.3138 24.8471 22.0664 24.6052 21.9454L22.8795 21.0826C22.4907 20.8882 22.0199 21.0832 21.8824 21.4956L21.6697 22.1337C21.532 22.547 21.108 22.793 20.6808 22.7076C18.9709 22.3656 17.6344 21.0291 17.2924 19.3192C17.207 18.892 17.453 18.468 17.8663 18.3303L18.6582 18.0663C19.0123 17.9483 19.2158 17.5775 19.1253 17.2154L18.7067 15.541C18.6272 15.2231 18.3415 15 18.0137 15Z" stroke="white"/>
</svg>
