<svg width="1151" height="333" viewBox="0 0 1151 333" fill="none" xmlns="http://www.w3.org/2000/svg">
<path d="M2.97969 226C1.64635 226 0.713021 224.8 0.179687 222.4C0.179687 218.933 6.71302 205.867 19.7797 183.2C42.4464 141.867 62.4464 109.867 79.7797 87.2C100.58 58.9333 112.18 44.5333 114.58 44C115.113 44 115.646 44.4 116.18 45.2C116.98 46 117.38 46.6667 117.38 47.2C117.38 48 113.513 53.7333 105.78 64.4L100.98 70.8L105.78 66C115.38 55.0667 125.38 45.4667 135.78 37.2C142.446 32.1333 150.046 26.9333 158.58 21.6C174.846 12 188.98 5.86665 200.98 3.19998C207.646 1.59999 213.78 1.33333 219.38 2.39999C229.513 4.53332 234.18 10.9333 233.38 21.6C232.846 37.3333 223.113 57.7333 204.18 82.8C198.846 89.7333 190.18 99.7333 178.18 112.8C162.446 128.267 146.846 140.667 131.38 150C115.913 158.8 101.913 163.6 89.3797 164.4C85.6464 164.933 82.0464 164.933 78.5797 164.4C73.513 163.333 69.6464 161.6 66.9797 159.2C62.4464 155.467 59.6464 148.8 58.5797 139.2L57.7797 132.8L53.3797 139.2L28.5797 179.2C12.8464 204.8 5.37969 218.267 6.17969 219.6L6.97969 219.2C7.77969 218.4 8.71302 218.667 9.77969 220C10.0464 220.533 9.51302 221.467 8.17969 222.8C6.31302 225.467 4.57969 226.533 2.97969 226ZM83.7797 159.6C95.7797 159.333 109.646 154.533 125.38 145.2C149.113 131.333 172.18 110.667 194.58 83.2C216.98 55.7333 228.58 33.8667 229.38 17.6C229.38 13.6 228.713 10.9333 227.38 9.6C226.046 7.73332 222.98 6.53332 218.18 6C209.913 4.93333 198.98 7.06666 185.38 12.4C172.046 17.7333 158.446 25.3333 144.58 35.2C133.113 43.4666 120.313 55.2 106.18 70.4C89.113 89.6 74.4464 108 62.1797 125.6L59.3797 130L60.5797 132.4C60.8464 133.467 61.513 136.667 62.5797 142C63.6464 150.267 65.913 155.333 69.3797 157.2C73.3797 159.067 78.1797 159.867 83.7797 159.6ZM196.027 175.6C194.16 174.533 193.227 172.533 193.227 169.6C193.227 166.667 193.76 163.867 194.827 161.2L195.627 159.2L193.227 160.4C191.893 161.467 190.693 162.267 189.627 162.8C189.093 163.067 188.16 163.6 186.827 164.4C185.493 165.2 184.427 165.867 183.627 166.4C181.76 167.467 180.027 167.467 178.427 166.4C177.093 165.067 176.827 163.2 177.627 160.8C178.693 158.133 181.493 154.933 186.027 151.2C190.827 147.467 195.093 145.067 198.827 144C202.027 143.2 204.293 143.867 205.627 146C206.16 146.8 206.56 147.067 206.827 146.8C208.16 146.267 209.093 146.533 209.627 147.6L209.227 148C208.96 148.533 208.693 149.067 208.427 149.6C208.16 149.867 207.893 150.267 207.627 150.8C202.293 156.133 198.827 160.933 197.227 165.2C195.893 169.467 196.027 172.267 197.627 173.6C200.027 175.2 205.493 174.267 214.027 170.8C222.827 167.333 233.76 160.667 246.827 150.8C251.36 147.333 253.493 146.4 253.227 148C252.96 149.067 249.227 152.133 242.027 157.2C235.093 162.267 228.96 166.267 223.627 169.2C220.16 171.067 216.693 172.667 213.227 174C209.76 175.333 206.427 176.267 203.227 176.8C200.293 177.067 197.893 176.667 196.027 175.6ZM185.227 160C183.893 161.6 183.36 162.4 183.627 162.4C183.893 162.4 186.16 161.2 190.427 158.8C199.493 153.733 204.027 149.867 204.027 147.2C203.493 145.6 201.36 146.133 197.627 148.8C193.093 151.733 188.96 155.467 185.227 160ZM165.783 286C161.783 286.8 158.449 286.267 155.783 284.4C153.383 282.267 151.783 279.333 150.983 275.6C150.183 269.733 151.249 263.467 154.183 256.8C158.449 247.2 165.383 237.733 174.983 228.4C184.583 218.8 195.516 210.8 207.783 204.4C216.316 200.133 224.716 196.667 232.983 194C245.516 189.467 252.449 186.533 253.783 185.2C254.316 184.667 254.716 183.067 254.983 180.4C255.516 177.733 255.649 175.733 255.383 174.4C254.049 171.2 251.249 170 246.983 170.8C244.583 170.8 242.583 171.6 240.983 173.2C240.716 173.467 240.316 173.6 239.783 173.6C239.516 173.333 239.383 173.067 239.383 172.8C239.116 172.533 239.249 172.133 239.783 171.6C240.583 170.8 241.649 170.133 242.983 169.6C244.849 168.533 246.583 167.467 248.183 166.4C250.583 164.533 254.983 159.733 261.383 152C268.049 144.267 271.383 140 271.383 139.2C270.849 139.2 270.183 139.2 269.383 139.2C268.849 139.2 266.849 140.267 263.383 142.4C260.183 144.267 255.783 147.2 250.183 151.2C249.116 151.733 248.449 151.733 248.183 151.2C248.183 150.4 248.716 149.6 249.783 148.8C254.316 145.333 257.516 143.067 259.383 142C268.716 136.133 273.383 135.6 273.383 140.4C273.383 141.2 272.183 143.467 269.783 147.2C264.449 154.4 258.316 160.933 251.383 166.8L249.783 168.4L251.383 168.8C256.716 170.667 259.116 174.8 258.583 181.2V183.6L266.583 179.6C271.116 176.933 279.249 171.867 290.983 164.4L314.583 147.6L315.783 147.2C316.583 147.2 316.983 147.6 316.983 148.4L316.583 148.8L309.783 154L305.783 156.8L284.983 170.8C278.049 175.6 268.983 180.933 257.783 186.8L256.583 190.8C253.916 197.467 248.316 206.533 239.783 218C226.183 236.933 212.583 252.667 198.983 265.2C185.116 278 174.049 284.933 165.783 286ZM163.783 284C168.583 283.2 174.983 280 182.983 274.4C189.916 269.067 196.716 262.667 203.383 255.2C206.049 252.267 212.183 244.933 221.783 233.2L229.783 222.8L239.783 209.2C248.583 196.4 252.983 189.6 252.983 188.8L234.183 195.6C225.116 198.533 215.783 202.667 206.183 208C191.516 216.267 178.849 226.667 168.183 239.2C162.583 245.867 158.449 252.667 155.783 259.6C152.849 266.8 151.916 272.8 152.983 277.6C154.583 282.933 158.183 285.067 163.783 284ZM331.873 174.4C325.473 176.267 321.207 175.467 319.073 172C317.473 168.8 319.073 164 323.873 157.6C325.473 155.467 326.14 154.4 325.873 154.4C324.807 154.933 322.673 155.2 319.473 155.2L313.873 155.6L307.873 162C302.273 168.4 299.607 172.133 299.873 173.2C300.14 174 299.873 174.4 299.073 174.4L298.273 173.6C297.74 173.333 297.34 173.067 297.073 172.8C296.54 172 296.407 170.933 296.673 169.6L299.473 164.4C301.073 162.267 305.073 157.733 311.473 150.8C318.14 143.6 322.54 138.933 324.673 136.8C327.607 134.4 329.473 133.6 330.273 134.4C332.14 135.733 329.34 140.267 321.873 148L315.473 154L319.873 153.6C324.94 153.333 328.54 152.267 330.673 150.4C336.273 145.067 339.873 143.2 341.473 144.8C342.807 145.867 342.14 147.467 339.473 149.6C336.54 152 333.207 155.2 329.473 159.2C326.007 162.933 323.74 165.733 322.673 167.6C321.34 171.6 322.14 173.6 325.073 173.6C328.273 173.6 331.74 172.667 335.473 170.8C342.407 168.133 352.673 162 366.273 152.4L373.873 147.2C374.407 146.933 374.807 146.933 375.073 147.2C375.34 147.467 375.34 147.867 375.073 148.4C374.273 149.467 367.873 154.133 355.873 162.4C346.54 169.067 338.54 173.067 331.873 174.4ZM363.667 166.4C362.601 165.067 362.601 163.067 363.667 160.4C364.467 157.733 367.134 153.867 371.667 148.8C374.067 146.133 376.334 144 378.467 142.4L382.467 140C383.801 140 384.467 139.6 384.467 138.8C384.467 138.533 385.134 138.4 386.467 138.4C388.334 138.933 389.401 139.6 389.667 140.4C389.134 140.933 388.734 141.067 388.467 140.8C387.934 141.067 387.534 141.6 387.267 142.4L386.467 146C385.934 149.2 386.467 151.6 388.067 153.2C396.067 160.4 406.734 158.933 420.067 148.8L422.867 147.2C423.934 146.667 424.601 146.933 424.867 148L420.067 151.6C415.801 154.8 410.867 157.067 405.267 158.4C399.667 159.733 394.334 159.067 389.267 156.4C387.667 155.067 386.467 153.867 385.667 152.8C385.134 151.733 384.734 151.467 384.467 152C382.601 155.733 380.067 159.2 376.867 162.4C370.734 168.267 366.334 169.6 363.667 166.4ZM366.067 166C367.134 167.333 370.201 165.467 375.267 160.4C379.001 157.2 381.667 153.2 383.267 148.4C383.801 146.8 384.067 145.6 384.067 144.8L383.667 143.2L379.667 147.2C374.867 151.467 371.134 155.6 368.467 159.6C366.601 163.067 365.801 165.2 366.067 166ZM412.495 166.4C411.429 165.067 411.429 163.067 412.495 160.4C413.295 157.733 415.962 153.867 420.495 148.8C422.895 146.133 425.162 144 427.295 142.4L431.295 140C432.629 140 433.295 139.6 433.295 138.8C433.295 138.533 433.962 138.4 435.295 138.4C437.162 138.933 438.229 139.6 438.495 140.4C437.962 140.933 437.562 141.067 437.295 140.8C436.762 141.067 436.362 141.6 436.095 142.4L435.295 146C434.762 149.2 435.295 151.6 436.895 153.2C444.895 160.4 455.562 158.933 468.895 148.8L471.695 147.2C472.762 146.667 473.429 146.933 473.695 148L468.895 151.6C464.629 154.8 459.695 157.067 454.095 158.4C448.495 159.733 443.162 159.067 438.095 156.4C436.495 155.067 435.295 153.867 434.495 152.8C433.962 151.733 433.562 151.467 433.295 152C431.429 155.733 428.895 159.2 425.695 162.4C419.562 168.267 415.162 169.6 412.495 166.4ZM414.895 166C415.962 167.333 419.029 165.467 424.095 160.4C427.829 157.2 430.495 153.2 432.095 148.4C432.629 146.8 432.895 145.6 432.895 144.8L432.495 143.2L428.495 147.2C423.695 151.467 419.962 155.6 417.295 159.6C415.429 163.067 414.629 165.2 414.895 166ZM453.723 172.4C452.657 170.8 452.657 168.667 453.723 166C454.523 163.333 457.323 159.333 462.123 154C464.523 151.067 466.923 148.933 469.323 147.6L473.323 144.8C474.657 144.8 475.323 144.4 475.323 143.6C475.323 143.333 475.99 143.2 477.323 143.2C478.39 143.2 479.457 143.467 480.523 144L482.923 140C489.857 126.933 494.257 116.133 496.123 107.6C499.323 93.7333 500.657 81.6 500.123 71.2C499.857 69.3333 499.323 68.4 498.523 68.4C496.123 68.4 488.523 70.9333 475.723 76C475.457 76 475.057 76.1333 474.523 76.4L472.523 77.2L473.323 77.6C474.923 78.4 474.39 79.2 471.723 80C471.19 80 470.657 80.1333 470.123 80.4C467.457 81.2 465.723 81.2 464.923 80.4C463.857 79.8667 463.323 79.2 463.323 78.4C463.323 76.2667 467.59 73.6 476.123 70.4C493.723 62.9333 516.923 57.3333 545.723 53.6C564.39 51.4667 578.123 50.8 586.923 51.6C597.057 52.6667 602.123 55.3333 602.123 59.6C601.857 61.4667 600.39 63.3333 597.723 65.2C596.657 66 595.59 66 594.523 65.2L593.323 64.4L595.723 61.6C597.323 60 598.123 58.9333 598.123 58.4C597.857 56 588.79 55.2 570.923 56C548.79 57.6 528.657 60.6667 510.523 65.2L501.723 67.2L502.123 74.8C502.123 83.6 501.59 91.6 500.523 98.8C498.39 110.8 496.79 118.267 495.723 121.2C493.057 128.4 489.857 135.2 486.123 141.6C478.657 154.933 472.39 163.733 467.323 168C461.19 173.867 456.657 175.333 453.723 172.4ZM456.523 171.6C457.857 172.4 460.923 170.4 465.723 165.6C470.523 160.533 473.19 156.667 473.723 154C474.79 152.4 475.057 150.933 474.523 149.6V148.4L470.523 152.4C465.99 156.133 462.123 160.4 458.923 165.2C456.79 168.4 455.99 170.533 456.523 171.6ZM415.802 287.2C415.535 287.733 414.868 287.467 413.802 286.4L412.602 286L416.202 280.4L454.602 217.6C486.868 166.4 510.602 131.333 525.802 112.4C527.668 110.267 529.002 109.333 529.802 109.6C530.602 109.6 531.002 109.733 531.002 110C531.002 111.333 526.202 118.933 516.602 132.8L507.002 146.4L507.802 147.6L508.602 149.2L515.802 145.2C522.735 141.733 527.802 139.733 531.002 139.2C533.668 139.2 535.268 140 535.802 141.6C536.868 144.267 534.468 149.467 528.602 157.2L523.402 163.2C533.535 167.2 545.935 165.067 560.602 156.8C565.135 154.133 569.802 151.067 574.602 147.6C575.135 147.067 575.535 146.933 575.802 147.2C576.335 147.467 576.468 147.867 576.202 148.4L574.202 150.4C568.335 154.933 563.402 158.133 559.402 160C545.535 167.2 532.735 168.933 521.002 165.2L517.402 169.2C507.802 178.267 501.268 179.733 497.802 173.6C496.468 170.933 496.468 167.467 497.802 163.2L498.202 161.2C497.668 162 494.468 166.533 488.602 174.8C475.002 193.467 459.668 217.067 442.602 245.6C426.602 271.467 417.668 285.333 415.802 287.2ZM519.402 161.6C519.668 161.6 520.335 160.933 521.402 159.6C522.735 158.267 524.202 156.667 525.802 154.8C527.402 152.667 528.602 150.933 529.402 149.6C531.002 147.467 532.068 145.6 532.602 144C533.135 142.667 533.268 141.867 533.002 141.6C532.202 140.8 527.802 142.267 519.802 146C513.402 149.467 510.202 151.867 510.202 153.2C510.202 154 511.268 155.6 513.402 158C515.802 160.4 517.802 161.6 519.402 161.6ZM501.402 174.8C503.535 175.333 506.068 174.4 509.002 172C509.802 171.467 510.868 170.533 512.202 169.2C513.802 167.867 515.135 166.667 516.202 165.6L517.402 163.6C513.935 161.733 510.868 158.8 508.202 154.8C507.935 154 507.135 154.133 505.802 155.2C504.468 156.267 503.135 158.267 501.802 161.2C498.868 169.467 498.735 174 501.402 174.8ZM578.839 175.6C576.972 174.533 576.039 172.533 576.039 169.6C576.039 166.667 576.572 163.867 577.639 161.2L578.439 159.2L576.039 160.4C574.706 161.467 573.506 162.267 572.439 162.8C571.906 163.067 570.972 163.6 569.639 164.4C568.306 165.2 567.239 165.867 566.439 166.4C564.572 167.467 562.839 167.467 561.239 166.4C559.906 165.067 559.639 163.2 560.439 160.8C561.506 158.133 564.306 154.933 568.839 151.2C573.639 147.467 577.906 145.067 581.639 144C584.839 143.2 587.106 143.867 588.439 146C588.972 146.8 589.372 147.067 589.639 146.8C590.972 146.267 591.906 146.533 592.439 147.6L592.039 148C591.772 148.533 591.506 149.067 591.239 149.6C590.972 149.867 590.706 150.267 590.439 150.8C585.106 156.133 581.639 160.933 580.039 165.2C578.706 169.467 578.839 172.267 580.439 173.6C582.839 175.2 588.306 174.267 596.839 170.8C605.639 167.333 616.572 160.667 629.639 150.8C634.172 147.333 636.306 146.4 636.039 148C635.772 149.067 632.039 152.133 624.839 157.2C617.906 162.267 611.772 166.267 606.439 169.2C602.972 171.067 599.506 172.667 596.039 174C592.572 175.333 589.239 176.267 586.039 176.8C583.106 177.067 580.706 176.667 578.839 175.6ZM568.039 160C566.706 161.6 566.172 162.4 566.439 162.4C566.706 162.4 568.972 161.2 573.239 158.8C582.306 153.733 586.839 149.867 586.839 147.2C586.306 145.6 584.172 146.133 580.439 148.8C575.906 151.733 571.772 155.467 568.039 160ZM548.595 286C544.595 286.8 541.262 286.267 538.595 284.4C536.195 282.267 534.595 279.333 533.795 275.6C532.995 269.733 534.062 263.467 536.995 256.8C541.262 247.2 548.195 237.733 557.795 228.4C567.395 218.8 578.329 210.8 590.595 204.4C599.129 200.133 607.529 196.667 615.795 194C628.329 189.467 635.262 186.533 636.595 185.2C637.129 184.667 637.529 183.067 637.795 180.4C638.329 177.733 638.462 175.733 638.195 174.4C636.862 171.2 634.062 170 629.795 170.8C627.395 170.8 625.395 171.6 623.795 173.2C623.529 173.467 623.129 173.6 622.595 173.6C622.329 173.333 622.195 173.067 622.195 172.8C621.929 172.533 622.062 172.133 622.595 171.6C623.395 170.8 624.462 170.133 625.795 169.6C627.662 168.533 629.395 167.467 630.995 166.4C633.395 164.533 637.795 159.733 644.195 152C650.862 144.267 654.195 140 654.195 139.2C653.662 139.2 652.995 139.2 652.195 139.2C651.662 139.2 649.662 140.267 646.195 142.4C642.995 144.267 638.595 147.2 632.995 151.2C631.929 151.733 631.262 151.733 630.995 151.2C630.995 150.4 631.529 149.6 632.595 148.8C637.129 145.333 640.329 143.067 642.195 142C651.529 136.133 656.195 135.6 656.195 140.4C656.195 141.2 654.995 143.467 652.595 147.2C647.262 154.4 641.129 160.933 634.195 166.8L632.595 168.4L634.195 168.8C639.529 170.667 641.929 174.8 641.395 181.2V183.6L649.395 179.6C653.929 176.933 662.062 171.867 673.795 164.4L697.395 147.6L698.595 147.2C699.395 147.2 699.795 147.6 699.795 148.4L699.395 148.8L692.595 154L688.595 156.8L667.795 170.8C660.862 175.6 651.795 180.933 640.595 186.8L639.395 190.8C636.729 197.467 631.129 206.533 622.595 218C608.995 236.933 595.395 252.667 581.795 265.2C567.929 278 556.862 284.933 548.595 286ZM546.595 284C551.395 283.2 557.795 280 565.795 274.4C572.729 269.067 579.529 262.667 586.195 255.2C588.862 252.267 594.995 244.933 604.595 233.2L612.595 222.8L622.595 209.2C631.395 196.4 635.795 189.6 635.795 188.8L616.995 195.6C607.929 198.533 598.595 202.667 588.995 208C574.329 216.267 561.662 226.667 550.995 239.2C545.395 245.867 541.262 252.667 538.595 259.6C535.662 266.8 534.729 272.8 535.795 277.6C537.395 282.933 540.995 285.067 546.595 284ZM714.686 174.4C708.286 176.267 704.019 175.467 701.886 172C700.286 168.8 701.886 164 706.686 157.6C708.286 155.467 708.953 154.4 708.686 154.4C707.619 154.933 705.486 155.2 702.286 155.2L696.686 155.6L690.686 162C685.086 168.4 682.419 172.133 682.686 173.2C682.953 174 682.686 174.4 681.886 174.4L681.086 173.6C680.553 173.333 680.153 173.067 679.886 172.8C679.353 172 679.219 170.933 679.486 169.6L682.286 164.4C683.886 162.267 687.886 157.733 694.286 150.8C700.953 143.6 705.353 138.933 707.486 136.8C710.419 134.4 712.286 133.6 713.086 134.4C714.953 135.733 712.153 140.267 704.686 148L698.286 154L702.686 153.6C707.753 153.333 711.353 152.267 713.486 150.4C719.086 145.067 722.686 143.2 724.286 144.8C725.619 145.867 724.953 147.467 722.286 149.6C719.353 152 716.019 155.2 712.286 159.2C708.819 162.933 706.553 165.733 705.486 167.6C704.153 171.6 704.953 173.6 707.886 173.6C711.086 173.6 714.553 172.667 718.286 170.8C725.219 168.133 735.486 162 749.086 152.4L756.686 147.2C757.219 146.933 757.619 146.933 757.886 147.2C758.153 147.467 758.153 147.867 757.886 148.4C757.086 149.467 750.686 154.133 738.686 162.4C729.353 169.067 721.353 173.067 714.686 174.4ZM746.48 166.4C745.413 165.067 745.413 163.067 746.48 160.4C747.28 157.733 749.946 153.867 754.48 148.8C756.88 146.133 759.146 144 761.28 142.4L765.28 140C766.613 140 767.28 139.6 767.28 138.8C767.28 138.533 767.946 138.4 769.28 138.4C771.146 138.933 772.213 139.6 772.48 140.4C771.946 140.933 771.546 141.067 771.28 140.8C770.746 141.067 770.346 141.6 770.08 142.4L769.28 146C768.746 149.2 769.28 151.6 770.88 153.2C778.88 160.4 789.546 158.933 802.88 148.8L805.68 147.2C806.746 146.667 807.413 146.933 807.68 148L802.88 151.6C798.613 154.8 793.68 157.067 788.08 158.4C782.48 159.733 777.146 159.067 772.08 156.4C770.48 155.067 769.28 153.867 768.48 152.8C767.946 151.733 767.546 151.467 767.28 152C765.413 155.733 762.88 159.2 759.68 162.4C753.546 168.267 749.146 169.6 746.48 166.4ZM748.88 166C749.946 167.333 753.013 165.467 758.08 160.4C761.813 157.2 764.48 153.2 766.08 148.4C766.613 146.8 766.88 145.6 766.88 144.8L766.48 143.2L762.48 147.2C757.68 151.467 753.946 155.6 751.28 159.6C749.413 163.067 748.613 165.2 748.88 166ZM802.508 174C810.241 176.133 819.574 174 830.508 167.6C841.441 161.2 846.508 155.333 845.708 150C845.708 149.733 845.841 149.6 846.108 149.6C848.508 149.6 848.774 151.467 846.908 155.2L844.908 158.4C835.041 169.6 823.308 175.467 809.708 176C799.041 176.533 793.308 173.333 792.508 166.4C792.241 163.2 793.441 159.333 796.108 154.8C798.774 150.267 803.041 146.667 808.908 144C811.574 142.933 813.574 142.8 814.908 143.6C816.508 144.133 817.041 145.467 816.508 147.6C816.241 149.467 814.908 151.333 812.508 153.2C808.774 155.867 804.908 157.467 800.908 158C799.841 158 798.908 158.667 798.108 160C796.508 162.667 796.108 165.467 796.908 168.4C797.708 171.333 799.574 173.2 802.508 174ZM801.308 155.6C803.174 155.6 805.841 154.533 809.308 152.4C811.708 150.8 813.308 149.067 814.108 147.2C814.374 146.4 814.108 146 813.308 146L808.908 148.4C803.574 152.4 801.041 154.8 801.308 155.6ZM944.386 181.2C940.386 182.8 937.453 182.667 935.586 180.8C931.853 177.067 933.586 169.733 940.786 158.8L943.586 154.8L936.786 159.2C930.919 162.667 927.319 163.733 925.986 162.4C925.986 162.133 925.719 161.733 925.186 161.2L924.786 160.4C924.786 158.533 926.253 155.467 929.186 151.2L930.786 148.8C930.253 148.8 928.653 150 925.986 152.4C914.253 161.2 907.186 165.867 904.786 166.4C903.453 166.667 902.386 166.4 901.586 165.6C899.186 164 898.786 161.6 900.386 158.4C901.453 156.533 903.586 154 906.786 150.8C909.986 147.6 911.853 146 912.386 146C913.453 146 914.253 146.667 914.786 148L913.186 149.6C912.119 150.933 910.919 152.267 909.586 153.6C908.253 154.933 907.453 156 907.186 156.8C906.119 158.133 905.053 159.867 903.986 162L903.186 164L904.786 163.6C907.186 162.8 913.053 159.067 922.386 152.4C931.986 145.467 939.186 139.733 943.986 135.2L948.386 131.2C949.453 130.133 950.519 130.133 951.586 131.2C952.119 132 949.053 136.133 942.386 143.6C931.186 155.6 926.653 161.6 928.786 161.6C929.853 161.333 933.319 159.2 939.186 155.2C945.053 151.2 949.186 148.133 951.586 146C959.586 138.533 964.119 134.8 965.186 134.8C965.719 134.533 966.253 134.8 966.786 135.6C967.586 136.133 967.853 136.8 967.586 137.6C967.586 138.4 963.986 142.133 956.786 148.8L948.786 156.8C941.319 165.333 937.319 172.533 936.786 178.4V180.4L939.186 180C943.986 179.467 952.119 175.067 963.586 166.8C977.186 156.667 985.319 150.667 987.986 148.8L990.386 147.2C991.453 146.933 992.119 147.2 992.386 148C991.319 149.067 989.719 150.4 987.586 152C985.719 153.333 984.653 154.133 984.386 154.4L961.586 171.6C954.119 176.667 948.386 179.867 944.386 181.2ZM979.273 169.2C975.807 165.733 976.073 161.2 980.073 155.6C983.007 150.533 987.273 146.8 992.873 144.4C996.073 143.067 998.34 143.067 999.673 144.4C1000.74 145.2 1000.87 146.533 1000.07 148.4C999.54 150.267 998.34 151.867 996.473 153.2C992.74 155.867 988.873 157.467 984.873 158C983.807 158 982.873 158.667 982.073 160C978.873 165.6 980.34 168.8 986.473 169.6C998.473 169.6 1013.41 163.333 1031.27 150.8L1036.07 147.6C1036.34 147.333 1036.74 147.333 1037.27 147.6C1037.81 147.867 1037.94 148.267 1037.67 148.8C1027.81 156.8 1016.61 163.2 1004.07 168C991.54 172.8 983.273 173.2 979.273 169.2ZM985.273 155.6C987.14 155.6 989.807 154.533 993.273 152.4C995.673 150.8 997.273 149.067 998.073 147.2C998.34 146.4 998.073 146 997.273 146L992.873 148.4C987.54 152.4 985.007 154.8 985.273 155.6ZM1053.75 174.4C1047.35 176.267 1043.08 175.467 1040.95 172C1039.35 168.8 1040.95 164 1045.75 157.6C1047.35 155.467 1048.02 154.4 1047.75 154.4C1046.68 154.933 1044.55 155.2 1041.35 155.2L1035.75 155.6L1029.75 162C1024.15 168.4 1021.48 172.133 1021.75 173.2C1022.02 174 1021.75 174.4 1020.95 174.4L1020.15 173.6C1019.62 173.333 1019.22 173.067 1018.95 172.8C1018.42 172 1018.28 170.933 1018.55 169.6L1021.35 164.4C1022.95 162.267 1026.95 157.733 1033.35 150.8C1040.02 143.6 1044.42 138.933 1046.55 136.8C1049.48 134.4 1051.35 133.6 1052.15 134.4C1054.02 135.733 1051.22 140.267 1043.75 148L1037.35 154L1041.75 153.6C1046.82 153.333 1050.42 152.267 1052.55 150.4C1058.15 145.067 1061.75 143.2 1063.35 144.8C1064.68 145.867 1064.02 147.467 1061.35 149.6C1058.42 152 1055.08 155.2 1051.35 159.2C1047.88 162.933 1045.62 165.733 1044.55 167.6C1043.22 171.6 1044.02 173.6 1046.95 173.6C1050.15 173.6 1053.62 172.667 1057.35 170.8C1064.28 168.133 1074.55 162 1088.15 152.4L1095.75 147.2C1096.28 146.933 1096.68 146.933 1096.95 147.2C1097.22 147.467 1097.22 147.867 1096.95 148.4C1096.15 149.467 1089.75 154.133 1077.75 162.4C1068.42 169.067 1060.42 173.067 1053.75 174.4ZM1147.94 149.6C1148.74 148.8 1149.41 148.667 1149.94 149.2C1150.48 149.733 1150.34 150.4 1149.54 151.2C1145.81 153.867 1142.74 155.867 1140.34 157.2C1138.21 158.533 1135.41 159.867 1131.94 161.2C1128.74 162.533 1125.68 162.933 1122.74 162.4C1119.81 161.867 1117.14 160.267 1114.74 157.6C1109.14 164.533 1103.94 168 1099.14 168C1097.28 168 1095.94 167.6 1095.14 166.8C1094.61 165.733 1094.48 164.533 1094.74 163.2C1095.01 161.6 1095.54 160.133 1096.34 158.8C1097.14 157.2 1097.94 155.867 1098.74 154.8H1092.34C1085.14 162.533 1081.54 166.8 1081.54 167.6C1081.54 168.4 1081.01 168.8 1079.94 168.8C1078.61 169.333 1077.94 168.8 1077.94 167.2C1077.94 165.067 1080.34 161.867 1085.14 157.6L1086.34 156C1086.34 155.733 1085.54 155.6 1083.94 155.6C1081.54 155.6 1080.34 155.2 1080.34 154.4C1080.34 153.867 1082.08 153.467 1085.54 153.2L1089.14 152.8L1093.14 148.8C1097.41 145.067 1101.01 142.133 1103.94 140C1105.54 138.933 1106.61 138.4 1107.14 138.4C1108.21 138.4 1108.74 139.067 1108.74 140.4L1106.34 142.4C1105.01 143.733 1103.14 145.467 1100.74 147.6C1098.61 149.467 1096.88 150.933 1095.54 152L1094.74 152.8C1095.81 153.067 1096.88 153.2 1097.94 153.2H1101.14C1108.34 146 1113.54 143.2 1116.74 144.8C1119.14 145.6 1119.14 148.667 1116.74 154C1116.48 154.8 1116.74 155.867 1117.54 157.2C1118.61 158.533 1119.94 159.333 1121.54 159.6C1128.21 161.2 1137.01 157.867 1147.94 149.6ZM1115.94 147.6C1115.14 147.333 1111.94 149.467 1106.34 154C1104.74 155.6 1103.14 157.2 1101.54 158.8C1100.21 160.4 1099.14 161.733 1098.34 162.8C1097.81 163.867 1097.68 164.533 1097.94 164.8C1099.28 167.733 1103.41 165.733 1110.34 158.8C1115.94 152.133 1117.81 148.4 1115.94 147.6ZM82.0938 322C69.5604 323.333 61.0271 319.467 56.4938 310.4C52.2271 301.067 53.4271 290.133 60.0938 277.6C68.6271 262.133 81.1604 251.867 97.6938 246.8C100.36 246 104.094 245.6 108.894 245.6H115.694L114.894 244C113.827 241.6 113.96 238.133 115.294 233.6L116.094 230.8L114.094 230C109.827 228.4 107.027 225.6 105.694 221.6C104.36 217.6 104.894 214.267 107.294 211.6C108.627 209.733 109.827 209.333 110.894 210.4C111.16 210.4 111.027 210.667 110.494 211.2C109.427 212.267 108.76 213.2 108.494 214C106.36 219.6 107.294 223.867 111.294 226.8C114.494 229.2 116.36 230 116.894 229.2C118.494 225.733 122.894 221.867 130.094 217.6C134.094 215.2 138.494 213.6 143.294 212.8C148.36 211.733 152.094 211.733 154.494 212.8C157.16 214.133 158.494 216 158.494 218.4C158.494 221.6 154.494 224.8 146.494 228C139.294 230.667 133.16 232 128.094 232H121.294L119.694 235.2C118.627 237.067 118.094 239.333 118.094 242C118.094 244.133 118.494 245.733 119.294 246.8C120.36 248.4 120.76 249.2 120.494 249.2C119.427 249.2 118.494 249.067 117.694 248.8C110.494 246.133 101.027 248.133 89.2938 254.8C78.6271 260.667 70.3604 268.667 64.4938 278.8C58.6271 288.933 56.6271 298.133 58.4938 306.4C60.0938 314.133 64.6271 318.4 72.0938 319.2C76.8938 319.733 81.8271 319.333 86.8938 318C97.8271 315.067 109.694 308.267 122.494 297.6C130.494 290.667 137.827 281.867 144.494 271.2C146.094 268.533 147.827 265.333 149.694 261.6C151.827 257.867 153.56 254.8 154.894 252.4C156.227 249.733 156.76 248.267 156.494 248C155.694 247.2 148.76 249.867 135.694 256C128.76 259.2 123.16 264.267 118.894 271.2L116.894 275.2C117.427 275.733 117.427 276 116.894 276C114.227 276 114.227 273.333 116.894 268C117.694 266.133 118.894 264.4 120.494 262.8C124.494 258.267 133.16 253.6 146.494 248.8C151.827 246.933 155.027 245.733 156.094 245.2C157.427 244.4 157.96 243.733 157.694 243.2C157.427 242.667 157.427 242.4 157.694 242.4C157.96 242.4 158.627 242.533 159.694 242.8C161.027 243.333 165.427 241.6 172.894 237.6C187.294 230.133 194.494 225.467 194.494 223.6C194.494 223.067 194.76 222.933 195.294 223.2C198.227 224.8 192.894 229.2 179.294 236.4C176.894 237.733 174.36 239.067 171.694 240.4C164.494 243.867 160.894 246 160.894 246.8C160.894 250 157.56 257.733 150.894 270C146.36 278.533 140.227 286.667 132.494 294.4C127.96 298.933 123.56 302.8 119.294 306C106.494 315.6 94.0938 320.933 82.0938 322ZM122.894 230C122.894 230.267 124.76 230.267 128.494 230C132.227 229.733 135.427 229.333 138.094 228.8C144.76 227.467 150.094 224.8 154.094 220.8C155.96 218.667 156.36 217.067 155.294 216C154.76 215.467 153.694 215.2 152.094 215.2C145.96 215.2 138.627 218 130.094 223.6C125.294 226.8 122.894 228.933 122.894 230ZM228.197 326.8C223.13 330.533 218.597 332.4 214.597 332.4C210.864 332.133 208.864 329.867 208.597 325.6C208.597 324.267 208.064 323.067 206.997 322C206.197 321.467 205.797 320.533 205.797 319.2C206.064 314.667 213.664 302.4 228.597 282.4L236.997 271.2C238.597 269.067 241.264 265.867 244.997 261.6C254.33 249.867 264.997 238.667 276.997 228C284.997 221.067 292.064 216 298.197 212.8C299.53 212 300.997 212.133 302.597 213.2C303.664 214 303.664 215.067 302.597 216.4C301.53 217.733 298.197 221.333 292.597 227.2C277.397 241.867 265.797 252.267 257.797 258.4C251.13 263.467 246.064 268.133 242.597 272.4L230.597 287.6C226.597 292.667 224.597 295.867 224.597 297.2L224.997 299.2L227.797 297.2C233.93 292.4 239.264 290.267 243.797 290.8C248.864 291.333 250.997 293.867 250.197 298.4C249.664 301.6 248.064 305.2 245.397 309.2L243.797 311.6C251.797 311.6 266.197 303.6 286.997 287.6C288.064 286.8 288.864 286.933 289.397 288C285.13 292.267 277.264 298 265.797 305.2C262.597 307.067 258.73 308.933 254.197 310.8C250.464 312.4 247.53 313.333 245.397 313.6L241.797 314L238.997 317.2C234.197 322 230.597 325.2 228.197 326.8ZM258.197 254.8L261.797 252C270.597 245.6 280.864 236 292.597 223.2L295.797 219.6C294.997 219.6 290.197 223.6 281.397 231.6C274.997 237.2 268.73 243.333 262.597 250L258.197 254.8ZM233.397 310.4C235.53 311.467 236.73 312 236.997 312C237.53 311.733 238.33 310.8 239.397 309.2C244.464 303.067 246.73 298.267 246.197 294.8C245.664 294 244.997 293.6 244.197 293.6C243.13 293.6 240.197 294.667 235.397 296.8C229.264 300 226.197 302.133 226.197 303.2C226.997 306.4 229.397 308.8 233.397 310.4ZM219.397 303.6C219.664 303.867 220.33 303.467 221.397 302.4C222.464 301.333 222.997 300.667 222.997 300.4L222.597 299.2C222.33 298.933 222.064 298.933 221.797 299.2C221.53 299.467 221.13 300.133 220.597 301.2L219.397 303.6ZM212.597 329.2C214.197 331.333 218.33 329.733 224.997 324.4C231.13 319.333 234.73 315.733 235.797 313.6C234.997 313.6 233.13 312.667 230.197 310.8C227.264 308.667 225.264 306.533 224.197 304.4L220.997 307.2C217.797 310.133 215.397 313.2 213.797 316.4C210.597 322.533 210.197 326.8 212.597 329.2ZM317.563 311.2C303.696 319.467 294.629 321.467 290.363 317.2C286.096 312.933 289.163 305.333 299.563 294.4L299.963 294C301.296 292.133 301.829 291.2 301.563 291.2C298.363 292.267 294.496 293.067 289.963 293.6L285.963 294L286.363 296C286.896 297.867 286.096 300.4 283.963 303.6C281.829 306.8 279.563 307.867 277.163 306.8C274.496 305.733 275.163 302 279.163 295.6C282.096 290.8 287.696 284.667 295.963 277.2C296.763 276.4 297.696 276.267 298.763 276.8C300.896 277.6 300.363 279.6 297.163 282.8L287.563 292.4L292.363 292C299.029 291.467 304.229 289.6 307.963 286.4C313.296 281.6 317.563 278.4 320.763 276.8C323.163 276 324.496 276.133 324.763 277.2C325.029 277.467 324.629 278.133 323.563 279.2C322.496 280.267 320.496 281.867 317.563 284C304.229 294.133 295.829 303.333 292.363 311.6C291.029 314.8 291.296 316.533 293.163 316.8C295.563 316.267 297.029 316.267 297.563 316.8C298.096 317.333 299.829 316.933 302.763 315.6C305.696 314 307.696 313.067 308.763 312.8C309.829 312.533 311.963 311.467 315.163 309.6C318.629 307.467 320.896 306.133 321.963 305.6C323.296 304.8 325.563 303.333 328.763 301.2C332.229 298.8 334.496 297.2 335.563 296.4C336.896 295.6 339.163 294.133 342.363 292C345.563 289.6 347.563 288.133 348.363 287.6C349.163 287.6 349.696 288.133 349.963 289.2C340.896 296.133 330.096 303.467 317.563 311.2ZM279.163 304.8C279.696 304.8 280.629 304.133 281.963 302.8C283.296 301.467 284.096 300.267 284.363 299.2C284.629 298.4 284.762 297.467 284.762 296.4C284.762 296.133 284.096 296.667 282.763 298C281.696 299.067 280.629 300.4 279.563 302C278.496 303.6 277.963 304.533 277.963 304.8H279.163ZM340.463 310.4C337.529 308 336.596 304.933 337.663 301.2C338.996 297.467 341.663 293.467 345.663 289.2C349.929 284.933 354.196 281.867 358.463 280C360.863 278.933 362.996 278.667 364.863 279.2C366.729 279.467 367.663 280.267 367.663 281.6C367.663 283.733 366.063 286.533 362.863 290C358.863 293.467 356.196 295.2 354.863 295.2C352.996 295.2 353.263 294.4 355.663 292.8C358.596 290.933 361.129 288.8 363.263 286.4C365.396 283.733 366.063 282 365.263 281.2C364.463 280.4 361.929 281.467 357.663 284.4C352.063 287.867 347.529 292.133 344.063 297.2C340.863 302 339.929 305.6 341.263 308C342.329 310.4 346.329 311.2 353.263 310.4C360.196 309.6 367.663 307.333 375.663 303.6C382.863 300.133 389.929 295.867 396.863 290.8C397.663 290.267 398.729 289.6 400.063 288.8L402.063 287.2C402.863 287.2 403.396 287.6 403.663 288.4L401.663 290C397.663 293.2 392.063 296.933 384.863 301.2L376.063 305.6C359.263 313.867 347.396 315.467 340.463 310.4ZM391.597 306.4C390.53 305.067 390.53 303.067 391.597 300.4C392.397 297.733 395.064 293.867 399.597 288.8C401.997 286.133 404.264 284 406.397 282.4L410.397 280C411.73 280 412.397 279.6 412.397 278.8C412.397 278.533 413.064 278.4 414.397 278.4C416.264 278.933 417.33 279.6 417.597 280.4C417.064 280.933 416.664 281.067 416.397 280.8C415.864 281.067 415.464 281.6 415.197 282.4L414.397 286C413.864 289.2 414.397 291.6 415.997 293.2C423.997 300.4 434.664 298.933 447.997 288.8L450.797 287.2C451.864 286.667 452.53 286.933 452.797 288L447.997 291.6C443.73 294.8 438.797 297.067 433.197 298.4C427.597 299.733 422.264 299.067 417.197 296.4C415.597 295.067 414.397 293.867 413.597 292.8C413.064 291.733 412.664 291.467 412.397 292C410.53 295.733 407.997 299.2 404.797 302.4C398.664 308.267 394.264 309.6 391.597 306.4ZM393.997 306C395.064 307.333 398.13 305.467 403.197 300.4C406.93 297.2 409.597 293.2 411.197 288.4C411.73 286.8 411.997 285.6 411.997 284.8L411.597 283.2L407.597 287.2C402.797 291.467 399.064 295.6 396.397 299.6C394.53 303.067 393.73 305.2 393.997 306ZM462.425 314C456.825 312.133 455.892 305.2 459.625 293.2L460.425 290C459.892 289.467 458.158 290.4 455.225 292.8C453.092 294.4 450.292 296.933 446.825 300.4C443.358 303.6 441.358 305.733 440.825 306.8C440.025 308.133 439.625 309.067 439.625 309.6C439.625 310.667 439.092 310.667 438.025 309.6C435.892 307.467 438.958 300.8 447.225 289.6C450.958 284.533 454.692 280.4 458.425 277.2C460.558 275.333 462.158 275.067 463.225 276.4C464.025 277.467 462.692 279.867 459.225 283.6C455.758 286.8 453.092 289.867 451.225 292.8C451.758 292.533 452.292 292.133 452.825 291.6C463.225 282.8 473.625 276.533 484.025 272.8C486.958 271.733 489.225 271.6 490.825 272.4C492.425 273.2 493.092 274.667 492.825 276.8C492.558 278.4 490.958 281.333 488.025 285.6C485.358 289.6 483.092 292.4 481.225 294C479.358 295.867 478.025 296.4 477.225 295.6C476.958 295.333 477.358 294.8 478.425 294C479.758 292.933 482.425 289.6 486.425 284C489.092 279.2 490.425 276.267 490.425 275.2C490.425 272.8 485.092 274.4 474.425 280C474.158 280.267 473.758 280.533 473.225 280.8C466.558 284.533 462.692 286.933 461.625 288C461.625 288.533 461.758 288.933 462.025 289.2C462.825 290 462.558 292.267 461.225 296C460.692 298.133 460.425 300.8 460.425 304C460.158 309.6 461.892 312.4 465.625 312.4C470.958 312.4 479.092 308.667 490.025 301.2C492.158 299.867 496.158 296.8 502.025 292L507.625 288L508.825 287.2C509.358 286.933 509.758 286.933 510.025 287.2V288.8L506.825 291.2C493.758 301.333 484.025 308 477.625 311.2C471.225 314.4 466.158 315.333 462.425 314ZM498.238 306.4C497.171 305.067 497.171 303.067 498.238 300.4C499.038 297.733 501.704 293.867 506.238 288.8C508.638 286.133 510.904 284 513.038 282.4L517.038 280C518.371 280 519.038 279.6 519.038 278.8C519.038 278.533 519.704 278.4 521.038 278.4C522.904 278.933 523.971 279.6 524.238 280.4C523.704 280.933 523.304 281.067 523.038 280.8C522.504 281.067 522.104 281.6 521.838 282.4L521.038 286C520.504 289.2 521.038 291.6 522.638 293.2C530.638 300.4 541.304 298.933 554.638 288.8L557.438 287.2C558.504 286.667 559.171 286.933 559.438 288L554.638 291.6C550.371 294.8 545.438 297.067 539.838 298.4C534.238 299.733 528.904 299.067 523.838 296.4C522.238 295.067 521.038 293.867 520.238 292.8C519.704 291.733 519.304 291.467 519.038 292C517.171 295.733 514.638 299.2 511.438 302.4C505.304 308.267 500.904 309.6 498.238 306.4ZM500.638 306C501.704 307.333 504.771 305.467 509.838 300.4C513.571 297.2 516.238 293.2 517.838 288.4C518.371 286.8 518.638 285.6 518.638 284.8L518.238 283.2L514.238 287.2C509.438 291.467 505.704 295.6 503.038 299.6C501.171 303.067 500.371 305.2 500.638 306ZM554.266 314C561.999 316.133 571.332 314 582.266 307.6C593.199 301.2 598.266 295.333 597.466 290C597.466 289.733 597.599 289.6 597.866 289.6C600.266 289.6 600.532 291.467 598.666 295.2L596.666 298.4C586.799 309.6 575.066 315.467 561.466 316C550.799 316.533 545.066 313.333 544.266 306.4C543.999 303.2 545.199 299.333 547.866 294.8C550.532 290.267 554.799 286.667 560.666 284C563.332 282.933 565.332 282.8 566.666 283.6C568.266 284.133 568.799 285.467 568.266 287.6C567.999 289.467 566.666 291.333 564.266 293.2C560.532 295.867 556.666 297.467 552.666 298C551.599 298 550.666 298.667 549.866 300C548.266 302.667 547.866 305.467 548.666 308.4C549.466 311.333 551.332 313.2 554.266 314ZM553.066 295.6C554.932 295.6 557.599 294.533 561.066 292.4C563.466 290.8 565.066 289.067 565.866 287.2C566.132 286.4 565.866 286 565.066 286L560.666 288.4C555.332 292.4 552.799 294.8 553.066 295.6ZM674.144 314C668.544 312.133 667.61 305.2 671.344 293.2L672.144 290C671.61 289.467 669.877 290.4 666.944 292.8C664.81 294.4 662.01 296.933 658.544 300.4C655.077 303.6 653.077 305.733 652.544 306.8C651.744 308.133 651.344 309.067 651.344 309.6C651.344 310.667 650.81 310.667 649.744 309.6C647.61 307.467 650.677 300.8 658.944 289.6C662.677 284.533 666.41 280.4 670.144 277.2C672.277 275.333 673.877 275.067 674.944 276.4C675.744 277.467 674.41 279.867 670.944 283.6C667.477 286.8 664.81 289.867 662.944 292.8C663.477 292.533 664.01 292.133 664.544 291.6C674.944 282.8 685.344 276.533 695.744 272.8C698.677 271.733 700.944 271.6 702.544 272.4C704.144 273.2 704.81 274.667 704.544 276.8C704.277 278.4 702.677 281.333 699.744 285.6C697.077 289.6 694.81 292.4 692.944 294C691.077 295.867 689.744 296.4 688.944 295.6C688.677 295.333 689.077 294.8 690.144 294C691.477 292.933 694.144 289.6 698.144 284C700.81 279.2 702.144 276.267 702.144 275.2C702.144 272.8 696.81 274.4 686.144 280C685.877 280.267 685.477 280.533 684.944 280.8C678.277 284.533 674.41 286.933 673.344 288C673.344 288.533 673.477 288.933 673.744 289.2C674.544 290 674.277 292.267 672.944 296C672.41 298.133 672.144 300.8 672.144 304C671.877 309.6 673.61 312.4 677.344 312.4C682.677 312.4 690.81 308.667 701.744 301.2C703.877 299.867 707.877 296.8 713.744 292L719.344 288L720.544 287.2C721.077 286.933 721.477 286.933 721.744 287.2V288.8L718.544 291.2C705.477 301.333 695.744 308 689.344 311.2C682.944 314.4 677.877 315.333 674.144 314ZM723.956 315.6C722.09 314.533 721.156 312.533 721.156 309.6C721.156 306.667 721.69 303.867 722.756 301.2L723.556 299.2L721.156 300.4C719.823 301.467 718.623 302.267 717.556 302.8C717.023 303.067 716.09 303.6 714.756 304.4C713.423 305.2 712.356 305.867 711.556 306.4C709.69 307.467 707.956 307.467 706.356 306.4C705.023 305.067 704.756 303.2 705.556 300.8C706.623 298.133 709.423 294.933 713.956 291.2C718.756 287.467 723.023 285.067 726.756 284C729.956 283.2 732.223 283.867 733.556 286C734.09 286.8 734.49 287.067 734.756 286.8C736.09 286.267 737.023 286.533 737.556 287.6L737.156 288C736.89 288.533 736.623 289.067 736.356 289.6C736.09 289.867 735.823 290.267 735.556 290.8C730.223 296.133 726.756 300.933 725.156 305.2C723.823 309.467 723.956 312.267 725.556 313.6C727.956 315.2 733.423 314.267 741.956 310.8C750.756 307.333 761.69 300.667 774.756 290.8C779.29 287.333 781.423 286.4 781.156 288C780.89 289.067 777.156 292.133 769.956 297.2C763.023 302.267 756.89 306.267 751.556 309.2C748.09 311.067 744.623 312.667 741.156 314C737.69 315.333 734.356 316.267 731.156 316.8C728.223 317.067 725.823 316.667 723.956 315.6ZM713.156 300C711.823 301.6 711.29 302.4 711.556 302.4C711.823 302.4 714.09 301.2 718.356 298.8C727.423 293.733 731.956 289.867 731.956 287.2C731.423 285.6 729.29 286.133 725.556 288.8C721.023 291.733 716.89 295.467 713.156 300ZM806.913 308.8C819.713 300.8 829.179 294.533 835.313 290L836.913 288.8C837.713 288.267 838.379 288.267 838.913 288.8C839.446 289.333 839.446 289.733 838.913 290C822.379 302.533 809.313 311.2 799.713 316C790.379 320.8 783.713 321.2 779.713 317.2C775.979 314 776.913 309.067 782.513 302.4C783.846 300.533 785.979 298.133 788.913 295.2L789.313 294.8L786.513 296.4C780.113 299.333 776.113 300 774.513 298.4C772.646 295.467 773.313 292.133 776.513 288.4C777.846 286.8 779.979 284.8 782.913 282.4C786.113 279.733 788.113 278.267 788.913 278C789.979 277.733 790.913 278.267 791.712 279.6C792.246 280.667 790.646 282.667 786.913 285.6C785.046 287.2 783.313 288.8 781.713 290.4C780.113 292 778.913 293.467 778.113 294.8C777.313 295.867 777.046 296.533 777.313 296.8C778.379 297.867 782.913 296.133 790.913 291.6C794.913 289.467 798.113 287.2 800.513 284.8C803.446 282.667 805.179 282 805.713 282.8C807.046 284.133 805.446 286.533 800.913 290L788.513 302.8C782.646 308.667 780.246 312.933 781.313 315.6C782.913 318 786.379 318.4 791.712 316.8C797.046 314.933 802.113 312.267 806.913 308.8ZM828.297 309.2C824.83 305.733 825.097 301.2 829.097 295.6C832.03 290.533 836.297 286.8 841.897 284.4C845.097 283.067 847.364 283.067 848.697 284.4C849.764 285.2 849.897 286.533 849.097 288.4C848.564 290.267 847.364 291.867 845.497 293.2C841.764 295.867 837.897 297.467 833.897 298C832.83 298 831.897 298.667 831.097 300C827.897 305.6 829.364 308.8 835.497 309.6C847.497 309.6 862.43 303.333 880.297 290.8L885.097 287.6C885.364 287.333 885.764 287.333 886.297 287.6C886.83 287.867 886.964 288.267 886.697 288.8C876.83 296.8 865.63 303.2 853.097 308C840.564 312.8 832.297 313.2 828.297 309.2ZM834.297 295.6C836.164 295.6 838.83 294.533 842.297 292.4C844.697 290.8 846.297 289.067 847.097 287.2C847.364 286.4 847.097 286 846.297 286L841.897 288.4C836.564 292.4 834.03 294.8 834.297 295.6ZM877.572 310.4C874.639 308 873.705 304.933 874.772 301.2C876.105 297.467 878.772 293.467 882.772 289.2C887.039 284.933 891.305 281.867 895.572 280C897.972 278.933 900.105 278.667 901.972 279.2C903.839 279.467 904.772 280.267 904.772 281.6C904.772 283.733 903.172 286.533 899.972 290C895.972 293.467 893.305 295.2 891.972 295.2C890.105 295.2 890.372 294.4 892.772 292.8C895.705 290.933 898.239 288.8 900.372 286.4C902.505 283.733 903.172 282 902.372 281.2C901.572 280.4 899.039 281.467 894.772 284.4C889.172 287.867 884.639 292.133 881.172 297.2C877.972 302 877.039 305.6 878.372 308C879.439 310.4 883.439 311.2 890.372 310.4C897.305 309.6 904.772 307.333 912.772 303.6C919.972 300.133 927.039 295.867 933.972 290.8C934.772 290.267 935.839 289.6 937.172 288.8L939.172 287.2C939.972 287.2 940.505 287.6 940.772 288.4L938.772 290C934.772 293.2 929.172 296.933 921.972 301.2L913.172 305.6C896.372 313.867 884.505 315.467 877.572 310.4ZM986.706 314.8C990.973 315.6 1003.91 307.6 1025.51 290.8C1028.44 288.4 1030.57 286.933 1031.91 286.4C1032.44 286.133 1032.84 286.267 1033.11 286.8C1033.37 287.067 1033.37 287.333 1033.11 287.6C1032.57 288.133 1030.31 290 1026.31 293.2C1024.17 294.8 1021.51 296.8 1018.31 299.2C1015.37 301.333 1012.97 303.067 1011.11 304.4C1009.51 305.733 1007.51 307.2 1005.11 308.8C1002.97 310.4 1001.24 311.6 999.906 312.4C998.573 313.2 996.973 314.133 995.106 315.2C993.506 316 992.173 316.533 991.106 316.8C990.04 316.8 988.84 316.933 987.506 317.2C986.173 317.2 984.973 316.933 983.906 316.4C983.106 315.867 982.173 315.067 981.106 314C978.44 311.333 977.64 306.8 978.706 300.4C978.973 299.6 979.373 298.4 979.906 296.8C980.44 295.2 980.706 294.133 980.706 293.6C980.973 292.8 980.973 292.133 980.706 291.6C978.573 293.2 976.44 294.933 974.306 296.8C966.04 303.733 961.906 308.4 961.906 310.8C961.906 311.333 961.64 311.6 961.106 311.6C959.506 311.6 958.973 310.933 959.506 309.6C960.04 308 963.506 302.267 969.906 292.4C975.773 283.333 978.973 277.867 979.506 276C979.773 274.667 979.64 273.867 979.106 273.6C978.573 273.333 977.373 273.467 975.506 274C965.373 276.133 953.373 282.933 939.506 294.4C938.173 295.467 936.173 297.333 933.506 300C931.106 302.4 928.84 304.667 926.706 306.8C924.84 308.667 923.906 309.733 923.906 310L923.506 310.8C923.24 311.067 922.84 311.067 922.306 310.8C921.506 310.267 921.106 309.867 921.106 309.6C921.106 308 925.506 302 934.306 291.6C937.506 287.867 940.173 284.933 942.306 282.8C944.973 280.133 946.84 279.067 947.906 279.6C948.173 279.867 948.306 280.267 948.306 280.8C948.306 282.133 946.573 284.533 943.106 288L942.306 288.8C942.84 288.533 944.173 287.6 946.306 286C958.04 276.4 968.173 271.6 976.706 271.6C979.106 271.6 980.973 272.133 982.306 273.2C983.64 274 984.173 275.333 983.906 277.2C983.64 279.333 981.64 282.933 977.906 288C976.573 289.6 975.373 291.2 974.306 292.8L973.906 293.2C974.44 292.933 974.84 292.667 975.106 292.4C977.773 290.533 979.64 289.6 980.706 289.6C981.506 289.6 982.04 289.733 982.306 290C982.84 290.267 983.106 290.667 983.106 291.2C983.106 291.733 983.106 292.267 983.106 292.8C983.106 293.067 982.84 293.733 982.306 294.8C982.04 295.6 981.906 296.267 981.906 296.8C979.24 308 980.84 314 986.706 314.8ZM1031.71 326.8C1026.65 330.533 1022.11 332.4 1018.11 332.4C1014.38 332.133 1012.38 329.867 1012.11 325.6C1012.11 324.267 1011.58 323.067 1010.51 322C1009.71 321.467 1009.31 320.533 1009.31 319.2C1009.58 314.667 1017.18 302.4 1032.11 282.4L1040.51 271.2C1042.11 269.067 1044.78 265.867 1048.51 261.6C1057.85 249.867 1068.51 238.667 1080.51 228C1088.51 221.067 1095.58 216 1101.71 212.8C1103.05 212 1104.51 212.133 1106.11 213.2C1107.18 214 1107.18 215.067 1106.11 216.4C1105.05 217.733 1101.71 221.333 1096.11 227.2C1080.91 241.867 1069.31 252.267 1061.31 258.4C1054.65 263.467 1049.58 268.133 1046.11 272.4L1034.11 287.6C1030.11 292.667 1028.11 295.867 1028.11 297.2L1028.51 299.2L1031.31 297.2C1037.45 292.4 1042.78 290.267 1047.31 290.8C1052.38 291.333 1054.51 293.867 1053.71 298.4C1053.18 301.6 1051.58 305.2 1048.91 309.2L1047.31 311.6C1055.31 311.6 1069.71 303.6 1090.51 287.6C1091.58 286.8 1092.38 286.933 1092.91 288C1088.65 292.267 1080.78 298 1069.31 305.2C1066.11 307.067 1062.25 308.933 1057.71 310.8C1053.98 312.4 1051.05 313.333 1048.91 313.6L1045.31 314L1042.51 317.2C1037.71 322 1034.11 325.2 1031.71 326.8ZM1061.71 254.8L1065.31 252C1074.11 245.6 1084.38 236 1096.11 223.2L1099.31 219.6C1098.51 219.6 1093.71 223.6 1084.91 231.6C1078.51 237.2 1072.25 243.333 1066.11 250L1061.71 254.8ZM1036.91 310.4C1039.05 311.467 1040.25 312 1040.51 312C1041.05 311.733 1041.85 310.8 1042.91 309.2C1047.98 303.067 1050.25 298.267 1049.71 294.8C1049.18 294 1048.51 293.6 1047.71 293.6C1046.65 293.6 1043.71 294.667 1038.91 296.8C1032.78 300 1029.71 302.133 1029.71 303.2C1030.51 306.4 1032.91 308.8 1036.91 310.4ZM1022.91 303.6C1023.18 303.867 1023.85 303.467 1024.91 302.4C1025.98 301.333 1026.51 300.667 1026.51 300.4L1026.11 299.2C1025.85 298.933 1025.58 298.933 1025.31 299.2C1025.05 299.467 1024.65 300.133 1024.11 301.2L1022.91 303.6ZM1016.11 329.2C1017.71 331.333 1021.85 329.733 1028.51 324.4C1034.65 319.333 1038.25 315.733 1039.31 313.6C1038.51 313.6 1036.65 312.667 1033.71 310.8C1030.78 308.667 1028.78 306.533 1027.71 304.4L1024.51 307.2C1021.31 310.133 1018.91 313.2 1017.31 316.4C1014.11 322.533 1013.71 326.8 1016.11 329.2ZM1079.88 306.4C1078.81 305.067 1078.81 303.067 1079.88 300.4C1080.68 297.733 1083.34 293.867 1087.88 288.8C1090.28 286.133 1092.54 284 1094.68 282.4L1098.68 280C1100.01 280 1100.68 279.6 1100.68 278.8C1100.68 278.533 1101.34 278.4 1102.68 278.4C1104.54 278.933 1105.61 279.6 1105.88 280.4C1105.34 280.933 1104.94 281.067 1104.68 280.8C1104.14 281.067 1103.74 281.6 1103.48 282.4L1102.68 286C1102.14 289.2 1102.68 291.6 1104.28 293.2C1112.28 300.4 1122.94 298.933 1136.28 288.8L1139.08 287.2C1140.14 286.667 1140.81 286.933 1141.08 288L1136.28 291.6C1132.01 294.8 1127.08 297.067 1121.48 298.4C1115.88 299.733 1110.54 299.067 1105.48 296.4C1103.88 295.067 1102.68 293.867 1101.88 292.8C1101.34 291.733 1100.94 291.467 1100.68 292C1098.81 295.733 1096.28 299.2 1093.08 302.4C1086.94 308.267 1082.54 309.6 1079.88 306.4ZM1082.28 306C1083.34 307.333 1086.41 305.467 1091.48 300.4C1095.21 297.2 1097.88 293.2 1099.48 288.4C1100.01 286.8 1100.28 285.6 1100.28 284.8L1099.88 283.2L1095.88 287.2C1091.08 291.467 1087.34 295.6 1084.68 299.6C1082.81 303.067 1082.01 305.2 1082.28 306Z" fill="#C19B5C"/>
</svg>
