<svg width="1316" height="305" viewBox="0 0 1316 305" fill="none" xmlns="http://www.w3.org/2000/svg">
<path d="M150.544 30.4C152.944 48 148.277 69.0667 136.544 93.6C125.077 118.133 108.41 142.267 86.5438 166C59.8771 194.8 38.2771 209.2 21.7438 209.2H19.7438C6.94375 209.2 0.810418 202.133 1.34375 188C1.87708 176.267 5.87708 162 13.3438 145.2C20.8104 128.133 31.0771 111.067 44.1438 94C50.2771 86 54.1438 79.6 55.7438 74.8C62.4104 55.8667 69.0771 42.1333 75.7438 33.6C85.6104 20.2667 96.6771 11.3333 108.944 6.8C119.344 2.79999 128.41 2.93332 136.144 7.2C144.144 11.4667 148.944 19.2 150.544 30.4ZM105.344 14C87.4771 25.2 73.8771 43.8667 64.5438 70C64.8104 69.2 67.0771 66.6667 71.3438 62.4C75.8771 57.8667 82.6771 52 91.7438 44.8C101.077 37.3333 110.677 30.9333 120.544 25.6C129.61 20.8 137.744 19.7333 144.944 22.4C142.01 14.6667 136.81 9.99999 129.344 8.39998C121.877 6.79998 113.877 8.66665 105.344 14ZM147.344 49.6C149.21 35.2 146.677 26.9333 139.744 24.8C132.81 22.6667 123.077 26.4 110.544 36C93.4771 48.2667 77.2104 63.7333 61.7438 82.4C58.2771 86.6667 56.1438 90.9333 55.3438 95.2C54.5438 99.7333 55.0771 103.2 56.9438 105.6L58.1438 106.8H57.3438C54.1438 106.8 52.2771 105.467 51.7438 102.8L50.1438 96.4L42.9438 106C35.2104 116.4 28.0104 128.933 21.3438 143.6C14.6771 158 10.2771 171.067 8.14375 182.8C6.27709 194.267 8.27709 201.6 14.1438 204.8C25.0771 209.067 40.0104 203.333 58.9438 187.6C77.8771 171.6 94.4104 154 108.544 134.8C131.21 104.133 144.144 75.7333 147.344 49.6ZM129.353 160.4C126.42 158 125.486 154.933 126.553 151.2C127.886 147.467 130.553 143.467 134.553 139.2C138.82 134.933 143.086 131.867 147.353 130C149.753 128.933 151.886 128.667 153.753 129.2C155.62 129.467 156.553 130.267 156.553 131.6C156.553 133.733 154.953 136.533 151.753 140C147.753 143.467 145.086 145.2 143.753 145.2C141.886 145.2 142.153 144.4 144.553 142.8C147.486 140.933 150.02 138.8 152.153 136.4C154.286 133.733 154.953 132 154.153 131.2C153.353 130.4 150.82 131.467 146.553 134.4C140.953 137.867 136.42 142.133 132.953 147.2C129.753 152 128.82 155.6 130.153 158C131.22 160.4 135.22 161.2 142.153 160.4C149.086 159.6 156.553 157.333 164.553 153.6C171.753 150.133 178.82 145.867 185.753 140.8C186.553 140.267 187.62 139.6 188.953 138.8L190.953 137.2C191.753 137.2 192.286 137.6 192.553 138.4L190.553 140C186.553 143.2 180.953 146.933 173.753 151.2L164.953 155.6C148.153 163.867 136.286 165.467 129.353 160.4ZM192.088 176.8C187.021 180.533 182.488 182.4 178.488 182.4C174.754 182.133 172.754 179.867 172.487 175.6C172.487 174.267 171.954 173.067 170.887 172C170.087 171.467 169.687 170.533 169.687 169.2C169.954 164.667 177.554 152.4 192.488 132.4L200.888 121.2C202.488 119.067 205.154 115.867 208.888 111.6C218.221 99.8667 228.888 88.6667 240.888 78C248.888 71.0667 255.954 66 262.088 62.8C263.421 62 264.888 62.1333 266.488 63.2C267.554 64 267.554 65.0667 266.488 66.4C265.421 67.7333 262.088 71.3333 256.488 77.2C241.288 91.8667 229.688 102.267 221.688 108.4C215.021 113.467 209.954 118.133 206.488 122.4L194.488 137.6C190.488 142.667 188.488 145.867 188.488 147.2L188.887 149.2L191.688 147.2C197.821 142.4 203.154 140.267 207.688 140.8C212.754 141.333 214.888 143.867 214.088 148.4C213.554 151.6 211.954 155.2 209.288 159.2L207.688 161.6C215.688 161.6 230.088 153.6 250.888 137.6C251.954 136.8 252.754 136.933 253.288 138C249.021 142.267 241.154 148 229.688 155.2C226.488 157.067 222.621 158.933 218.088 160.8C214.354 162.4 211.421 163.333 209.288 163.6L205.688 164L202.888 167.2C198.088 172 194.488 175.2 192.088 176.8ZM222.088 104.8L225.688 102C234.488 95.6 244.754 86 256.488 73.2L259.688 69.6C258.888 69.6 254.088 73.6 245.288 81.6C238.888 87.2 232.621 93.3333 226.488 100L222.088 104.8ZM197.288 160.4C199.421 161.467 200.621 162 200.888 162C201.421 161.733 202.221 160.8 203.288 159.2C208.354 153.067 210.621 148.267 210.088 144.8C209.554 144 208.888 143.6 208.088 143.6C207.021 143.6 204.088 144.667 199.288 146.8C193.154 150 190.088 152.133 190.088 153.2C190.888 156.4 193.288 158.8 197.288 160.4ZM183.288 153.6C183.554 153.867 184.221 153.467 185.288 152.4C186.354 151.333 186.888 150.667 186.888 150.4L186.488 149.2C186.221 148.933 185.954 148.933 185.688 149.2C185.421 149.467 185.021 150.133 184.488 151.2L183.288 153.6ZM176.488 179.2C178.088 181.333 182.221 179.733 188.887 174.4C195.021 169.333 198.621 165.733 199.688 163.6C198.888 163.6 197.021 162.667 194.088 160.8C191.154 158.667 189.154 156.533 188.088 154.4L184.888 157.2C181.688 160.133 179.288 163.2 177.688 166.4C174.487 172.533 174.087 176.8 176.488 179.2ZM240.253 156.4C239.186 155.067 239.186 153.067 240.253 150.4C241.053 147.733 243.72 143.867 248.253 138.8C250.653 136.133 252.92 134 255.053 132.4L259.053 130C260.386 130 261.053 129.6 261.053 128.8C261.053 128.533 261.72 128.4 263.053 128.4C264.92 128.933 265.986 129.6 266.253 130.4C265.72 130.933 265.32 131.067 265.053 130.8C264.52 131.067 264.12 131.6 263.853 132.4L263.053 136C262.52 139.2 263.053 141.6 264.653 143.2C272.653 150.4 283.32 148.933 296.653 138.8L299.453 137.2C300.52 136.667 301.186 136.933 301.453 138L296.653 141.6C292.386 144.8 287.453 147.067 281.853 148.4C276.253 149.733 270.92 149.067 265.853 146.4C264.253 145.067 263.053 143.867 262.253 142.8C261.72 141.733 261.32 141.467 261.053 142C259.186 145.733 256.653 149.2 253.453 152.4C247.32 158.267 242.92 159.6 240.253 156.4ZM242.653 156C243.72 157.333 246.786 155.467 251.853 150.4C255.586 147.2 258.253 143.2 259.853 138.4C260.386 136.8 260.653 135.6 260.653 134.8L260.253 133.2L256.253 137.2C251.453 141.467 247.72 145.6 245.053 149.6C243.186 153.067 242.386 155.2 242.653 156ZM281.481 162.4C280.415 160.8 280.415 158.667 281.481 156C282.281 153.333 285.081 149.333 289.881 144C292.281 141.067 294.681 138.933 297.081 137.6L301.081 134.8C302.415 134.8 303.081 134.4 303.081 133.6C303.081 133.333 303.748 133.2 305.081 133.2C306.148 133.2 307.215 133.467 308.281 134L310.681 130C317.615 116.933 322.015 106.133 323.881 97.6C327.081 83.7333 328.415 71.6 327.881 61.2C327.615 59.3333 327.081 58.4 326.281 58.4C323.881 58.4 316.281 60.9333 303.481 66C303.215 66 302.815 66.1333 302.281 66.4L300.281 67.2L301.081 67.6C302.681 68.4 302.148 69.2 299.481 70C298.948 70 298.415 70.1333 297.881 70.4C295.215 71.2 293.481 71.2 292.681 70.4C291.615 69.8667 291.081 69.2 291.081 68.4C291.081 66.2667 295.348 63.6 303.881 60.4C321.481 52.9333 344.681 47.3333 373.481 43.6C392.148 41.4667 405.881 40.8 414.681 41.6C424.815 42.6667 429.881 45.3333 429.881 49.6C429.615 51.4667 428.148 53.3333 425.481 55.2C424.415 56 423.348 56 422.281 55.2L421.081 54.4L423.481 51.6C425.081 50 425.881 48.9333 425.881 48.4C425.615 46 416.548 45.2 398.681 46C376.548 47.6 356.415 50.6667 338.281 55.2L329.481 57.2L329.881 64.8C329.881 73.6 329.348 81.6 328.281 88.8C326.148 100.8 324.548 108.267 323.481 111.2C320.815 118.4 317.615 125.2 313.881 131.6C306.415 144.933 300.148 153.733 295.081 158C288.948 163.867 284.415 165.333 281.481 162.4ZM284.281 161.6C285.615 162.4 288.681 160.4 293.481 155.6C298.281 150.533 300.948 146.667 301.481 144C302.548 142.4 302.815 140.933 302.281 139.6V138.4L298.281 142.4C293.748 146.133 289.881 150.4 286.681 155.2C284.548 158.4 283.748 160.533 284.281 161.6ZM319.159 156.4C318.093 155.067 318.093 153.067 319.159 150.4C319.959 147.733 322.626 143.867 327.159 138.8C329.559 136.133 331.826 134 333.959 132.4L337.959 130C339.293 130 339.959 129.6 339.959 128.8C339.959 128.533 340.626 128.4 341.959 128.4C343.826 128.933 344.893 129.6 345.159 130.4C344.626 130.933 344.226 131.067 343.959 130.8C343.426 131.067 343.026 131.6 342.759 132.4L341.959 136C341.426 139.2 341.959 141.6 343.559 143.2C351.559 150.4 362.226 148.933 375.559 138.8L378.359 137.2C379.426 136.667 380.093 136.933 380.359 138L375.559 141.6C371.293 144.8 366.359 147.067 360.759 148.4C355.159 149.733 349.826 149.067 344.759 146.4C343.159 145.067 341.959 143.867 341.159 142.8C340.626 141.733 340.226 141.467 339.959 142C338.093 145.733 335.559 149.2 332.359 152.4C326.226 158.267 321.826 159.6 319.159 156.4ZM321.559 156C322.626 157.333 325.693 155.467 330.759 150.4C334.493 147.2 337.159 143.2 338.759 138.4C339.293 136.8 339.559 135.6 339.559 134.8L339.159 133.2L335.159 137.2C330.359 141.467 326.626 145.6 323.959 149.6C322.093 153.067 321.293 155.2 321.559 156ZM257.187 304.8C249.721 304.8 249.187 297.6 255.587 283.2L258.787 277.2C272.654 250.8 293.187 225.333 320.387 200.8C331.321 191.2 347.721 180.267 369.588 168C373.054 166.133 375.854 163.467 377.988 160L381.588 154.4L379.988 155.6L379.188 156.4C375.988 159.333 372.921 161.2 369.988 162C367.054 162.8 365.054 162.267 363.988 160.4C361.854 156.4 364.654 150.4 372.388 142.4C380.388 134.133 387.188 130 392.788 130C394.921 130 396.121 130.4 396.388 131.2C397.188 131.733 397.721 131.867 397.988 131.6L403.588 124.8C408.121 118.933 411.054 115.467 412.388 114.4C414.788 112 416.388 110.8 417.188 110.8L417.988 111.6C417.988 112.4 416.921 113.867 414.788 116C408.654 123.467 398.254 137.867 383.588 159.2L380.788 163.2C397.054 156 411.454 148.267 423.988 140L427.988 137.2C428.521 136.667 429.054 136.933 429.588 138C429.321 138.533 428.654 139.2 427.588 140L425.988 141.2C419.854 145.733 404.121 154.267 378.788 166.8L373.988 173.2C353.721 202.533 331.054 232.267 305.987 262.4C282.521 290.667 266.254 304.8 257.187 304.8ZM368.388 160C371.321 160 375.321 157.6 380.388 152.8C385.721 147.733 389.854 143.067 392.788 138.8C394.654 136.133 395.588 134.4 395.588 133.6C395.588 132.8 395.188 132.4 394.388 132.4C389.588 132.4 382.654 137.733 373.588 148.4C366.921 156.133 365.188 160 368.388 160ZM255.987 302.4C262.121 302.933 272.921 294.667 288.387 277.6C312.121 251.2 337.454 218.533 364.388 179.6L371.588 169.6C362.521 174.133 353.987 179.067 345.987 184.4C336.654 190.267 326.121 198.933 314.387 210.4C302.654 221.867 293.187 232.533 285.987 242.4C267.054 266.4 256.521 284.533 254.387 296.8C253.587 300.533 254.121 302.4 255.987 302.4ZM426.797 171.2C426.797 167.467 429.73 161.6 435.597 153.6L438.397 149.6L437.997 150C437.73 150 437.197 150.267 436.397 150.8C435.864 151.067 435.33 151.333 434.797 151.6C426.797 155.867 421.864 158 419.997 158C418.93 158 418.13 157.733 417.597 157.2C415.73 154.533 417.464 149.867 422.797 143.2C428.397 135.467 432.797 130.933 435.997 129.6L437.197 129.2C438.264 129.2 439.064 130 439.597 131.6C440.13 132.4 438.264 134.8 433.997 138.8C431.864 140.667 429.597 142.933 427.197 145.6C425.064 148 423.33 150.133 421.997 152C420.664 153.6 420.13 154.533 420.397 154.8C420.397 155.067 421.464 154.8 423.597 154C425.997 152.933 428.664 151.6 431.597 150C434.797 148.4 437.464 146.933 439.597 145.6C441.997 144 445.064 141.6 448.797 138.4C453.064 134.4 455.597 132.8 456.397 133.6C457.197 134.667 457.33 135.733 456.797 136.8C456.264 137.867 453.864 140.4 449.597 144.4C438.13 155.867 431.464 164 429.597 168.8C427.197 174.933 431.597 175.6 442.797 170.8C456.93 164.667 474.797 153.6 496.397 137.6C497.464 137.067 498.397 137.2 499.197 138C491.464 144.4 481.997 150.933 470.797 157.6C457.197 166.4 446.93 172 439.997 174.4C431.197 177.867 426.797 176.8 426.797 171.2ZM488.338 160.4C485.404 158 484.471 154.933 485.538 151.2C486.871 147.467 489.538 143.467 493.538 139.2C497.804 134.933 502.071 131.867 506.338 130C508.738 128.933 510.871 128.667 512.738 129.2C514.604 129.467 515.538 130.267 515.538 131.6C515.538 133.733 513.938 136.533 510.738 140C506.738 143.467 504.071 145.2 502.738 145.2C500.871 145.2 501.138 144.4 503.538 142.8C506.471 140.933 509.004 138.8 511.138 136.4C513.271 133.733 513.938 132 513.138 131.2C512.338 130.4 509.804 131.467 505.538 134.4C499.938 137.867 495.404 142.133 491.938 147.2C488.738 152 487.804 155.6 489.138 158C490.204 160.4 494.204 161.2 501.138 160.4C508.071 159.6 515.538 157.333 523.538 153.6C530.738 150.133 537.804 145.867 544.738 140.8C545.538 140.267 546.604 139.6 547.938 138.8L549.938 137.2C550.738 137.2 551.271 137.6 551.538 138.4L549.538 140C545.538 143.2 539.938 146.933 532.738 151.2L523.938 155.6C507.138 163.867 495.271 165.467 488.338 160.4ZM537.072 160C532.805 156.267 537.872 147.2 552.272 132.8C557.072 128 560.139 126 561.472 126.8C562.539 127.333 562.405 128.267 561.072 129.6C560.539 130.133 560.005 130.667 559.472 131.2C559.205 131.467 558.539 132 557.472 132.8C556.672 133.6 555.872 134.533 555.072 135.6L547.872 143.6C552.405 144.4 554.672 146 554.672 148.4C554.672 151.067 552.139 154.133 547.072 157.6C542.272 161.067 538.939 161.867 537.072 160ZM538.672 158.8C538.939 159.333 539.739 159.333 541.072 158.8C542.672 158.267 544.139 157.467 545.472 156.4C549.472 153.2 551.739 150.933 552.272 149.6C552.805 148.267 552.272 147.2 550.672 146.4C549.072 145.6 547.739 145.467 546.672 146C545.339 146.8 543.605 148.8 541.472 152C539.339 154.933 538.405 157.2 538.672 158.8ZM625.019 156.4C623.952 155.067 623.952 153.067 625.019 150.4C625.819 147.733 628.485 143.867 633.019 138.8C635.419 136.133 637.685 134 639.819 132.4L643.819 130C645.152 130 645.819 129.6 645.819 128.8C645.819 128.533 646.485 128.4 647.819 128.4C649.685 128.933 650.752 129.6 651.019 130.4C650.485 130.933 650.085 131.067 649.819 130.8C649.285 131.067 648.885 131.6 648.619 132.4L647.819 136C647.285 139.2 647.819 141.6 649.419 143.2C657.419 150.4 668.085 148.933 681.419 138.8L684.219 137.2C685.285 136.667 685.952 136.933 686.219 138L681.419 141.6C677.152 144.8 672.219 147.067 666.619 148.4C661.019 149.733 655.685 149.067 650.619 146.4C649.019 145.067 647.819 143.867 647.019 142.8C646.485 141.733 646.085 141.467 645.819 142C643.952 145.733 641.419 149.2 638.219 152.4C632.085 158.267 627.685 159.6 625.019 156.4ZM627.419 156C628.485 157.333 631.552 155.467 636.619 150.4C640.352 147.2 643.019 143.2 644.619 138.4C645.152 136.8 645.419 135.6 645.419 134.8L645.019 133.2L641.019 137.2C636.219 141.467 632.485 145.6 629.819 149.6C627.952 153.067 627.152 155.2 627.419 156ZM725.847 162.8C723.447 159.333 722.78 155.2 723.847 150.4C724.114 149.6 724.514 148.4 725.047 146.8C725.58 145.2 725.847 144.133 725.847 143.6C726.114 142.8 726.114 142.133 725.847 141.6C723.714 143.2 721.58 144.933 719.447 146.8C711.18 153.733 707.047 158.4 707.047 160.8C707.047 161.333 706.78 161.6 706.247 161.6C704.647 161.6 704.114 160.933 704.647 159.6C705.18 158 708.647 152.267 715.047 142.4C720.914 133.333 724.114 127.867 724.647 126C724.914 124.667 724.78 123.867 724.247 123.6C723.714 123.333 722.514 123.467 720.647 124C710.514 126.133 698.514 132.933 684.647 144.4C683.314 145.467 681.314 147.333 678.647 150C676.247 152.4 673.98 154.667 671.847 156.8C669.98 158.667 669.047 159.733 669.047 160L668.647 160.8C668.38 161.067 667.98 161.067 667.447 160.8C666.647 160.267 666.247 159.867 666.247 159.6C666.247 158 670.647 152 679.447 141.6C682.647 137.867 685.314 134.933 687.447 132.8C690.114 130.133 691.98 129.067 693.047 129.6C693.314 129.867 693.447 130.267 693.447 130.8C693.447 132.133 691.714 134.533 688.247 138L687.447 138.8C687.98 138.533 689.314 137.6 691.447 136C703.18 126.4 713.314 121.6 721.847 121.6C724.247 121.6 726.114 122.133 727.447 123.2C728.78 124 729.314 125.333 729.047 127.2C728.78 129.333 726.78 132.933 723.047 138C721.714 139.6 720.514 141.2 719.447 142.8L719.047 143.2C719.58 142.933 719.98 142.667 720.247 142.4C722.914 140.533 724.78 139.6 725.847 139.6C728.247 139.6 728.78 141.467 727.447 145.2C727.18 146 727.047 146.533 727.047 146.8C725.447 152.133 725.314 156.533 726.647 160C729.047 164 733.047 165.467 738.647 164.4C744.247 163.333 750.647 160.8 757.847 156.8C768.514 150.4 776.78 142.533 782.647 133.2C783.714 131.6 784.114 130.533 783.847 130C783.847 129.733 783.98 129.6 784.247 129.6C786.914 129.6 785.58 133.067 780.247 140C772.514 149.867 762.647 157.6 750.647 163.2C738.647 168.533 730.38 168.4 725.847 162.8ZM814.691 186C811.491 179.867 818.424 171.6 835.491 161.2L840.291 158.8L840.691 155.2C841.491 151.2 842.024 148.8 842.291 148C843.891 143.733 846.557 139.067 850.291 134C855.091 127.6 858.291 124.4 859.891 124.4L860.291 125.2C860.824 125.467 861.091 125.733 861.091 126C861.891 127.067 860.424 130.267 856.691 135.6C850.291 144.933 846.824 151.467 846.291 155.2C846.291 155.467 847.357 154.933 849.491 153.6C851.624 152.267 853.891 150.8 856.291 149.2C858.957 147.6 860.957 146.267 862.291 145.2C867.891 141.2 874.424 135.333 881.891 127.6L891.091 118C892.157 118 891.357 119.733 888.691 123.2C881.757 131.467 875.624 137.867 870.291 142.4C864.957 146.667 856.957 152.133 846.291 158.8C846.291 167.333 848.024 172.4 851.491 174C853.091 174.8 854.691 175.2 856.291 175.2C857.891 175.2 858.957 175.067 859.491 174.8C860.291 174.533 860.957 174.667 861.491 175.2C862.291 176.533 861.624 177.333 859.491 177.6C854.424 178.667 850.024 177.733 846.291 174.8C842.824 171.867 840.957 167.6 840.691 162C832.157 166.267 825.091 171.2 819.491 176.8C816.024 180.8 814.691 183.467 815.491 184.8C815.757 185.333 816.157 185.6 816.691 185.6C816.957 185.6 817.091 185.6 817.091 185.6H817.491C817.757 186.133 817.357 186.533 816.291 186.8C815.757 187.067 815.224 186.8 814.691 186ZM909.994 169.2C908.66 168.667 907.727 168 907.194 167.2C906.66 166.4 906.394 164.8 906.394 162.4C906.927 157.067 911.594 149.333 920.394 139.2L923.594 135.6L921.194 137.6C916.927 140.8 910.527 145.067 901.994 150.4C893.727 154.933 888.66 156.133 886.794 154C884.66 151.333 885.194 147.733 888.394 143.2C893.994 135.733 897.194 133.867 897.994 137.6C898.26 138.667 897.194 140.4 894.794 142.8C893.727 143.867 892.66 145.2 891.594 146.8C890.527 148.4 889.727 149.733 889.194 150.8C888.66 151.867 888.527 152.533 888.794 152.8C889.86 153.867 894.26 152.133 901.994 147.6C913.46 141.2 923.327 134 931.594 126C934.527 123.6 936.127 122.4 936.394 122.4C939.594 122.133 941.194 122.8 941.194 124.4C941.194 125.467 937.86 129.067 931.194 135.2C921.594 145.067 915.327 152.4 912.394 157.2C908.66 163.333 908.127 166.667 910.794 167.2C913.727 167.733 917.46 166.8 921.994 164.4C926.794 162 934.927 156.933 946.394 149.2C947.194 148.667 948.394 147.867 949.994 146.8C951.86 145.467 953.46 144.4 954.794 143.6C956.127 142.533 957.327 141.6 958.394 140.8L963.594 137.2C964.127 136.933 964.527 137.067 964.794 137.6C965.327 137.867 965.327 138.267 964.794 138.8L962.794 140.4L956.794 144.8C934.66 160 920.927 168.133 915.594 169.2C912.394 169.733 910.527 169.733 909.994 169.2ZM953.534 156.4C952.468 155.067 952.468 153.067 953.534 150.4C954.334 147.733 957.001 143.867 961.534 138.8C963.934 136.133 966.201 134 968.334 132.4L972.334 130C973.668 130 974.334 129.6 974.334 128.8C974.334 128.533 975.001 128.4 976.334 128.4C978.201 128.933 979.268 129.6 979.534 130.4C979.001 130.933 978.601 131.067 978.334 130.8C977.801 131.067 977.401 131.6 977.134 132.4L976.334 136C975.801 139.2 976.334 141.6 977.934 143.2C985.934 150.4 996.601 148.933 1009.93 138.8L1012.73 137.2C1013.8 136.667 1014.47 136.933 1014.73 138L1009.93 141.6C1005.67 144.8 1000.73 147.067 995.134 148.4C989.534 149.733 984.201 149.067 979.134 146.4C977.534 145.067 976.334 143.867 975.534 142.8C975.001 141.733 974.601 141.467 974.334 142C972.468 145.733 969.934 149.2 966.734 152.4C960.601 158.267 956.201 159.6 953.534 156.4ZM955.934 156C957.001 157.333 960.068 155.467 965.134 150.4C968.868 147.2 971.534 143.2 973.134 138.4C973.668 136.8 973.934 135.6 973.934 134.8L973.534 133.2L969.534 137.2C964.734 141.467 961.001 145.6 958.334 149.6C956.468 153.067 955.668 155.2 955.934 156ZM997.963 158.8C997.162 157.2 997.829 154.8 999.963 151.6C1003.96 145.733 1009.03 139.333 1015.16 132.4L1019.56 128.4C1021.43 126.533 1022.9 125.333 1023.96 124.8C1025.3 124 1026.36 124 1027.16 124.8C1027.7 126.133 1027.3 127.333 1025.96 128.4C1025.7 128.667 1025.16 129.333 1024.36 130.4C1023.56 131.2 1022.5 132.267 1021.16 133.6C1019.83 134.933 1018.76 136.133 1017.96 137.2C1011.3 144.133 1008.1 147.6 1008.36 147.6C1008.63 147.6 1010.1 146.667 1012.76 144.8C1015.16 142.933 1018.63 140.8 1023.16 138.4C1027.7 135.733 1030.23 134.4 1030.76 134.4C1032.63 134.4 1033.3 135.2 1032.76 136.8C1032.23 138.133 1031.03 139.867 1029.16 142C1022.5 150 1021.83 154.267 1027.16 154.8C1031.16 155.067 1037.16 153.333 1045.16 149.6C1053.16 145.6 1059.96 141.467 1065.56 137.2C1066.63 136.667 1067.56 136.933 1068.36 138C1053.96 149.467 1040.9 155.733 1029.16 156.8C1023.3 157.333 1020.5 155.6 1020.76 151.6C1021.03 148.667 1023.03 144.933 1026.76 140.4C1028.1 138.533 1028.63 137.6 1028.36 137.6C1027.56 136.8 1022.36 140 1012.76 147.2C1011.7 147.733 1008.63 150.267 1003.56 154.8C1000.36 158 998.496 159.333 997.963 158.8ZM1055.49 156.4C1054.42 155.067 1054.42 153.067 1055.49 150.4C1056.29 147.733 1058.95 143.867 1063.49 138.8C1065.89 136.133 1068.15 134 1070.29 132.4L1074.29 130C1075.62 130 1076.29 129.6 1076.29 128.8C1076.29 128.533 1076.95 128.4 1078.29 128.4C1080.15 128.933 1081.22 129.6 1081.49 130.4C1080.95 130.933 1080.55 131.067 1080.29 130.8C1079.75 131.067 1079.35 131.6 1079.09 132.4L1078.29 136C1077.75 139.2 1078.29 141.6 1079.89 143.2C1087.89 150.4 1098.55 148.933 1111.89 138.8L1114.69 137.2C1115.75 136.667 1116.42 136.933 1116.69 138L1111.89 141.6C1107.62 144.8 1102.69 147.067 1097.09 148.4C1091.49 149.733 1086.15 149.067 1081.09 146.4C1079.49 145.067 1078.29 143.867 1077.49 142.8C1076.95 141.733 1076.55 141.467 1076.29 142C1074.42 145.733 1071.89 149.2 1068.69 152.4C1062.55 158.267 1058.15 159.6 1055.49 156.4ZM1057.89 156C1058.95 157.333 1062.02 155.467 1067.09 150.4C1070.82 147.2 1073.49 143.2 1075.09 138.4C1075.62 136.8 1075.89 135.6 1075.89 134.8L1075.49 133.2L1071.49 137.2C1066.69 141.467 1062.95 145.6 1060.29 149.6C1058.42 153.067 1057.62 155.2 1057.89 156ZM1162.32 164.8C1166.58 165.6 1179.52 157.6 1201.12 140.8C1204.05 138.4 1206.18 136.933 1207.52 136.4C1208.05 136.133 1208.45 136.267 1208.72 136.8C1208.98 137.067 1208.98 137.333 1208.72 137.6C1208.18 138.133 1205.92 140 1201.92 143.2C1199.78 144.8 1197.12 146.8 1193.92 149.2C1190.98 151.333 1188.58 153.067 1186.72 154.4C1185.12 155.733 1183.12 157.2 1180.72 158.8C1178.58 160.4 1176.85 161.6 1175.52 162.4C1174.18 163.2 1172.58 164.133 1170.72 165.2C1169.12 166 1167.78 166.533 1166.72 166.8C1165.65 166.8 1164.45 166.933 1163.12 167.2C1161.78 167.2 1160.58 166.933 1159.52 166.4C1158.72 165.867 1157.78 165.067 1156.72 164C1154.05 161.333 1153.25 156.8 1154.32 150.4C1154.58 149.6 1154.98 148.4 1155.52 146.8C1156.05 145.2 1156.32 144.133 1156.32 143.6C1156.58 142.8 1156.58 142.133 1156.32 141.6C1154.18 143.2 1152.05 144.933 1149.92 146.8C1141.65 153.733 1137.52 158.4 1137.52 160.8C1137.52 161.333 1137.25 161.6 1136.72 161.6C1135.12 161.6 1134.58 160.933 1135.12 159.6C1135.65 158 1139.12 152.267 1145.52 142.4C1151.38 133.333 1154.58 127.867 1155.12 126C1155.38 124.667 1155.25 123.867 1154.72 123.6C1154.18 123.333 1152.98 123.467 1151.12 124C1140.98 126.133 1128.98 132.933 1115.12 144.4C1113.78 145.467 1111.78 147.333 1109.12 150C1106.72 152.4 1104.45 154.667 1102.32 156.8C1100.45 158.667 1099.52 159.733 1099.52 160L1099.12 160.8C1098.85 161.067 1098.45 161.067 1097.92 160.8C1097.12 160.267 1096.72 159.867 1096.72 159.6C1096.72 158 1101.12 152 1109.92 141.6C1113.12 137.867 1115.78 134.933 1117.92 132.8C1120.58 130.133 1122.45 129.067 1123.52 129.6C1123.78 129.867 1123.92 130.267 1123.92 130.8C1123.92 132.133 1122.18 134.533 1118.72 138L1117.92 138.8C1118.45 138.533 1119.78 137.6 1121.92 136C1133.65 126.4 1143.78 121.6 1152.32 121.6C1154.72 121.6 1156.58 122.133 1157.92 123.2C1159.25 124 1159.78 125.333 1159.52 127.2C1159.25 129.333 1157.25 132.933 1153.52 138C1152.18 139.6 1150.98 141.2 1149.92 142.8L1149.52 143.2C1150.05 142.933 1150.45 142.667 1150.72 142.4C1153.38 140.533 1155.25 139.6 1156.32 139.6C1157.12 139.6 1157.65 139.733 1157.92 140C1158.45 140.267 1158.72 140.667 1158.72 141.2C1158.72 141.733 1158.72 142.267 1158.72 142.8C1158.72 143.067 1158.45 143.733 1157.92 144.8C1157.65 145.6 1157.52 146.267 1157.52 146.8C1154.85 158 1156.45 164 1162.32 164.8ZM1226.12 148.8C1225.59 148.533 1225.59 147.2 1226.12 144.8C1227.72 138.667 1232.66 129.6 1240.92 117.6C1249.46 105.6 1263.32 87.0667 1282.52 62C1298.52 41.2 1308.52 29.8667 1312.52 28C1313.06 27.7333 1313.86 27.6 1314.92 27.6C1315.46 27.6 1315.72 27.8667 1315.72 28.4C1315.72 29.4667 1311.06 35.4667 1301.72 46.4C1281.99 70.1333 1265.86 90.6667 1253.32 108C1241.06 125.067 1233.06 138.267 1229.32 147.6C1228.79 149.2 1227.72 149.6 1226.12 148.8ZM1212.52 171.2C1210.39 170.133 1210.26 168.933 1212.12 167.6C1213.72 166.267 1215.06 166.4 1216.12 168C1216.66 169.067 1216.39 170 1215.32 170.8C1214.52 171.6 1213.59 171.733 1212.52 171.2Z" fill="#C19B5C"/>
</svg>
