<svg width="1068" height="278" viewBox="0 0 1068 278" fill="none" xmlns="http://www.w3.org/2000/svg">
<path d="M5 221.6C2.33333 221.6 1 220.4 1 218C0.733333 215.6 3 210.267 7.8 202C12.3333 194 21 179.867 33.8 159.6C46.8667 139.067 56.0667 125.067 61.4 117.6C62.2 115.733 62.6 114.8 62.6 114.8C61.8 115.333 59.8 115.6 56.6 115.6C53.4 115.6 51.1333 115.333 49.8 114.8C47.1333 114 45.1333 112.667 43.8 110.8C42.4667 108.933 42.6 106.8 44.2 104.4C46.0667 102 48.8667 101.067 52.6 101.6C56.3333 102.133 60.0667 103.867 63.8 106.8L67 108.8L75.4 96.4C87.1333 78.5333 101 59.0667 117 38C128.733 23.0667 136.733 12.5333 141 6.39998C143.667 2.39998 145.533 0.399983 146.6 0.399983C148.733 0.399983 149.667 1.33332 149.4 3.2C148.333 7.19999 140.867 18.5333 127 37.2L95 81.2C82.7333 98.5333 76.7333 107.333 77 107.6C77.8 108.4 88.2 103.867 108.2 94C125.533 84.6667 143 72.9333 160.6 58.8C175.533 47.6 188.467 36.5333 199.4 25.6C204.2 21.6 206.867 20.2667 207.4 21.6C207.667 22.1333 206.867 23.6 205 26C203.4 28.4 202.333 29.4667 201.8 29.2C201.267 29.2 199.533 30.6667 196.6 33.6C183.267 46.6667 169.4 58.5333 155 69.2C128.333 89.2 102.867 103.2 78.6 111.2C75.1333 112.533 73.1333 113.333 72.6 113.6C72.0667 113.867 72.2 114.667 73 116C78.0667 122.933 82.7333 133.6 87 148C90.2 158.133 92.0667 163.867 92.6 165.2C99 183.333 108.067 194.533 119.8 198.8C124.867 201.2 131.4 201.467 139.4 199.6C147.4 197.733 154.733 194.133 161.4 188.8C162.2 188 162.867 187.867 163.4 188.4C164.733 189.733 163.667 191.467 160.2 193.6C146.067 202.667 133.533 205.6 122.6 202.4C112.2 199.467 103.4 192.667 96.2 182C91.9333 175.333 87.1333 163.333 81.8 146C77.8 132.667 74.2 123.6 71 118.8L69.8 117.6L63.4 126.4C26.3333 181.333 7 211.733 5.4 217.6C5.13333 218.4 5.4 219.333 6.2 220.4C7.53333 221.467 7.13333 221.867 5 221.6ZM57.4 112.4L64.2 111.6C64.4667 111.333 64.0667 110.8 63 110C62.2 108.933 61 108 59.4 107.2C58.0667 106.133 57 105.467 56.2 105.2C50.6 102.8 47.4 103.2 46.6 106.4C45.8 109.067 47.4 110.933 51.4 112C53 112.533 55 112.667 57.4 112.4ZM177.978 165.2C176.645 164.667 175.711 164 175.178 163.2C174.645 162.4 174.378 160.8 174.378 158.4C174.911 153.067 179.578 145.333 188.378 135.2L191.578 131.6L189.178 133.6C184.911 136.8 178.511 141.067 169.978 146.4C161.711 150.933 156.645 152.133 154.778 150C152.645 147.333 153.178 143.733 156.378 139.2C161.978 131.733 165.178 129.867 165.978 133.6C166.245 134.667 165.178 136.4 162.778 138.8C161.711 139.867 160.645 141.2 159.578 142.8C158.511 144.4 157.711 145.733 157.178 146.8C156.645 147.867 156.511 148.533 156.778 148.8C157.845 149.867 162.245 148.133 169.978 143.6C181.445 137.2 191.311 130 199.578 122C202.511 119.6 204.111 118.4 204.378 118.4C207.578 118.133 209.178 118.8 209.178 120.4C209.178 121.467 205.845 125.067 199.178 131.2C189.578 141.067 183.311 148.4 180.378 153.2C176.645 159.333 176.111 162.667 178.778 163.2C181.711 163.733 185.445 162.8 189.978 160.4C194.778 158 202.911 152.933 214.378 145.2C215.178 144.667 216.378 143.867 217.978 142.8C219.845 141.467 221.445 140.4 222.778 139.6C224.111 138.533 225.311 137.6 226.378 136.8L231.578 133.2C232.111 132.933 232.511 133.067 232.778 133.6C233.311 133.867 233.311 134.267 232.778 134.8L230.778 136.4L224.778 140.8C202.645 156 188.911 164.133 183.578 165.2C180.378 165.733 178.511 165.733 177.978 165.2ZM129.119 276.4C126.719 276.133 124.852 275.6 123.519 274.8C121.385 272.933 120.452 270 120.719 266C120.719 261.467 122.452 255.6 125.919 248.4C131.252 238 139.252 227.067 149.919 215.6C160.585 203.867 172.052 193.467 184.319 184.4C195.519 175.867 206.185 170.933 216.319 169.6L221.519 168.8L224.719 164.8L238.319 147.2L234.719 149.2C229.119 152.667 225.119 153.467 222.719 151.6C222.185 150.8 221.919 149.6 221.919 148C222.452 144.8 225.385 139.6 230.719 132.4C234.452 128.133 236.852 126 237.919 126C239.785 126 240.719 126.533 240.719 127.6C239.652 128.933 238.585 130.133 237.519 131.2C229.519 141.067 225.785 147.467 226.319 150.4C228.185 150.4 232.985 147.733 240.719 142.4C243.119 141.067 246.319 138.133 250.319 133.6C257.252 126.4 261.385 122.933 262.719 123.2C263.519 123.2 263.919 123.333 263.919 123.6C263.919 124.133 261.919 126.667 257.919 131.2L228.319 167.6C234.985 166.267 246.985 161.333 264.319 152.8C272.319 149.067 281.519 143.467 291.919 136C294.052 134.4 295.385 133.467 295.919 133.2C296.719 133.2 297.252 133.467 297.519 134L295.119 136.4C284.452 144.133 272.985 151.067 260.719 157.2C245.252 164.4 234.185 168.8 227.519 170.4C226.452 170.667 225.119 171.733 223.519 173.6C222.185 175.467 216.585 183.2 206.719 196.8C188.319 221.867 174.052 240.133 163.919 251.6C153.519 263.067 144.585 270.667 137.119 274.4C133.652 275.733 130.985 276.4 129.119 276.4ZM125.119 273.2C129.385 276.133 137.919 271.467 150.719 259.2C160.852 249.6 176.319 230.8 197.119 202.8L219.119 172.4C219.119 171.867 218.852 171.6 218.319 171.6C208.452 172.4 196.585 178.133 182.719 188.8C177.652 192.533 171.519 197.867 164.319 204.8C140.585 227.2 126.985 246.933 123.519 264C122.719 268.533 123.252 271.6 125.119 273.2ZM277.981 158.4C276.915 156.8 276.915 154.667 277.981 152C278.781 149.333 281.581 145.333 286.381 140C288.781 137.067 291.181 134.933 293.581 133.6L297.581 130.8C298.915 130.8 299.581 130.4 299.581 129.6C299.581 129.333 300.248 129.2 301.581 129.2C302.648 129.2 303.715 129.467 304.781 130L307.181 126C314.115 112.933 318.515 102.133 320.381 93.6C323.581 79.7333 324.915 67.6 324.381 57.2C324.115 55.3333 323.581 54.4 322.781 54.4C320.381 54.4 312.781 56.9333 299.981 62C299.715 62 299.315 62.1333 298.781 62.4L296.781 63.2L297.581 63.6C299.181 64.4 298.648 65.2 295.981 66C295.448 66 294.915 66.1333 294.381 66.4C291.715 67.2 289.981 67.2 289.181 66.4C288.115 65.8667 287.581 65.2 287.581 64.4C287.581 62.2667 291.848 59.6 300.381 56.4C317.981 48.9333 341.181 43.3333 369.981 39.6C388.648 37.4667 402.381 36.8 411.181 37.6C421.315 38.6667 426.381 41.3333 426.381 45.6C426.115 47.4667 424.648 49.3333 421.981 51.2C420.915 52 419.848 52 418.781 51.2L417.581 50.4L419.981 47.6C421.581 46 422.381 44.9333 422.381 44.4C422.115 42 413.048 41.2 395.181 42C373.048 43.6 352.915 46.6667 334.781 51.2L325.981 53.2L326.381 60.8C326.381 69.6 325.848 77.6 324.781 84.8C322.648 96.8 321.048 104.267 319.981 107.2C317.315 114.4 314.115 121.2 310.381 127.6C302.915 140.933 296.648 149.733 291.581 154C285.448 159.867 280.915 161.333 277.981 158.4ZM280.781 157.6C282.115 158.4 285.181 156.4 289.981 151.6C294.781 146.533 297.448 142.667 297.981 140C299.048 138.4 299.315 136.933 298.781 135.6V134.4L294.781 138.4C290.248 142.133 286.381 146.4 283.181 151.2C281.048 154.4 280.248 156.533 280.781 157.6ZM383.119 172.8C378.052 176.533 373.519 178.4 369.519 178.4C365.785 178.133 363.785 175.867 363.519 171.6C363.519 170.267 362.985 169.067 361.919 168C361.119 167.467 360.719 166.533 360.719 165.2C360.985 160.667 368.585 148.4 383.519 128.4L391.919 117.2C393.519 115.067 396.185 111.867 399.919 107.6C409.252 95.8667 419.919 84.6667 431.919 74C439.919 67.0667 446.985 62 453.119 58.8C454.452 58 455.919 58.1333 457.519 59.2C458.585 60 458.585 61.0667 457.519 62.4C456.452 63.7333 453.119 67.3333 447.519 73.2C432.319 87.8667 420.719 98.2667 412.719 104.4C406.052 109.467 400.985 114.133 397.519 118.4L385.519 133.6C381.519 138.667 379.519 141.867 379.519 143.2L379.919 145.2L382.719 143.2C388.852 138.4 394.185 136.267 398.719 136.8C403.785 137.333 405.919 139.867 405.119 144.4C404.585 147.6 402.985 151.2 400.319 155.2L398.719 157.6C406.719 157.6 421.119 149.6 441.919 133.6C442.985 132.8 443.785 132.933 444.319 134C440.052 138.267 432.185 144 420.719 151.2C417.519 153.067 413.652 154.933 409.119 156.8C405.385 158.4 402.452 159.333 400.319 159.6L396.719 160L393.919 163.2C389.119 168 385.519 171.2 383.119 172.8ZM413.119 100.8L416.719 98C425.519 91.6 435.785 82 447.519 69.2L450.719 65.6C449.919 65.6 445.119 69.6 436.319 77.6C429.919 83.2 423.652 89.3333 417.519 96L413.119 100.8ZM388.319 156.4C390.452 157.467 391.652 158 391.919 158C392.452 157.733 393.252 156.8 394.319 155.2C399.385 149.067 401.652 144.267 401.119 140.8C400.585 140 399.919 139.6 399.119 139.6C398.052 139.6 395.119 140.667 390.319 142.8C384.185 146 381.119 148.133 381.119 149.2C381.919 152.4 384.319 154.8 388.319 156.4ZM374.319 149.6C374.585 149.867 375.252 149.467 376.319 148.4C377.385 147.333 377.919 146.667 377.919 146.4L377.519 145.2C377.252 144.933 376.985 144.933 376.719 145.2C376.452 145.467 376.052 146.133 375.519 147.2L374.319 149.6ZM367.519 175.2C369.119 177.333 373.252 175.733 379.919 170.4C386.052 165.333 389.652 161.733 390.719 159.6C389.919 159.6 388.052 158.667 385.119 156.8C382.185 154.667 380.185 152.533 379.119 150.4L375.919 153.2C372.719 156.133 370.319 159.2 368.719 162.4C365.519 168.533 365.119 172.8 367.519 175.2ZM426.884 154.8C426.084 153.2 426.751 150.8 428.884 147.6C432.884 141.733 437.951 135.333 444.084 128.4L448.484 124.4C450.351 122.533 451.818 121.333 452.884 120.8C454.218 120 455.284 120 456.084 120.8C456.618 122.133 456.218 123.333 454.884 124.4C454.618 124.667 454.084 125.333 453.284 126.4C452.484 127.2 451.418 128.267 450.084 129.6C448.751 130.933 447.684 132.133 446.884 133.2C440.218 140.133 437.018 143.6 437.284 143.6C437.551 143.6 439.018 142.667 441.684 140.8C444.084 138.933 447.551 136.8 452.084 134.4C456.618 131.733 459.151 130.4 459.684 130.4C461.551 130.4 462.218 131.2 461.684 132.8C461.151 134.133 459.951 135.867 458.084 138C451.418 146 450.751 150.267 456.084 150.8C460.084 151.067 466.084 149.333 474.084 145.6C482.084 141.6 488.884 137.467 494.484 133.2C495.551 132.667 496.484 132.933 497.284 134C482.884 145.467 469.818 151.733 458.084 152.8C452.218 153.333 449.418 151.6 449.684 147.6C449.951 144.667 451.951 140.933 455.684 136.4C457.018 134.533 457.551 133.6 457.284 133.6C456.484 132.8 451.284 136 441.684 143.2C440.618 143.733 437.551 146.267 432.484 150.8C429.284 154 427.418 155.333 426.884 154.8ZM483.609 155.2C480.143 151.733 480.409 147.2 484.409 141.6C487.343 136.533 491.609 132.8 497.209 130.4C500.409 129.067 502.676 129.067 504.009 130.4C505.076 131.2 505.209 132.533 504.409 134.4C503.876 136.267 502.676 137.867 500.809 139.2C497.076 141.867 493.209 143.467 489.209 144C488.143 144 487.209 144.667 486.409 146C483.209 151.6 484.676 154.8 490.809 155.6C502.809 155.6 517.743 149.333 535.609 136.8L540.409 133.6C540.676 133.333 541.076 133.333 541.609 133.6C542.143 133.867 542.276 134.267 542.009 134.8C532.143 142.8 520.943 149.2 508.409 154C495.876 158.8 487.609 159.2 483.609 155.2ZM489.609 141.6C491.476 141.6 494.143 140.533 497.609 138.4C500.009 136.8 501.609 135.067 502.409 133.2C502.676 132.4 502.409 132 501.609 132L497.209 134.4C491.876 138.4 489.343 140.8 489.609 141.6ZM568.084 154.8C580.884 146.8 590.351 140.533 596.484 136L598.084 134.8C598.884 134.267 599.551 134.267 600.084 134.8C600.618 135.333 600.618 135.733 600.084 136C583.551 148.533 570.484 157.2 560.884 162C551.551 166.8 544.884 167.2 540.884 163.2C537.151 160 538.084 155.067 543.684 148.4C545.018 146.533 547.151 144.133 550.084 141.2L550.484 140.8L547.684 142.4C541.284 145.333 537.284 146 535.684 144.4C533.818 141.467 534.484 138.133 537.684 134.4C539.018 132.8 541.151 130.8 544.084 128.4C547.284 125.733 549.284 124.267 550.084 124C551.151 123.733 552.084 124.267 552.884 125.6C553.418 126.667 551.818 128.667 548.084 131.6C546.218 133.2 544.484 134.8 542.884 136.4C541.284 138 540.084 139.467 539.284 140.8C538.484 141.867 538.218 142.533 538.484 142.8C539.551 143.867 544.084 142.133 552.084 137.6C556.084 135.467 559.284 133.2 561.684 130.8C564.618 128.667 566.351 128 566.884 128.8C568.218 130.133 566.618 132.533 562.084 136L549.684 148.8C543.818 154.667 541.418 158.933 542.484 161.6C544.084 164 547.551 164.4 552.884 162.8C558.218 160.933 563.284 158.267 568.084 154.8ZM604.269 161.6C602.402 160.533 601.469 158.533 601.469 155.6C601.469 152.667 602.002 149.867 603.069 147.2L603.869 145.2L601.469 146.4C600.135 147.467 598.935 148.267 597.869 148.8C597.335 149.067 596.402 149.6 595.069 150.4C593.735 151.2 592.669 151.867 591.869 152.4C590.002 153.467 588.269 153.467 586.669 152.4C585.335 151.067 585.069 149.2 585.869 146.8C586.935 144.133 589.735 140.933 594.269 137.2C599.069 133.467 603.335 131.067 607.069 130C610.269 129.2 612.535 129.867 613.869 132C614.402 132.8 614.802 133.067 615.069 132.8C616.402 132.267 617.335 132.533 617.869 133.6L617.469 134C617.202 134.533 616.935 135.067 616.669 135.6C616.402 135.867 616.135 136.267 615.869 136.8C610.535 142.133 607.069 146.933 605.469 151.2C604.135 155.467 604.269 158.267 605.869 159.6C608.269 161.2 613.735 160.267 622.269 156.8C631.069 153.333 642.002 146.667 655.069 136.8C659.602 133.333 661.735 132.4 661.469 134C661.202 135.067 657.469 138.133 650.269 143.2C643.335 148.267 637.202 152.267 631.869 155.2C628.402 157.067 624.935 158.667 621.469 160C618.002 161.333 614.669 162.267 611.469 162.8C608.535 163.067 606.135 162.667 604.269 161.6ZM593.469 146C592.135 147.6 591.602 148.4 591.869 148.4C592.135 148.4 594.402 147.2 598.669 144.8C607.735 139.733 612.269 135.867 612.269 133.2C611.735 131.6 609.602 132.133 605.869 134.8C601.335 137.733 597.202 141.467 593.469 146ZM708.425 160.8C712.692 161.6 725.625 153.6 747.225 136.8C750.158 134.4 752.292 132.933 753.625 132.4C754.158 132.133 754.558 132.267 754.825 132.8C755.092 133.067 755.092 133.333 754.825 133.6C754.292 134.133 752.025 136 748.025 139.2C745.892 140.8 743.225 142.8 740.025 145.2C737.092 147.333 734.692 149.067 732.825 150.4C731.225 151.733 729.225 153.2 726.825 154.8C724.692 156.4 722.958 157.6 721.625 158.4C720.292 159.2 718.692 160.133 716.825 161.2C715.225 162 713.892 162.533 712.825 162.8C711.758 162.8 710.558 162.933 709.225 163.2C707.892 163.2 706.692 162.933 705.625 162.4C704.825 161.867 703.892 161.067 702.825 160C700.158 157.333 699.358 152.8 700.425 146.4C700.692 145.6 701.092 144.4 701.625 142.8C702.158 141.2 702.425 140.133 702.425 139.6C702.692 138.8 702.692 138.133 702.425 137.6C700.292 139.2 698.158 140.933 696.025 142.8C687.758 149.733 683.625 154.4 683.625 156.8C683.625 157.333 683.358 157.6 682.825 157.6C681.225 157.6 680.692 156.933 681.225 155.6C681.758 154 685.225 148.267 691.625 138.4C697.492 129.333 700.692 123.867 701.225 122C701.492 120.667 701.358 119.867 700.825 119.6C700.292 119.333 699.092 119.467 697.225 120C687.092 122.133 675.092 128.933 661.225 140.4C659.892 141.467 657.892 143.333 655.225 146C652.825 148.4 650.558 150.667 648.425 152.8C646.558 154.667 645.625 155.733 645.625 156L645.225 156.8C644.958 157.067 644.558 157.067 644.025 156.8C643.225 156.267 642.825 155.867 642.825 155.6C642.825 154 647.225 148 656.025 137.6C659.225 133.867 661.892 130.933 664.025 128.8C666.692 126.133 668.558 125.067 669.625 125.6C669.892 125.867 670.025 126.267 670.025 126.8C670.025 128.133 668.292 130.533 664.825 134L664.025 134.8C664.558 134.533 665.892 133.6 668.025 132C679.758 122.4 689.892 117.6 698.425 117.6C700.825 117.6 702.692 118.133 704.025 119.2C705.358 120 705.892 121.333 705.625 123.2C705.358 125.333 703.358 128.933 699.625 134C698.292 135.6 697.092 137.2 696.025 138.8L695.625 139.2C696.158 138.933 696.558 138.667 696.825 138.4C699.492 136.533 701.358 135.6 702.425 135.6C703.225 135.6 703.758 135.733 704.025 136C704.558 136.267 704.825 136.667 704.825 137.2C704.825 137.733 704.825 138.267 704.825 138.8C704.825 139.067 704.558 139.733 704.025 140.8C703.758 141.6 703.625 142.267 703.625 142.8C700.958 154 702.558 160 708.425 160.8ZM767.431 165.2C766.098 164.667 765.165 164 764.631 163.2C764.098 162.4 763.831 160.8 763.831 158.4C764.365 153.067 769.031 145.333 777.831 135.2L781.031 131.6L778.631 133.6C774.365 136.8 767.965 141.067 759.431 146.4C751.165 150.933 746.098 152.133 744.231 150C742.098 147.333 742.631 143.733 745.831 139.2C751.431 131.733 754.631 129.867 755.431 133.6C755.698 134.667 754.631 136.4 752.231 138.8C751.165 139.867 750.098 141.2 749.031 142.8C747.965 144.4 747.165 145.733 746.631 146.8C746.098 147.867 745.965 148.533 746.231 148.8C747.298 149.867 751.698 148.133 759.431 143.6C770.898 137.2 780.765 130 789.031 122C791.965 119.6 793.565 118.4 793.831 118.4C797.031 118.133 798.631 118.8 798.631 120.4C798.631 121.467 795.298 125.067 788.631 131.2C779.031 141.067 772.765 148.4 769.831 153.2C766.098 159.333 765.565 162.667 768.231 163.2C771.165 163.733 774.898 162.8 779.431 160.4C784.231 158 792.365 152.933 803.831 145.2C804.631 144.667 805.831 143.867 807.431 142.8C809.298 141.467 810.898 140.4 812.231 139.6C813.565 138.533 814.765 137.6 815.831 136.8L821.031 133.2C821.565 132.933 821.965 133.067 822.231 133.6C822.765 133.867 822.765 134.267 822.231 134.8L820.231 136.4L814.231 140.8C792.098 156 778.365 164.133 773.031 165.2C769.831 165.733 767.965 165.733 767.431 165.2ZM810.172 155.2C806.705 151.733 806.972 147.2 810.972 141.6C813.905 136.533 818.172 132.8 823.772 130.4C826.972 129.067 829.239 129.067 830.572 130.4C831.639 131.2 831.772 132.533 830.972 134.4C830.439 136.267 829.239 137.867 827.372 139.2C823.639 141.867 819.772 143.467 815.772 144C814.705 144 813.772 144.667 812.972 146C809.772 151.6 811.239 154.8 817.372 155.6C829.372 155.6 844.305 149.333 862.172 136.8L866.972 133.6C867.239 133.333 867.639 133.333 868.172 133.6C868.705 133.867 868.839 134.267 868.572 134.8C858.705 142.8 847.505 149.2 834.972 154C822.439 158.8 814.172 159.2 810.172 155.2ZM816.172 141.6C818.039 141.6 820.705 140.533 824.172 138.4C826.572 136.8 828.172 135.067 828.972 133.2C829.239 132.4 828.972 132 828.172 132L823.772 134.4C818.439 138.4 815.905 140.8 816.172 141.6ZM884.647 160.4C878.247 162.267 873.98 161.467 871.847 158C870.247 154.8 871.847 150 876.647 143.6C878.247 141.467 878.914 140.4 878.647 140.4C877.58 140.933 875.447 141.2 872.247 141.2L866.647 141.6L860.647 148C855.047 154.4 852.38 158.133 852.647 159.2C852.914 160 852.647 160.4 851.847 160.4L851.047 159.6C850.514 159.333 850.114 159.067 849.847 158.8C849.314 158 849.18 156.933 849.447 155.6L852.247 150.4C853.847 148.267 857.847 143.733 864.247 136.8C870.914 129.6 875.314 124.933 877.447 122.8C880.38 120.4 882.247 119.6 883.047 120.4C884.914 121.733 882.114 126.267 874.647 134L868.247 140L872.647 139.6C877.714 139.333 881.314 138.267 883.447 136.4C889.047 131.067 892.647 129.2 894.247 130.8C895.58 131.867 894.914 133.467 892.247 135.6C889.314 138 885.98 141.2 882.247 145.2C878.78 148.933 876.514 151.733 875.447 153.6C874.114 157.6 874.914 159.6 877.847 159.6C881.047 159.6 884.514 158.667 888.247 156.8C895.18 154.133 905.447 148 919.047 138.4L926.647 133.2C927.18 132.933 927.58 132.933 927.847 133.2C928.114 133.467 928.114 133.867 927.847 134.4C927.047 135.467 920.647 140.133 908.647 148.4C899.314 155.067 891.314 159.067 884.647 160.4ZM925.641 167.2C925.641 163.467 928.574 157.6 934.441 149.6L937.241 145.6L936.841 146C936.574 146 936.041 146.267 935.241 146.8C934.707 147.067 934.174 147.333 933.641 147.6C925.641 151.867 920.707 154 918.841 154C917.774 154 916.974 153.733 916.441 153.2C914.574 150.533 916.307 145.867 921.641 139.2C927.241 131.467 931.641 126.933 934.841 125.6L936.041 125.2C937.107 125.2 937.907 126 938.441 127.6C938.974 128.4 937.107 130.8 932.841 134.8C930.707 136.667 928.441 138.933 926.041 141.6C923.907 144 922.174 146.133 920.841 148C919.507 149.6 918.974 150.533 919.241 150.8C919.241 151.067 920.307 150.8 922.441 150C924.841 148.933 927.507 147.6 930.441 146C933.641 144.4 936.307 142.933 938.441 141.6C940.841 140 943.907 137.6 947.641 134.4C951.907 130.4 954.441 128.8 955.241 129.6C956.041 130.667 956.174 131.733 955.641 132.8C955.107 133.867 952.707 136.4 948.441 140.4C936.974 151.867 930.307 160 928.441 164.8C926.041 170.933 930.441 171.6 941.641 166.8C955.774 160.667 973.641 149.6 995.241 133.6C996.307 133.067 997.241 133.2 998.041 134C990.307 140.4 980.841 146.933 969.641 153.6C956.041 162.4 945.774 168 938.841 170.4C930.041 173.867 925.641 172.8 925.641 167.2ZM1020.38 114.8C1017.98 111.867 1017.71 109.467 1019.58 107.6C1020.38 106.8 1021.05 106.533 1021.58 106.8C1022.38 106.8 1023.05 107.067 1023.58 107.6C1024.11 107.867 1024.25 108.267 1023.98 108.8C1022.91 111.2 1022.91 112.933 1023.98 114C1025.05 115.067 1027.05 115.467 1029.98 115.2C1033.71 114.667 1035.58 114 1035.58 113.2C1035.58 112.933 1035.71 112.8 1035.98 112.8C1036.51 112.8 1036.78 113.2 1036.78 114C1036.78 114.533 1036.65 114.933 1036.38 115.2C1034.78 116.8 1031.98 117.6 1027.98 117.6C1024.51 117.6 1021.98 116.667 1020.38 114.8ZM994.781 167.2C994.781 163.467 997.715 157.6 1003.58 149.6L1006.38 145.6L1005.98 146C1005.71 146 1005.18 146.267 1004.38 146.8C1003.85 147.067 1003.31 147.333 1002.78 147.6C994.781 151.867 989.848 154 987.981 154C986.915 154 986.115 153.733 985.581 153.2C983.715 150.533 985.448 145.867 990.781 139.2C996.381 131.467 1000.78 126.933 1003.98 125.6L1005.18 125.2C1006.25 125.2 1007.05 126 1007.58 127.6C1008.11 128.4 1006.25 130.8 1001.98 134.8C999.848 136.667 997.581 138.933 995.181 141.6C993.048 144 991.315 146.133 989.981 148C988.648 149.6 988.115 150.533 988.381 150.8C988.381 151.067 989.448 150.8 991.581 150C993.981 148.933 996.648 147.6 999.581 146C1002.78 144.4 1005.45 142.933 1007.58 141.6C1009.98 140 1013.05 137.6 1016.78 134.4C1021.05 130.4 1023.58 128.8 1024.38 129.6C1025.18 130.667 1025.31 131.733 1024.78 132.8C1024.25 133.867 1021.85 136.4 1017.58 140.4C1006.11 151.867 999.448 160 997.581 164.8C995.181 171.2 999.848 171.733 1011.58 166.4C1025.71 160 1043.58 148.933 1065.18 133.2C1065.98 132.933 1066.65 133.2 1067.18 134C1059.45 140.4 1049.98 146.933 1038.78 153.6C1025.18 162.4 1014.91 168 1007.98 170.4C999.181 173.867 994.781 172.8 994.781 167.2Z" fill="#C19B5C"/>
</svg>
