<svg width="960" height="206" viewBox="0 0 960 206" fill="none" xmlns="http://www.w3.org/2000/svg">
<path d="M22.2438 59.8C21.4437 58.2 22.1104 55.8 24.2438 52.6C28.2438 46.7333 33.3104 40.3333 39.4438 33.4L43.8438 29.4C45.7104 27.5333 47.1771 26.3333 48.2437 25.8C49.5771 25 50.6438 25 51.4438 25.8C51.9771 27.1333 51.5771 28.3333 50.2438 29.4C49.9771 29.6667 49.4438 30.3333 48.6438 31.4C47.8438 32.2 46.7771 33.2667 45.4438 34.6C44.1104 35.9333 43.0438 37.1333 42.2438 38.2C35.5771 45.1333 32.3771 48.6 32.6438 48.6C32.9104 48.6 34.3771 47.6667 37.0438 45.8C39.4438 43.9333 42.9104 41.8 47.4438 39.4C51.9771 36.7333 54.5104 35.4 55.0438 35.4C56.9104 35.4 57.5771 36.2 57.0438 37.8C56.5104 39.1333 55.3104 40.8667 53.4438 43C46.7771 51 46.1104 55.2667 51.4438 55.8C55.4438 56.0667 61.4438 54.3333 69.4438 50.6C77.4438 46.6 84.2438 42.4667 89.8438 38.2C90.9104 37.6667 91.8438 37.9333 92.6438 39C78.2438 50.4667 65.1771 56.7333 53.4438 57.8C47.5771 58.3333 44.7771 56.6 45.0438 52.6C45.3104 49.6667 47.3104 45.9333 51.0438 41.4C52.3771 39.5333 52.9104 38.6 52.6438 38.6C51.8438 37.8 46.6438 41 37.0438 48.2C35.9771 48.7333 32.9104 51.2667 27.8438 55.8C24.6438 59 22.7771 60.3333 22.2438 59.8ZM4.16875 178.2C3.90208 178.733 3.23541 178.467 2.16875 177.4L0.968749 177L4.56874 171.4L42.9687 108.6C75.2354 57.4 98.9688 22.3333 114.169 3.4C116.035 1.26666 117.369 0.333326 118.169 0.599998C118.969 0.599998 119.369 0.733329 119.369 0.999992C119.369 2.33332 114.569 9.93333 104.969 23.8L95.3688 37.4L96.1688 38.6L96.9688 40.2L104.169 36.2C111.102 32.7333 116.169 30.7333 119.369 30.2C122.035 30.2 123.635 31 124.169 32.6C125.235 35.2667 122.835 40.4667 116.969 48.2L111.769 54.2C121.902 58.2 134.302 56.0667 148.969 47.8C153.502 45.1333 158.169 42.0667 162.969 38.6C163.502 38.0667 163.902 37.9333 164.169 38.2C164.702 38.4667 164.835 38.8667 164.569 39.4L162.569 41.4C156.702 45.9333 151.769 49.1333 147.769 51C133.902 58.2 121.102 59.9333 109.369 56.2L105.769 60.2C96.1688 69.2667 89.6354 70.7333 86.1688 64.6C84.8354 61.9333 84.8354 58.4667 86.1688 54.2L86.5688 52.2C86.0354 53 82.8354 57.5333 76.9688 65.8C63.3687 84.4667 48.0354 108.067 30.9687 136.6C14.9687 162.467 6.03542 176.333 4.16875 178.2ZM107.769 52.6C108.035 52.6 108.702 51.9333 109.769 50.6C111.102 49.2667 112.569 47.6667 114.169 45.8C115.769 43.6667 116.969 41.9333 117.769 40.6C119.369 38.4667 120.435 36.6 120.969 35C121.502 33.6667 121.635 32.8667 121.369 32.6C120.569 31.8 116.169 33.2667 108.169 37C101.769 40.4667 98.5688 42.8667 98.5688 44.2C98.5688 45 99.6354 46.6 101.769 49C104.169 51.4 106.169 52.6 107.769 52.6ZM89.7688 65.8C91.9021 66.3333 94.4354 65.4 97.3688 63C98.1688 62.4667 99.2354 61.5333 100.569 60.2C102.169 58.8667 103.502 57.6667 104.569 56.6L105.769 54.6C102.302 52.7333 99.2354 49.8 96.5688 45.8C96.3021 45 95.5021 45.1333 94.1688 46.2C92.8354 47.2667 91.5021 49.2667 90.1688 52.2C87.2354 60.4667 87.1021 65 89.7688 65.8ZM162.406 72.2C162.406 68.4667 165.34 62.6 171.206 54.6L174.006 50.6L173.606 51C173.34 51 172.806 51.2667 172.006 51.8C171.473 52.0667 170.94 52.3333 170.406 52.6C162.406 56.8667 157.473 59 155.606 59C154.54 59 153.74 58.7333 153.206 58.2C151.34 55.5333 153.073 50.8667 158.406 44.2C164.006 36.4667 168.406 31.9333 171.606 30.6L172.806 30.2C173.873 30.2 174.673 31 175.206 32.6C175.74 33.4 173.873 35.8 169.606 39.8C167.473 41.6667 165.206 43.9333 162.806 46.6C160.673 49 158.94 51.1333 157.606 53C156.273 54.6 155.74 55.5333 156.006 55.8C156.006 56.0667 157.073 55.8 159.206 55C161.606 53.9333 164.273 52.6 167.206 51C170.406 49.4 173.073 47.9333 175.206 46.6C177.606 45 180.673 42.6 184.406 39.4C188.673 35.4 191.206 33.8 192.006 34.6C192.806 35.6667 192.94 36.7333 192.406 37.8C191.873 38.8667 189.473 41.4 185.206 45.4C173.74 56.8667 167.073 65 165.206 69.8C162.806 75.9333 167.206 76.6 178.406 71.8C192.54 65.6667 210.406 54.6 232.006 38.6C233.073 38.0667 234.006 38.2 234.806 39C227.073 45.4 217.606 51.9333 206.406 58.6C192.806 67.4 182.54 73 175.606 75.4C166.806 78.8667 162.406 77.8 162.406 72.2ZM249.147 65.4C242.747 67.2667 238.48 66.4667 236.347 63C234.747 59.8 236.347 55 241.147 48.6C242.747 46.4667 243.414 45.4 243.147 45.4C242.08 45.9333 239.947 46.2 236.747 46.2L231.147 46.6L225.147 53C219.547 59.4 216.88 63.1333 217.147 64.2C217.414 65 217.147 65.4 216.347 65.4L215.547 64.6C215.014 64.3333 214.614 64.0667 214.347 63.8C213.814 63 213.68 61.9333 213.947 60.6L216.747 55.4C218.347 53.2667 222.347 48.7333 228.747 41.8C235.414 34.6 239.814 29.9333 241.947 27.8C244.88 25.4 246.747 24.6 247.547 25.4C249.414 26.7333 246.614 31.2667 239.147 39L232.747 45L237.147 44.6C242.214 44.3333 245.814 43.2667 247.947 41.4C253.547 36.0667 257.147 34.2 258.747 35.8C260.08 36.8667 259.414 38.4667 256.747 40.6C253.814 43 250.48 46.2 246.747 50.2C243.28 53.9333 241.014 56.7333 239.947 58.6C238.614 62.6 239.414 64.6 242.347 64.6C245.547 64.6 249.014 63.6667 252.747 61.8C259.68 59.1333 269.947 53 283.547 43.4L291.147 38.2C291.68 37.9333 292.08 37.9333 292.347 38.2C292.614 38.4667 292.614 38.8667 292.347 39.4C291.547 40.4667 285.147 45.1333 273.147 53.4C263.814 60.0667 255.814 64.0667 249.147 65.4ZM294.941 66.6C293.074 65.5333 292.141 63.5333 292.141 60.6C292.141 57.6667 292.674 54.8667 293.741 52.2L294.541 50.2L292.141 51.4C290.807 52.4667 289.607 53.2667 288.541 53.8C288.007 54.0667 287.074 54.6 285.741 55.4C284.407 56.2 283.341 56.8667 282.541 57.4C280.674 58.4667 278.941 58.4667 277.341 57.4C276.007 56.0667 275.741 54.2 276.541 51.8C277.607 49.1333 280.407 45.9333 284.941 42.2C289.741 38.4667 294.007 36.0667 297.741 35C300.941 34.2 303.207 34.8667 304.541 37C305.074 37.8 305.474 38.0667 305.741 37.8C307.074 37.2667 308.007 37.5333 308.541 38.6L308.141 39C307.874 39.5333 307.607 40.0667 307.341 40.6C307.074 40.8667 306.807 41.2667 306.541 41.8C301.207 47.1333 297.741 51.9333 296.141 56.2C294.807 60.4667 294.941 63.2667 296.541 64.6C298.941 66.2 304.407 65.2667 312.941 61.8C321.741 58.3333 332.674 51.6667 345.741 41.8C350.274 38.3333 352.407 37.4 352.141 39C351.874 40.0667 348.141 43.1333 340.941 48.2C334.007 53.2667 327.874 57.2667 322.541 60.2C319.074 62.0667 315.607 63.6667 312.141 65C308.674 66.3333 305.341 67.2667 302.141 67.8C299.207 68.0667 296.807 67.6667 294.941 66.6ZM284.141 51C282.807 52.6 282.274 53.4 282.541 53.4C282.807 53.4 285.074 52.2 289.341 49.8C298.407 44.7333 302.941 40.8667 302.941 38.2C302.407 36.6 300.274 37.1333 296.541 39.8C292.007 42.7333 287.874 46.4667 284.141 51ZM230.297 205.8C222.83 205.8 222.297 198.6 228.697 184.2L231.897 178.2C245.764 151.8 266.297 126.333 293.497 101.8C304.43 92.2 320.83 81.2667 342.697 69C346.164 67.1333 348.964 64.4667 351.097 61L354.697 55.4L353.097 56.6L352.297 57.4C349.097 60.3333 346.03 62.2 343.097 63C340.164 63.8 338.164 63.2667 337.097 61.4C334.964 57.4 337.764 51.4 345.497 43.4C353.497 35.1333 360.297 31 365.897 31C368.03 31 369.23 31.4 369.497 32.2C370.297 32.7333 370.83 32.8667 371.097 32.6L376.697 25.8C381.23 19.9333 384.164 16.4667 385.497 15.4C387.897 13 389.497 11.8 390.297 11.8L391.097 12.6C391.097 13.4 390.03 14.8667 387.897 17C381.764 24.4667 371.364 38.8667 356.697 60.2L353.897 64.2C370.164 57 384.564 49.2667 397.097 41L401.097 38.2C401.63 37.6667 402.164 37.9333 402.697 39C402.43 39.5333 401.764 40.2 400.697 41L399.097 42.2C392.964 46.7333 377.23 55.2667 351.897 67.8L347.097 74.2C326.83 103.533 304.164 133.267 279.097 163.4C255.63 191.667 239.364 205.8 230.297 205.8ZM341.497 61C344.43 61 348.43 58.6 353.497 53.8C358.83 48.7333 362.964 44.0667 365.897 39.8C367.764 37.1333 368.697 35.4 368.697 34.6C368.697 33.8 368.297 33.4 367.497 33.4C362.697 33.4 355.764 38.7333 346.697 49.4C340.03 57.1333 338.297 61 341.497 61ZM229.097 203.4C235.23 203.933 246.03 195.667 261.497 178.6C285.23 152.2 310.564 119.533 337.497 80.6L344.697 70.6C335.63 75.1333 327.097 80.0667 319.097 85.4C309.764 91.2667 299.23 99.9333 287.497 111.4C275.764 122.867 266.297 133.533 259.097 143.4C240.164 167.4 229.63 185.533 227.497 197.8C226.697 201.533 227.23 203.4 229.097 203.4ZM416.306 70.2C414.973 69.6667 414.04 69 413.506 68.2C412.973 67.4 412.706 65.8 412.706 63.4C413.24 58.0667 417.906 50.3333 426.706 40.2L429.906 36.6L427.506 38.6C423.24 41.8 416.84 46.0667 408.306 51.4C400.04 55.9333 394.973 57.1333 393.106 55C390.973 52.3333 391.506 48.7333 394.706 44.2C400.306 36.7333 403.506 34.8667 404.306 38.6C404.573 39.6667 403.506 41.4 401.106 43.8C400.04 44.8667 398.973 46.2 397.906 47.8C396.84 49.4 396.04 50.7333 395.506 51.8C394.973 52.8667 394.84 53.5333 395.106 53.8C396.173 54.8667 400.573 53.1333 408.306 48.6C419.773 42.2 429.64 35 437.906 27C440.84 24.6 442.44 23.4 442.706 23.4C445.906 23.1333 447.506 23.8 447.506 25.4C447.506 26.4667 444.173 30.0667 437.506 36.2C427.906 46.0667 421.64 53.4 418.706 58.2C414.973 64.3333 414.44 67.6667 417.106 68.2C420.04 68.7333 423.773 67.8 428.306 65.4C433.106 63 441.24 57.9333 452.706 50.2C453.506 49.6667 454.706 48.8667 456.306 47.8C458.173 46.4667 459.773 45.4 461.106 44.6C462.44 43.5333 463.64 42.6 464.706 41.8L469.906 38.2C470.44 37.9333 470.84 38.0667 471.106 38.6C471.64 38.8667 471.64 39.2667 471.106 39.8L469.106 41.4L463.106 45.8C440.973 61 427.24 69.1333 421.906 70.2C418.706 70.7333 416.84 70.7333 416.306 70.2ZM459.047 60.2C455.58 56.7333 455.847 52.2 459.847 46.6C462.78 41.5333 467.047 37.8 472.647 35.4C475.847 34.0667 478.114 34.0667 479.447 35.4C480.514 36.2 480.647 37.5333 479.847 39.4C479.314 41.2667 478.114 42.8667 476.247 44.2C472.514 46.8667 468.647 48.4667 464.647 49C463.58 49 462.647 49.6667 461.847 51C458.647 56.6 460.114 59.8 466.247 60.6C478.247 60.6 493.18 54.3333 511.047 41.8L515.847 38.6C516.114 38.3333 516.514 38.3333 517.047 38.6C517.58 38.8667 517.714 39.2667 517.447 39.8C507.58 47.8 496.38 54.2 483.847 59C471.314 63.8 463.047 64.2 459.047 60.2ZM465.047 46.6C466.914 46.6 469.58 45.5333 473.047 43.4C475.447 41.8 477.047 40.0667 477.847 38.2C478.114 37.4 477.847 37 477.047 37L472.647 39.4C467.314 43.4 464.78 45.8 465.047 46.6ZM565.522 69C558.855 66.3333 559.122 59.8 566.322 49.4L569.922 45C570.989 43.4 571.389 42.6 571.122 42.6C569.522 42.6 562.455 46.3333 549.922 53.8L540.322 60.6C538.189 62.7333 537.122 64.2 537.122 65C537.122 65.2667 536.722 65.2667 535.922 65C535.122 64.2 534.989 63.6667 535.522 63.4C536.055 61.5333 540.055 56.3333 547.522 47.8L551.522 43.4L539.122 48.6C537.255 49.6667 534.989 51.1333 532.322 53C522.455 61 516.322 65 513.922 65C511.522 65 510.855 63.9333 511.922 61.8C512.189 61.2667 512.722 61.1333 513.522 61.4C514.055 61.6667 516.722 59.9333 521.522 56.2C521.789 55.9333 522.322 55.5333 523.122 55C524.989 53.4 525.922 52.4667 525.922 52.2C525.655 51.9333 525.922 51.5333 526.722 51L528.722 50.6C528.989 50.6 530.055 49.8 531.922 48.2C533.789 46.6 535.789 44.7333 537.922 42.6C540.055 40.4667 541.522 38.8667 542.322 37.8C545.789 33.8 548.189 30.3333 549.522 27.4L549.922 25.4H548.322C544.589 25.4 538.589 27.6667 530.322 32.2C524.189 35.6667 518.322 39.4 512.722 43.4L511.122 41.8C522.322 33 533.255 26.8667 543.922 23.4C548.189 22.3333 550.989 22.8667 552.322 25C553.389 26.6 553.122 28.7333 551.522 31.4C549.389 35.6667 546.455 39.6667 542.722 43.4L540.322 46.6C540.589 46.6 541.655 46.2 543.522 45.4C549.922 43 554.722 40.2 557.922 37C562.189 33 564.855 31.8 565.922 33.4C566.189 33.9333 563.122 37.2667 556.722 43.4L547.122 53L549.122 51.8C555.255 48.3333 562.455 44.8667 570.722 41.4C573.389 40.0667 575.522 38.8667 577.122 37.8C582.455 33.2667 587.522 30.3333 592.322 29C592.855 28.7333 594.055 28.6 595.922 28.6C600.722 28.6 602.055 31 599.922 35.8C599.389 37.1333 598.322 38.3333 596.722 39.4C595.122 40.2 594.055 40.3333 593.522 39.8C593.255 39.5333 593.122 39.2667 593.122 39C593.122 38.4667 593.389 38.2 593.922 38.2C594.189 38.4667 594.855 38.2 595.922 37.4C596.989 36.3333 597.789 35.4 598.322 34.6C599.655 32.4667 599.522 31.4 597.922 31.4C593.655 31.4 587.922 34.6 580.722 41C573.522 47.1333 568.455 53 565.522 58.6C562.855 63.9333 563.522 66.8667 567.522 67.4C579.789 69.8 598.855 62.7333 624.722 46.2C626.855 44.8667 629.255 43.2667 631.922 41.4C635.122 39.2667 636.989 38.7333 637.522 39.8C637.522 40.0667 636.055 41.2667 633.122 43.4C630.455 45.2667 626.855 47.5333 622.322 50.2C618.055 52.8667 614.189 55.1333 610.722 57C589.122 68.4667 574.055 72.4667 565.522 69ZM653.053 65.4C646.653 67.2667 642.386 66.4667 640.253 63C638.653 59.8 640.253 55 645.053 48.6C646.653 46.4667 647.32 45.4 647.053 45.4C645.986 45.9333 643.853 46.2 640.653 46.2L635.053 46.6L629.053 53C623.453 59.4 620.786 63.1333 621.053 64.2C621.32 65 621.053 65.4 620.253 65.4L619.453 64.6C618.92 64.3333 618.52 64.0667 618.253 63.8C617.72 63 617.586 61.9333 617.853 60.6L620.653 55.4C622.253 53.2667 626.253 48.7333 632.653 41.8C639.32 34.6 643.72 29.9333 645.853 27.8C648.786 25.4 650.653 24.6 651.453 25.4C653.32 26.7333 650.52 31.2667 643.053 39L636.653 45L641.053 44.6C646.12 44.3333 649.72 43.2667 651.853 41.4C657.453 36.0667 661.053 34.2 662.653 35.8C663.986 36.8667 663.32 38.4667 660.653 40.6C657.72 43 654.386 46.2 650.653 50.2C647.186 53.9333 644.92 56.7333 643.853 58.6C642.52 62.6 643.32 64.6 646.253 64.6C649.453 64.6 652.92 63.6667 656.653 61.8C663.586 59.1333 673.853 53 687.453 43.4L695.053 38.2C695.586 37.9333 695.986 37.9333 696.253 38.2C696.52 38.4667 696.52 38.8667 696.253 39.4C695.453 40.4667 689.053 45.1333 677.053 53.4C667.72 60.0667 659.72 64.0667 653.053 65.4ZM684.847 57.4C683.78 56.0667 683.78 54.0667 684.847 51.4C685.647 48.7333 688.314 44.8667 692.847 39.8C695.247 37.1333 697.514 35 699.647 33.4L703.647 31C704.98 31 705.647 30.6 705.647 29.8C705.647 29.5333 706.314 29.4 707.647 29.4C709.514 29.9333 710.58 30.6 710.847 31.4C710.314 31.9333 709.914 32.0667 709.647 31.8C709.114 32.0667 708.714 32.6 708.447 33.4L707.647 37C707.114 40.2 707.647 42.6 709.247 44.2C717.247 51.4 727.914 49.9333 741.247 39.8L744.047 38.2C745.114 37.6667 745.78 37.9333 746.047 39L741.247 42.6C736.98 45.8 732.047 48.0667 726.447 49.4C720.847 50.7333 715.514 50.0667 710.447 47.4C708.847 46.0667 707.647 44.8667 706.847 43.8C706.314 42.7333 705.914 42.4667 705.647 43C703.78 46.7333 701.247 50.2 698.047 53.4C691.914 59.2667 687.514 60.6 684.847 57.4ZM687.247 57C688.314 58.3333 691.38 56.4667 696.447 51.4C700.18 48.2 702.847 44.2 704.447 39.4C704.98 37.8 705.247 36.6 705.247 35.8L704.847 34.2L700.847 38.2C696.047 42.4667 692.314 46.6 689.647 50.6C687.78 54.0667 686.98 56.2 687.247 57ZM735.275 61.4C732.342 59 731.408 55.9333 732.475 52.2C733.808 48.4667 736.475 44.4667 740.475 40.2C744.742 35.9333 749.008 32.8667 753.275 31C755.675 29.9333 757.808 29.6667 759.675 30.2C761.542 30.4667 762.475 31.2667 762.475 32.6C762.475 34.7333 760.875 37.5333 757.675 41C753.675 44.4667 751.008 46.2 749.675 46.2C747.808 46.2 748.075 45.4 750.475 43.8C753.408 41.9333 755.942 39.8 758.075 37.4C760.208 34.7333 760.875 33 760.075 32.2C759.275 31.4 756.742 32.4667 752.475 35.4C746.875 38.8667 742.342 43.1333 738.875 48.2C735.675 53 734.742 56.6 736.075 59C737.142 61.4 741.142 62.2 748.075 61.4C755.008 60.6 762.475 58.3333 770.475 54.6C777.675 51.1333 784.742 46.8667 791.675 41.8C792.475 41.2667 793.542 40.6 794.875 39.8L796.875 38.2C797.675 38.2 798.208 38.6 798.475 39.4L796.475 41C792.475 44.2 786.875 47.9333 779.675 52.2L770.875 56.6C754.075 64.8667 742.208 66.4667 735.275 61.4ZM844.409 65.8C848.676 66.6 861.609 58.6 883.209 41.8C886.143 39.4 888.276 37.9333 889.609 37.4C890.143 37.1333 890.543 37.2667 890.809 37.8C891.076 38.0667 891.076 38.3333 890.809 38.6C890.276 39.1333 888.009 41 884.009 44.2C881.876 45.8 879.209 47.8 876.009 50.2C873.076 52.3333 870.676 54.0667 868.809 55.4C867.209 56.7333 865.209 58.2 862.809 59.8C860.676 61.4 858.943 62.6 857.609 63.4C856.276 64.2 854.676 65.1333 852.809 66.2C851.209 67 849.876 67.5333 848.809 67.8C847.743 67.8 846.543 67.9333 845.209 68.2C843.876 68.2 842.676 67.9333 841.609 67.4C840.809 66.8667 839.876 66.0667 838.809 65C836.143 62.3333 835.343 57.8 836.409 51.4C836.676 50.6 837.076 49.4 837.609 47.8C838.143 46.2 838.409 45.1333 838.409 44.6C838.676 43.8 838.676 43.1333 838.409 42.6C836.276 44.2 834.143 45.9333 832.009 47.8C823.743 54.7333 819.609 59.4 819.609 61.8C819.609 62.3333 819.343 62.6 818.809 62.6C817.209 62.6 816.676 61.9333 817.209 60.6C817.743 59 821.209 53.2667 827.609 43.4C833.476 34.3333 836.676 28.8667 837.209 27C837.476 25.6667 837.343 24.8667 836.809 24.6C836.276 24.3333 835.076 24.4667 833.209 25C823.076 27.1333 811.076 33.9333 797.209 45.4C795.876 46.4667 793.876 48.3333 791.209 51C788.809 53.4 786.543 55.6667 784.409 57.8C782.543 59.6667 781.609 60.7333 781.609 61L781.209 61.8C780.943 62.0667 780.543 62.0667 780.009 61.8C779.209 61.2667 778.809 60.8667 778.809 60.6C778.809 59 783.209 53 792.009 42.6C795.209 38.8667 797.876 35.9333 800.009 33.8C802.676 31.1333 804.543 30.0667 805.609 30.6C805.876 30.8667 806.009 31.2667 806.009 31.8C806.009 33.1333 804.276 35.5333 800.809 39L800.009 39.8C800.543 39.5333 801.876 38.6 804.009 37C815.743 27.4 825.876 22.6 834.409 22.6C836.809 22.6 838.676 23.1333 840.009 24.2C841.343 25 841.876 26.3333 841.609 28.2C841.343 30.3333 839.343 33.9333 835.609 39C834.276 40.6 833.076 42.2 832.009 43.8L831.609 44.2C832.143 43.9333 832.543 43.6667 832.809 43.4C835.476 41.5333 837.343 40.6 838.409 40.6C839.209 40.6 839.743 40.7333 840.009 41C840.543 41.2667 840.809 41.6667 840.809 42.2C840.809 42.7333 840.809 43.2667 840.809 43.8C840.809 44.0667 840.543 44.7333 840.009 45.8C839.743 46.6 839.609 47.2667 839.609 47.8C836.943 59 838.543 65 844.409 65.8ZM887.016 72.2C887.016 68.4667 889.949 62.6 895.816 54.6L898.616 50.6L898.216 51C897.949 51 897.416 51.2667 896.616 51.8C896.082 52.0667 895.549 52.3333 895.016 52.6C887.016 56.8667 882.082 59 880.216 59C879.149 59 878.349 58.7333 877.816 58.2C875.949 55.5333 877.682 50.8667 883.016 44.2C888.616 36.4667 893.016 31.9333 896.216 30.6L897.416 30.2C898.482 30.2 899.282 31 899.816 32.6C900.349 33.4 898.482 35.8 894.216 39.8C892.082 41.6667 889.816 43.9333 887.416 46.6C885.282 49 883.549 51.1333 882.216 53C880.882 54.6 880.349 55.5333 880.616 55.8C880.616 56.0667 881.682 55.8 883.816 55C886.216 53.9333 888.882 52.6 891.816 51C895.016 49.4 897.682 47.9333 899.816 46.6C902.216 45 905.282 42.6 909.016 39.4C913.282 35.4 915.816 33.8 916.616 34.6C917.416 35.6667 917.549 36.7333 917.016 37.8C916.482 38.8667 914.082 41.4 909.816 45.4C898.349 56.8667 891.682 65 889.816 69.8C887.416 75.9333 891.816 76.6 903.016 71.8C917.149 65.6667 935.016 54.6 956.616 38.6C957.682 38.0667 958.616 38.2 959.416 39C951.682 45.4 942.216 51.9333 931.016 58.6C917.416 67.4 907.149 73 900.216 75.4C891.416 78.8667 887.016 77.8 887.016 72.2Z" fill="#C19B5C"/>
</svg>
