<svg width="190" height="103" viewBox="0 0 190 103" fill="none" xmlns="http://www.w3.org/2000/svg">
<path d="M2.11996 100.96C2.00663 101.187 1.72329 101.073 1.26996 100.62L0.759961 100.45L2.28996 98.07L18.61 71.38C32.3233 49.62 42.41 34.7167 48.87 26.67C49.6633 25.7633 50.23 25.3667 50.57 25.48C50.91 25.48 51.08 25.5367 51.08 25.65C51.08 26.2167 49.04 29.4467 44.96 35.34L40.88 41.12L41.22 41.63L41.56 42.31L44.62 40.61C47.5666 39.1367 49.72 38.2867 51.08 38.06C52.2133 38.06 52.8933 38.4 53.12 39.08C53.5733 40.2133 52.5533 42.4233 50.06 45.71L47.85 48.26C52.1566 49.96 57.4266 49.0533 63.66 45.54C65.5866 44.4067 67.57 43.1033 69.61 41.63C69.8366 41.4033 70.0066 41.3467 70.12 41.46C70.3466 41.5733 70.4033 41.7433 70.29 41.97L69.44 42.82C66.9466 44.7467 64.85 46.1067 63.15 46.9C57.2566 49.96 51.8166 50.6967 46.83 49.11L45.3 50.81C41.22 54.6633 38.4433 55.2867 36.97 52.68C36.4033 51.5467 36.4033 50.0733 36.97 48.26L37.14 47.41C36.9133 47.75 35.5533 49.6767 33.06 53.19C27.28 61.1233 20.7633 71.1533 13.51 83.28C6.70996 94.2733 2.91329 100.167 2.11996 100.96ZM46.15 47.58C46.2633 47.58 46.5466 47.2967 47 46.73C47.5666 46.1633 48.19 45.4833 48.87 44.69C49.55 43.7833 50.06 43.0467 50.4 42.48C51.08 41.5733 51.5333 40.78 51.76 40.1C51.9866 39.5333 52.0433 39.1933 51.93 39.08C51.59 38.74 49.72 39.3633 46.32 40.95C43.6 42.4233 42.24 43.4433 42.24 44.01C42.24 44.35 42.6933 45.03 43.6 46.05C44.62 47.07 45.47 47.58 46.15 47.58ZM38.5 53.19C39.4066 53.4167 40.4833 53.02 41.73 52C42.07 51.7733 42.5233 51.3767 43.09 50.81C43.77 50.2433 44.3366 49.7333 44.79 49.28L45.3 48.43C43.8266 47.6367 42.5233 46.39 41.39 44.69C41.2766 44.35 40.9366 44.4067 40.37 44.86C39.8033 45.3133 39.2366 46.1633 38.67 47.41C37.4233 50.9233 37.3666 52.85 38.5 53.19ZM26.1909 102.32C25.1709 102.207 24.3776 101.98 23.8109 101.64C22.9042 100.847 22.5076 99.6 22.6209 97.9C22.6209 95.9733 23.3576 93.48 24.8309 90.42C27.0976 86 30.4976 81.3533 35.0309 76.48C39.5642 71.4933 44.4376 67.0733 49.6509 63.22C54.4109 59.5933 58.9442 57.4967 63.2509 56.93L65.4609 56.59L66.8209 54.89L72.6009 47.41L71.0709 48.26C68.6909 49.7333 66.9909 50.0733 65.9709 49.28C65.7442 48.94 65.6309 48.43 65.6309 47.75C65.8576 46.39 67.1042 44.18 69.3709 41.12C70.9576 39.3067 71.9776 38.4 72.4309 38.4C73.2242 38.4 73.6209 38.6267 73.6209 39.08C73.1676 39.6467 72.7142 40.1567 72.2609 40.61C68.8609 44.8033 67.2742 47.5233 67.5009 48.77C68.2942 48.77 70.3342 47.6367 73.6209 45.37C74.6409 44.8033 76.0009 43.5567 77.7009 41.63C80.6476 38.57 82.4042 37.0967 82.9709 37.21C83.3109 37.21 83.4809 37.2667 83.4809 37.38C83.4809 37.6067 82.6309 38.6833 80.9309 40.61L68.3509 56.08C71.1842 55.5133 76.2842 53.4167 83.6509 49.79C87.0509 48.2033 90.9609 45.8233 95.3809 42.65C96.2876 41.97 96.8542 41.5733 97.0809 41.46C97.4209 41.46 97.6476 41.5733 97.7609 41.8L96.7409 42.82C92.2076 46.1067 87.3342 49.0533 82.1209 51.66C75.5476 54.72 70.8442 56.59 68.0109 57.27C67.5576 57.3833 66.9909 57.8367 66.3109 58.63C65.7442 59.4233 63.3642 62.71 59.1709 68.49C51.3509 79.1433 45.2876 86.9067 40.9809 91.78C36.5609 96.6533 32.7642 99.8833 29.5909 101.47C28.1176 102.037 26.9842 102.32 26.1909 102.32ZM24.4909 100.96C26.3042 102.207 29.9309 100.223 35.3709 95.01C39.6776 90.93 46.2509 82.94 55.0909 71.04L64.4409 58.12C64.4409 57.8933 64.3276 57.78 64.1009 57.78C59.9076 58.12 54.8642 60.5567 48.9709 65.09C46.8176 66.6767 44.2109 68.9433 41.1509 71.89C31.0642 81.41 25.2842 89.7967 23.8109 97.05C23.4709 98.9767 23.6976 100.28 24.4909 100.96ZM89.4575 52.17C89.0041 51.49 89.0041 50.5833 89.4575 49.45C89.7975 48.3167 90.9875 46.6167 93.0275 44.35C94.0475 43.1033 95.0675 42.1967 96.0875 41.63L97.7875 40.44C98.3541 40.44 98.6375 40.27 98.6375 39.93C98.6375 39.8167 98.9208 39.76 99.4875 39.76C99.9408 39.76 100.394 39.8733 100.847 40.1L101.867 38.4C104.814 32.8467 106.684 28.2567 107.477 24.63C108.837 18.7367 109.404 13.58 109.177 9.16C109.064 8.36666 108.837 7.97 108.497 7.97C107.477 7.97 104.247 9.04666 98.8075 11.2C98.6941 11.2 98.5241 11.2567 98.2975 11.37L97.4475 11.71L97.7875 11.88C98.4675 12.22 98.2408 12.56 97.1075 12.9C96.8808 12.9 96.6541 12.9567 96.4275 13.07C95.2941 13.41 94.5575 13.41 94.2175 13.07C93.7641 12.8433 93.5375 12.56 93.5375 12.22C93.5375 11.3133 95.3508 10.18 98.9775 8.82C106.457 5.64666 116.317 3.26666 128.557 1.68C136.491 0.773331 142.327 0.489996 146.067 0.829992C150.374 1.28333 152.527 2.41666 152.527 4.22999C152.414 5.02333 151.791 5.81666 150.657 6.61C150.204 6.95 149.751 6.95 149.297 6.61L148.787 6.27L149.807 5.08C150.487 4.4 150.827 3.94666 150.827 3.72C150.714 2.7 146.861 2.36 139.267 2.7C129.861 3.38 121.304 4.68333 113.597 6.61L109.857 7.46L110.027 10.69C110.027 14.43 109.801 17.83 109.347 20.89C108.441 25.99 107.761 29.1633 107.307 30.41C106.174 33.47 104.814 36.36 103.227 39.08C100.054 44.7467 97.3908 48.4867 95.2375 50.3C92.6308 52.7933 90.7041 53.4167 89.4575 52.17ZM90.6475 51.83C91.2141 52.17 92.5175 51.32 94.5575 49.28C96.5975 47.1267 97.7308 45.4833 97.9575 44.35C98.4108 43.67 98.5241 43.0467 98.2975 42.48V41.97L96.5975 43.67C94.6708 45.2567 93.0275 47.07 91.6675 49.11C90.7608 50.47 90.4208 51.3767 90.6475 51.83ZM116.351 55.06C115.784 54.8333 115.387 54.55 115.161 54.21C114.934 53.87 114.821 53.19 114.821 52.17C115.047 49.9033 117.031 46.6167 120.771 42.31L122.131 40.78L121.111 41.63C119.297 42.99 116.577 44.8033 112.951 47.07C109.437 48.9967 107.284 49.5067 106.491 48.6C105.584 47.4667 105.811 45.9367 107.171 44.01C109.551 40.8367 110.911 40.0433 111.251 41.63C111.364 42.0833 110.911 42.82 109.891 43.84C109.437 44.2933 108.984 44.86 108.531 45.54C108.077 46.22 107.737 46.7867 107.511 47.24C107.284 47.6933 107.227 47.9767 107.341 48.09C107.794 48.5433 109.664 47.8067 112.951 45.88C117.824 43.16 122.017 40.1 125.531 36.7C126.777 35.68 127.457 35.17 127.571 35.17C128.931 35.0567 129.611 35.34 129.611 36.02C129.611 36.4733 128.194 38.0033 125.361 40.61C121.281 44.8033 118.617 47.92 117.371 49.96C115.784 52.5667 115.557 53.9833 116.691 54.21C117.937 54.4367 119.524 54.04 121.451 53.02C123.491 52 126.947 49.8467 131.821 46.56C132.161 46.3333 132.671 45.9933 133.351 45.54C134.144 44.9733 134.824 44.52 135.391 44.18C135.957 43.7267 136.467 43.33 136.921 42.99L139.131 41.46C139.357 41.3467 139.527 41.4033 139.641 41.63C139.867 41.7433 139.867 41.9133 139.641 42.14L138.791 42.82L136.241 44.69C126.834 51.15 120.997 54.6067 118.731 55.06C117.371 55.2867 116.577 55.2867 116.351 55.06ZM134.515 50.81C133.042 49.3367 133.155 47.41 134.855 45.03C136.102 42.8767 137.915 41.29 140.295 40.27C141.655 39.7033 142.619 39.7033 143.185 40.27C143.639 40.61 143.695 41.1767 143.355 41.97C143.129 42.7633 142.619 43.4433 141.825 44.01C140.239 45.1433 138.595 45.8233 136.895 46.05C136.442 46.05 136.045 46.3333 135.705 46.9C134.345 49.28 134.969 50.64 137.575 50.98C142.675 50.98 149.022 48.3167 156.615 42.99L158.655 41.63C158.769 41.5167 158.939 41.5167 159.165 41.63C159.392 41.7433 159.449 41.9133 159.335 42.14C155.142 45.54 150.382 48.26 145.055 50.3C139.729 52.34 136.215 52.51 134.515 50.81ZM137.065 45.03C137.859 45.03 138.992 44.5767 140.465 43.67C141.485 42.99 142.165 42.2533 142.505 41.46C142.619 41.12 142.505 40.95 142.165 40.95L140.295 41.97C138.029 43.67 136.952 44.69 137.065 45.03ZM169.235 33.64C168.215 32.3933 168.102 31.3733 168.895 30.58C169.235 30.24 169.519 30.1267 169.745 30.24C170.085 30.24 170.369 30.3533 170.595 30.58C170.822 30.6933 170.879 30.8633 170.765 31.09C170.312 32.11 170.312 32.8467 170.765 33.3C171.219 33.7533 172.069 33.9233 173.315 33.81C174.902 33.5833 175.695 33.3 175.695 32.96C175.695 32.8467 175.752 32.79 175.865 32.79C176.092 32.79 176.205 32.96 176.205 33.3C176.205 33.5267 176.149 33.6967 176.035 33.81C175.355 34.49 174.165 34.83 172.465 34.83C170.992 34.83 169.915 34.4333 169.235 33.64ZM158.355 55.91C158.355 54.3233 159.602 51.83 162.095 48.43L163.285 46.73L163.115 46.9C163.002 46.9 162.775 47.0133 162.435 47.24C162.209 47.3533 161.982 47.4667 161.755 47.58C158.355 49.3933 156.259 50.3 155.465 50.3C155.012 50.3 154.672 50.1867 154.445 49.96C153.652 48.8267 154.389 46.8433 156.655 44.01C159.035 40.7233 160.905 38.7967 162.265 38.23L162.775 38.06C163.229 38.06 163.569 38.4 163.795 39.08C164.022 39.42 163.229 40.44 161.415 42.14C160.509 42.9333 159.545 43.8967 158.525 45.03C157.619 46.05 156.882 46.9567 156.315 47.75C155.749 48.43 155.522 48.8267 155.635 48.94C155.635 49.0533 156.089 48.94 156.995 48.6C158.015 48.1467 159.149 47.58 160.395 46.9C161.755 46.22 162.889 45.5967 163.795 45.03C164.815 44.35 166.119 43.33 167.705 41.97C169.519 40.27 170.595 39.59 170.935 39.93C171.275 40.3833 171.332 40.8367 171.105 41.29C170.879 41.7433 169.859 42.82 168.045 44.52C163.172 49.3933 160.339 52.85 159.545 54.89C158.525 57.61 160.509 57.8367 165.495 55.57C171.502 52.85 179.095 48.1467 188.275 41.46C188.615 41.3467 188.899 41.46 189.125 41.8C185.839 44.52 181.815 47.2967 177.055 50.13C171.275 53.87 166.912 56.25 163.965 57.27C160.225 58.7433 158.355 58.29 158.355 55.91Z" fill="#C19B5C"/>
</svg>
