<svg width="278" height="151" viewBox="0 0 278 151" fill="none" xmlns="http://www.w3.org/2000/svg">
<path d="M2.76465 148C2.59798 148.333 2.18131 148.167 1.51465 147.5L0.764648 147.25L3.01464 143.75L27.0146 104.5C47.1813 72.5 62.0146 50.5833 71.5146 38.75C72.6813 37.4167 73.5146 36.8333 74.0146 37C74.5147 37 74.7647 37.0833 74.7647 37.25C74.7647 38.0833 71.7647 42.8333 65.7646 51.5L59.7646 60L60.2646 60.75L60.7646 61.75L65.2647 59.25C69.598 57.0833 72.7647 55.8333 74.7647 55.5C76.4313 55.5 77.4313 56 77.7646 57C78.4313 58.6667 76.9313 61.9167 73.2646 66.75L70.0147 70.5C76.348 73 84.098 71.6667 93.2646 66.5C96.098 64.8333 99.0147 62.9167 102.015 60.75C102.348 60.4167 102.598 60.3333 102.765 60.5C103.098 60.6667 103.181 60.9167 103.015 61.25L101.765 62.5C98.098 65.3333 95.0147 67.3333 92.5147 68.5C83.848 73 75.848 74.0833 68.5146 71.75L66.2647 74.25C60.2646 79.9167 56.1813 80.8333 54.0146 77C53.1813 75.3333 53.1813 73.1667 54.0146 70.5L54.2646 69.25C53.9313 69.75 51.9313 72.5833 48.2646 77.75C39.7646 89.4167 30.1813 104.167 19.5146 122C9.51465 138.167 3.93131 146.833 2.76465 148ZM67.5146 69.5C67.6813 69.5 68.098 69.0833 68.7646 68.25C69.598 67.4167 70.5147 66.4167 71.5146 65.25C72.5146 63.9167 73.2646 62.8333 73.7647 62C74.7647 60.6667 75.4313 59.5 75.7646 58.5C76.098 57.6667 76.1813 57.1667 76.0146 57C75.5146 56.5 72.7646 57.4167 67.7646 59.75C63.7646 61.9167 61.7646 63.4167 61.7646 64.25C61.7646 64.75 62.4313 65.75 63.7646 67.25C65.2646 68.75 66.5146 69.5 67.5146 69.5ZM56.2646 77.75C57.598 78.0833 59.1813 77.5 61.0146 76C61.5146 75.6667 62.1813 75.0833 63.0146 74.25C64.0146 73.4167 64.848 72.6667 65.5146 72L66.2647 70.75C64.098 69.5833 62.1813 67.75 60.5146 65.25C60.348 64.75 59.848 64.8333 59.0146 65.5C58.1813 66.1667 57.348 67.4167 56.5146 69.25C54.6813 74.4167 54.598 77.25 56.2646 77.75ZM38.1631 150C36.6631 149.833 35.4964 149.5 34.6631 149C33.3297 147.833 32.7464 146 32.9131 143.5C32.9131 140.667 33.9964 137 36.1631 132.5C39.4964 126 44.4964 119.167 51.1631 112C57.8298 104.667 64.9964 98.1667 72.6631 92.5C79.6631 87.1667 86.3298 84.0833 92.6631 83.25L95.9131 82.75L97.9131 80.25L106.413 69.25L104.163 70.5C100.663 72.6667 98.1631 73.1667 96.6631 72C96.3298 71.5 96.1631 70.75 96.1631 69.75C96.4964 67.75 98.3298 64.5 101.663 60C103.996 57.3333 105.496 56 106.163 56C107.33 56 107.913 56.3333 107.913 57C107.246 57.8333 106.58 58.5833 105.913 59.25C100.913 65.4167 98.5798 69.4167 98.9131 71.25C100.08 71.25 103.08 69.5833 107.913 66.25C109.413 65.4167 111.413 63.5833 113.913 60.75C118.246 56.25 120.83 54.0833 121.663 54.25C122.163 54.25 122.413 54.3333 122.413 54.5C122.413 54.8333 121.163 56.4167 118.663 59.25L100.163 82C104.33 81.1667 111.83 78.0833 122.663 72.75C127.663 70.4167 133.413 66.9167 139.913 62.25C141.246 61.25 142.08 60.6667 142.413 60.5C142.913 60.5 143.246 60.6667 143.413 61L141.913 62.5C135.246 67.3333 128.08 71.6667 120.413 75.5C110.746 80 103.83 82.75 99.6631 83.75C98.9964 83.9167 98.1631 84.5833 97.1631 85.75C96.3298 86.9167 92.8298 91.75 86.6631 100.25C75.1631 115.917 66.2464 127.333 59.9131 134.5C53.4131 141.667 47.8298 146.417 43.1631 148.75C40.9964 149.583 39.3297 150 38.1631 150ZM35.6631 148C38.3297 149.833 43.6631 146.917 51.6631 139.25C57.9964 133.25 67.6631 121.5 80.6631 104L94.4131 85C94.4131 84.6667 94.2464 84.5 93.9131 84.5C87.7464 85 80.3298 88.5833 71.6631 95.25C68.4964 97.5833 64.6631 100.917 60.1631 105.25C45.3297 119.25 36.8297 131.583 34.6631 142.25C34.1631 145.083 34.4964 147 35.6631 148ZM131.202 76.25C130.535 75.25 130.535 73.9167 131.202 72.25C131.702 70.5833 133.452 68.0833 136.452 64.75C137.952 62.9167 139.452 61.5833 140.952 60.75L143.452 59C144.285 59 144.702 58.75 144.702 58.25C144.702 58.0833 145.119 58 145.952 58C146.619 58 147.285 58.1667 147.952 58.5L149.452 56C153.785 47.8333 156.535 41.0833 157.702 35.75C159.702 27.0833 160.535 19.5 160.202 13C160.035 11.8333 159.702 11.25 159.202 11.25C157.702 11.25 152.952 12.8333 144.952 16C144.785 16 144.535 16.0833 144.202 16.25L142.952 16.75L143.452 17C144.452 17.5 144.119 18 142.452 18.5C142.119 18.5 141.785 18.5833 141.452 18.75C139.785 19.25 138.702 19.25 138.202 18.75C137.535 18.4167 137.202 18 137.202 17.5C137.202 16.1667 139.869 14.5 145.202 12.5C156.202 7.83333 170.702 4.33333 188.702 1.99999C200.369 0.666664 208.952 0.249995 214.452 0.749988C220.785 1.41666 223.952 3.08333 223.952 5.74999C223.785 6.91666 222.869 8.08333 221.202 9.25C220.535 9.75 219.869 9.75 219.202 9.25L218.452 8.75L219.952 7C220.952 6 221.452 5.33333 221.452 4.99999C221.285 3.49999 215.619 2.99999 204.452 3.5C190.619 4.49999 178.035 6.41666 166.702 9.25L161.202 10.5L161.452 15.25C161.452 20.75 161.119 25.75 160.452 30.25C159.119 37.75 158.119 42.4167 157.452 44.25C155.785 48.75 153.785 53 151.452 57C146.785 65.3333 142.869 70.8333 139.702 73.5C135.869 77.1667 133.035 78.0833 131.202 76.25ZM132.952 75.75C133.785 76.25 135.702 75 138.702 72C141.702 68.8333 143.369 66.4167 143.702 64.75C144.369 63.75 144.535 62.8333 144.202 62V61.25L141.702 63.75C138.869 66.0833 136.452 68.75 134.452 71.75C133.119 73.75 132.619 75.0833 132.952 75.75ZM170.751 80.5C169.918 80.1667 169.334 79.75 169.001 79.25C168.668 78.75 168.501 77.75 168.501 76.25C168.834 72.9167 171.751 68.0833 177.251 61.75L179.251 59.5L177.751 60.75C175.084 62.75 171.084 65.4167 165.751 68.75C160.584 71.5833 157.418 72.3333 156.251 71C154.918 69.3333 155.251 67.0833 157.251 64.25C160.751 59.5833 162.751 58.4167 163.251 60.75C163.418 61.4167 162.751 62.5 161.251 64C160.584 64.6667 159.918 65.5 159.251 66.5C158.584 67.5 158.084 68.3333 157.751 69C157.418 69.6667 157.334 70.0833 157.501 70.25C158.168 70.9167 160.918 69.8333 165.751 67C172.918 63 179.084 58.5 184.251 53.5C186.084 52 187.084 51.25 187.251 51.25C189.251 51.0833 190.251 51.5 190.251 52.5C190.251 53.1667 188.168 55.4167 184.001 59.25C178.001 65.4167 174.084 70 172.251 73C169.918 76.8333 169.584 78.9167 171.251 79.25C173.084 79.5833 175.418 79 178.251 77.5C181.251 76 186.334 72.8333 193.501 68C194.001 67.6667 194.751 67.1667 195.751 66.5C196.918 65.6667 197.918 65 198.751 64.5C199.584 63.8333 200.334 63.25 201.001 62.75L204.251 60.5C204.584 60.3333 204.834 60.4167 205.001 60.75C205.334 60.9167 205.334 61.1667 205.001 61.5L203.751 62.5L200.001 65.25C186.168 74.75 177.584 79.8333 174.251 80.5C172.251 80.8333 171.084 80.8333 170.751 80.5ZM197.464 74.25C195.297 72.0833 195.464 69.25 197.964 65.75C199.797 62.5833 202.464 60.25 205.964 58.75C207.964 57.9167 209.381 57.9167 210.214 58.75C210.881 59.25 210.964 60.0833 210.464 61.25C210.131 62.4167 209.381 63.4167 208.214 64.25C205.881 65.9167 203.464 66.9167 200.964 67.25C200.297 67.25 199.714 67.6667 199.214 68.5C197.214 72 198.131 74 201.964 74.5C209.464 74.5 218.797 70.5833 229.964 62.75L232.964 60.75C233.131 60.5833 233.381 60.5833 233.714 60.75C234.047 60.9167 234.131 61.1667 233.964 61.5C227.797 66.5 220.797 70.5 212.964 73.5C205.131 76.5 199.964 76.75 197.464 74.25ZM201.214 65.75C202.381 65.75 204.047 65.0833 206.214 63.75C207.714 62.75 208.714 61.6667 209.214 60.5C209.381 60 209.214 59.75 208.714 59.75L205.964 61.25C202.631 63.75 201.047 65.25 201.214 65.75ZM248.522 49C247.022 47.1667 246.856 45.6667 248.022 44.5C248.522 44 248.939 43.8333 249.272 44C249.772 44 250.189 44.1667 250.522 44.5C250.856 44.6667 250.939 44.9167 250.772 45.25C250.106 46.75 250.106 47.8333 250.772 48.5C251.439 49.1667 252.689 49.4167 254.522 49.25C256.856 48.9167 258.022 48.5 258.022 48C258.022 47.8333 258.106 47.75 258.272 47.75C258.606 47.75 258.772 48 258.772 48.5C258.772 48.8333 258.689 49.0833 258.522 49.25C257.522 50.25 255.772 50.75 253.272 50.75C251.106 50.75 249.522 50.1667 248.522 49ZM232.522 81.75C232.522 79.4167 234.356 75.75 238.022 70.75L239.772 68.25L239.522 68.5C239.356 68.5 239.022 68.6667 238.522 69C238.189 69.1667 237.856 69.3333 237.522 69.5C232.522 72.1667 229.439 73.5 228.272 73.5C227.606 73.5 227.106 73.3333 226.772 73C225.606 71.3333 226.689 68.4167 230.022 64.25C233.522 59.4167 236.272 56.5833 238.272 55.75L239.022 55.5C239.689 55.5 240.189 56 240.522 57C240.856 57.5 239.689 59 237.022 61.5C235.689 62.6667 234.272 64.0833 232.772 65.75C231.439 67.25 230.356 68.5833 229.522 69.75C228.689 70.75 228.356 71.3333 228.522 71.5C228.522 71.6667 229.189 71.5 230.522 71C232.022 70.3333 233.689 69.5 235.522 68.5C237.522 67.5 239.189 66.5833 240.522 65.75C242.022 64.75 243.939 63.25 246.272 61.25C248.939 58.75 250.522 57.75 251.022 58.25C251.522 58.9167 251.606 59.5833 251.272 60.25C250.939 60.9167 249.439 62.5 246.772 65C239.606 72.1667 235.439 77.25 234.272 80.25C232.772 84.25 235.689 84.5833 243.022 81.25C251.856 77.25 263.022 70.3333 276.522 60.5C277.022 60.3333 277.439 60.5 277.772 61C272.939 65 267.022 69.0833 260.022 73.25C251.522 78.75 245.106 82.25 240.772 83.75C235.272 85.9167 232.522 85.25 232.522 81.75Z" fill="#C19B5C"/>
</svg>
